<?xml version="1.0" encoding="utf-8"?>
<!-- Generator: Adobe Illustrator 25.0.1, SVG Export Plug-In . SVG Version: 6.00 Build 0)  -->
<svg version="1.1" id="Layer_1" xmlns="http://www.w3.org/2000/svg" xmlns:xlink="http://www.w3.org/1999/xlink" x="0px" y="0px"
	 viewBox="0 0 510 262.9" style="enable-background:new 0 0 510 262.9;" xml:space="preserve">
<style type="text/css">
	.st0{fill:#F5F6FA;}
	.st1{fill:#099659;}
	.st2{fill:#FFB07B;}
	.st3{fill:#0C1B3C;}
	.st4{fill:#5F6386;}
	.st5{fill:#EA8E50;}
	.st6{fill:#050C19;}
	.st7{fill:#BF005B;}
	.st8{fill:#FF006E;}
	.st9{fill:#FF910D;}
	.st10{fill:url(#SVGID_1_);}
	.st11{fill:url(#SVGID_2_);}
	.st12{fill:url(#SVGID_3_);}
	.st13{fill:#935C2F;}
	.st14{fill:#A16D3C;}
	.st15{fill:url(#SVGID_4_);}
	.st16{fill:#FFBE0B;}
	.st17{fill:#0082AF;}
	.st18{fill:url(#SVGID_5_);}
	.st19{fill:#00A8F2;}
	.st20{fill:#B6CCD3;}
	.st21{fill:#BF880C;}
	.st22{fill:#1E3D70;}
	.st23{fill:url(#SVGID_6_);}
	.st24{fill:url(#SVGID_7_);}
	.st25{fill:#04683B;}
	.st26{fill:#2E3552;}
</style>
<g>
	<path class="st0" d="M71.4,261.5c0,0-96.6-96.7-36.6-154.5c60-57.8,107.4,17.2,140.2,11.7c41.5-7,59.4-112.3,121.5-112.4
		c70.6-0.1,122.4,41.6,94.8,141c-20.4,73.3,119.6,13.3,99,115.6L71.4,261.5z"/>
	<path class="st1" d="M282.1,248.7c-13.1-2.1-23,2.5-32.6,1.2c-7.6-1.1-11.6-8.7-21.8-10.9c2.4-1.4,5.3-3.2,6.6-4.5
		c2.6-2.5,6.4-7.6,0-7.8c-4.6-0.1-8.2,7.5-9.8,11.9c-1.5-0.1-3.2-0.1-4.9,0c2.1-6.8,6.2-19.9,7.2-22.5c1.4-3.4-4.4-14.9-11.2-2
		c-4.8,9-1.5,19.5,0.8,24.9c-1.9,0.3-3.6,0.7-5.3,1.3c-5.6-12.8-23.4-49.2-42.7-44.7c-21,4.9,24,29.4,35.4,47.6
		c-9.3,4.3-17.5,9.5-31.6,5.7c-37.5-10.2-40.5,12.7-40.5,12.7l167.6,0.1C299.4,261.4,295.2,250.8,282.1,248.7z"/>
	<g>
		<path class="st2" d="M236.5,166.7c0.2,1.6,2.5,1.6,5,1.2c2.6-0.4,1.9,0.3,5.5,0.2c3.6-0.1,4.8-1.3,5-1.8c0.1-0.5-1.6-0.8-3.5-1.2
			c-0.2,0-0.5-0.1-0.7-0.2c-2.1-0.5-3.6-2-5.4-3.3c-1.8-1.2-2.9-7-2.9-7l-5.2,0c0,0,1.6,5.2,2.5,7c0.5,1.1,0,2.4-0.2,3.4
			C236.5,165.6,236.4,166.1,236.5,166.7z"/>
		<path class="st3" d="M241.5,167.9c2.6-0.4,1.9,0.3,5.5,0.2c3.6-0.1,4.8-1.3,5-1.8c0.1-0.5-1.6-0.8-3.5-1.2l0,0
			c0,0-2.3,1.3-5.3,1.1c-2.4-0.2-5-1.1-6.6-1.2c-0.1,0.6-0.2,1.1-0.1,1.7C236.6,168.3,238.9,168.3,241.5,167.9z"/>
		<path class="st2" d="M196.2,166.4c0.1,1.6,2.4,1.6,5,1.4c2.6-0.3,1.9,0.4,5.5,0.4c3.6,0.1,4.9-1.1,5.1-1.6
			c0.2-0.5-1.6-0.9-3.5-1.3c-0.2-0.1-0.5-0.1-0.7-0.2c-2.1-0.5-3.5-2.1-5.3-3.5c-1.7-1.3-0.3-6.8-0.3-6.8l-3.9-1.8
			c0,0-0.5,5.6-0.8,8.4c-0.1,1.2-0.7,2.3-0.9,3.3C196.2,165.3,196.1,165.9,196.2,166.4z"/>
		<path class="st3" d="M201.1,167.8c2.6-0.3,1.9,0.4,5.5,0.4c3.6,0.1,4.9-1.1,5.1-1.6c0.2-0.5-1.6-0.9-3.5-1.3l0,0
			c0,0-2.3,1.2-5.3,0.9c-2.4-0.3-4.9-1.3-6.6-1.5c-0.1,0.5-0.2,1.1-0.2,1.7C196.3,168.1,198.6,168.1,201.1,167.8z"/>
		<path class="st4" d="M204.9,85.7c0,0-1.1,5.2-2.2,31.9c0,0-2,4.9-3.5,11c-1.5,6-2.5,31.2-2.5,31.2s0.6,0.8,2.3,0.9
			c1.4,0.1,2.6-0.5,2.6-0.5s10.2-32.9,15.1-45.7c4.9-12.8,7.8-31,7.8-31L204.9,85.7z"/>
		<path class="st4" d="M217.2,87.9c0,0,0.8,5.3,9,30.6c0,0-0.2,5.3,0.5,11.5c0.7,6.2,9,30.4,9,30.4s1.1,0.4,2.8-0.1
			c1.5-0.4,2.7-1.3,2.7-1.3s-3.2-34.6-3-48.4c0.2-13.7-3.4-31.8-3.4-31.8L217.2,87.9z"/>
		<path class="st3" d="M231.7,14.5c-1.3-0.8-2.9-1-4-1c0.3-0.3,0.9-0.4,0.9-0.4c-0.7-0.1-2.2,0.5-2.2,0.5
			c-9.4-4.2-11.6,9.8-11.5,13.1c0,3.3-0.1,7-5,9.7c-9.7,5.3-2.3,15.8-2.3,15.8c-1.7,5,4.7,11.1,4.7,11.1
			c-0.1-2.7,12.1-19.6,18.6-23.4c1.7-2.2,2.4-6.2,2.5-6.5c-0.4,3.2-1.1,4.9-1.6,5.9C237.3,34.7,235.1,16.7,231.7,14.5z"/>
		<path class="st2" d="M229.6,38.2c0,0-3.1,1.6-5.4,1c-2.2-0.6-3.6-3.4-3.6-3.5c0.9-0.2,1.2-1.5,1.2-7l0.4,0.1l6.8,1.4l0.3,0
			c0,0-0.2,2.2-0.2,4.3c0,0.4,0,0.9,0,1.3C229.2,37.1,229.3,38,229.6,38.2z"/>
		<path class="st5" d="M229.1,34.6c0,0.4,0,0.9,0,1.3c-4-0.2-6.3-4.7-7.1-6.7l7,1l0.3,0C229.3,30.2,229.1,32.5,229.1,34.6z"/>
		<path class="st6" d="M221.5,28.1c0,0-2.1-3.3-2.6-6.1c-0.4-2,0.7-9.4,8.1-8.4c0,0,2.2,0.2,4.2,1.6c1.6,1.1,4,3.5,1.3,9.9l-0.7,2.2
			L221.5,28.1z"/>
		<path class="st2" d="M229.7,33.5c0,0-9.3-1.2-8.4-7c0.9-5.8,0.2-9.8,6.2-9.3c6,0.5,6.8,2.9,7,4.9S232.1,33.7,229.7,33.5z"/>
		<path class="st3" d="M231.7,17.7c0,0-3.5,6.4-7.6,6.8c-4,0.4-5.6-0.9-5.6-0.9s3.3-1.9,4.6-6C223.1,17.7,230.3,14.2,231.7,17.7z"/>
		<path class="st3" d="M231,18.2c0,0,1.7,1.8,1.9,3.3c0.2,1.5,0,4.6,0.9,4.6c0,0,2.6-4.3,0.8-7.2C232.8,15.8,231,18.2,231,18.2z"/>
		<path class="st7" d="M292.7,96.6c-1.9-4.1-7.4-7.5-11.9-7.5c-3.4,0-6.3,1.1-8.6,3c-1.3,1.1-3.3,0.4-3.7-1.3l-4-18.6
			c-0.6-2.7-3.2-4.4-6-3.8l-64.6,13.9c-2.6,0.6-4.3,3.2-3.8,5.8l13.9,64.6c0.4,1.8,1.8,3.2,3.4,3.8l-0.8,0.2h2.5l0,0
			c0.3,0,0.6,0,0.9-0.1l1.4-0.3l0,0l0,0l16.6-3.6c2.3-0.5,3.3-3.3,1.7-5.1c-1.5-1.7-2.6-3.9-3.1-6.3c-1.3-6.9,2.9-13.7,9.7-15.5
			c7.5-2,15.1,2.6,16.7,10.1c0.6,2.8,0.3,5.6-0.8,8.1c-0.4,1-0.1,2,0.6,2.5l-1,0.5l2.2,0v0c0.2,0,0.3,0,0.5,0l19.8-4.3
			c2.7-0.6,4.4-3.3,3.8-6l-4-18.4c-0.4-1.7,1.2-3.2,2.9-2.8c2,0.5,4.1,0.6,6.2,0.1C291.7,113.9,296.5,104.8,292.7,96.6z"/>
		<path class="st8" d="M278.5,89.1c-3.4,0-6.3,1.1-8.6,3c-1.3,1.1-3.3,0.4-3.7-1.3l-4-18.6c-0.6-2.7-3.2-4.4-6-3.8l-64.6,13.9
			c-2.6,0.6-4.3,3.2-3.8,5.8l13.9,64.6c0.6,2.7,3.3,4.5,6,3.9l18-3.9c2.3-0.5,3.3-3.3,1.7-5.1c-1.5-1.7-2.6-3.9-3.1-6.3
			c-1.3-6.9,2.9-13.7,9.7-15.5c7.5-2,15.1,2.6,16.7,10.1c0.6,2.8,0.3,5.6-0.8,8.1c-0.7,1.6,0.7,3.3,2.4,2.9l19.8-4.3
			c2.7-0.6,4.4-3.3,3.8-6l-4-18.4c-0.4-1.7,1.2-3.2,2.9-2.8c2,0.5,4.1,0.6,6.2,0.1c8.3-1.8,13.1-10.9,9.3-19.1
			C288.4,92.5,283,89.1,278.5,89.1z"/>
		<path class="st2" d="M254.8,64.5c0,0,4,0.7,5.1,3.3c1.1,2.6-0.4,4.4-1,4.4c-0.6,0-1.7-0.4-2.2-1.8
			C256.2,69.1,254.8,64.5,254.8,64.5z"/>
		<path class="st2" d="M199.3,76.2c0,0,4.5,0,6.2,2.7c1.6,2.7,0.3,4.9-0.3,5c-0.6,0.1-1.9-0.2-2.7-1.6
			C201.7,80.9,199.3,76.2,199.3,76.2z"/>
		<path class="st9" d="M254.9,67.6c-0.4-0.1-2.2-0.3-4.4-0.6c-4.1-0.6-9.8-1.8-11.8-3.6c-0.5-0.5-1.7-3.1-3-6.2
			c-1.3,6.7-1.3,11.9-1,15.8L207,79c2.4-4.8,6.1-10.8,5.4-15.6c-0.3-1.8-1.2-4.2-1.6-7c0-0.2-0.1-0.5-0.1-0.7
			c-3.9,3.2-8.4,6.7-8.5,7.5c-0.2,1.2,2.9,14.3,2.9,14.3c-0.8,1.7-4,1.4-4,1.4c-3.1-2.2-7.6-14.6-7.2-17.3
			c0.4-2.7,11.5-18.4,14.2-22.2c2.7-3.7,12.4-3.6,12.7-3.6h0c0,0,0,0,0,0c7.8,4.7,8.5,0.8,8.5,0.8s7,1.3,8.2,3.4
			c1.2,2.1,6.5,17.7,6.9,18.3c0.8,1.2,13.5,5.8,13.8,7.1C258.2,66.6,256.1,67.8,254.9,67.6z"/>
		<linearGradient id="SVGID_1_" gradientUnits="userSpaceOnUse" x1="206.9994" y1="67.319" x2="217.6775" y2="67.319">
			<stop  offset="0" style="stop-color:#FF910D"/>
			<stop  offset="1" style="stop-color:#D1770A"/>
		</linearGradient>
		<path class="st10" d="M216.7,76.9L207,79c2.4-4.8,5.6-10.8,4.9-15.6c-0.3-1.8-0.8-3.9-1.1-6.7c0-0.3-0.1-1.1-0.1-1.1
			s6.9,5.4,7,11.2C217.7,69.9,217.2,73.9,216.7,76.9z"/>
		<linearGradient id="SVGID_2_" gradientUnits="userSpaceOnUse" x1="235.7825" y1="59.7435" x2="250.7945" y2="59.7435">
			<stop  offset="0" style="stop-color:#FF910D"/>
			<stop  offset="1" style="stop-color:#D1770A"/>
		</linearGradient>
		<path class="st11" d="M250.8,67c-4.2-0.6-10-1.8-11.9-3.6c-0.5-0.5-1.8-3.1-3-6.2c0,0-0.4-4.9,0.8-4.7c1.3,0.2,3.2,8.9,4.5,9.4
			C242.4,62.4,249,65,250.8,67z"/>
	</g>
	<g id="man_2_">
		<g>
			<path class="st3" d="M455.7,253.2c-0.6,2-3.3,3.3-3.7,5.7c-0.2,1.2-0.6,2.1-1.2,2.7h-8.4c0.1-0.5,0.5-1,1.5-1.2
				c2.3-0.5,3.2-3.3,3.1-6c-0.1-1.1,0-2.4,0-3.5c0.1-1.5,0.2-2.7,0.2-2.7l5-1.2l0.5,0.7l0.5,0.6
				C453.3,248.4,456.3,251.2,455.7,253.2z"/>
			<path class="st3" d="M416.5,261.6h-17c0.4-0.5,1-0.9,2.1-1.1c2.6-0.4,7.2-1.9,8.2-5.3c0-0.1,0.1-0.2,0.1-0.3
				c0.8-3.6,6.7,1.1,6.7,1.1s0,0.1,0,0.4C416.6,257.4,416.9,260.1,416.5,261.6z"/>
			<path class="st4" d="M402.3,166.6c0,0,0.9,11.1,1.9,24.4c1.4,18.1,3.1,40.4,3.3,44.6c0.3,7.3,1.5,19,1.5,19s2.8,2.8,8.3,1.6
				c0,0,5-16.7,6.4-34.4c0-0.3,0-0.6,0.1-0.9c1.3-18,3.4-55.9,3.4-55.9L402.3,166.6z"/>
			<linearGradient id="SVGID_3_" gradientUnits="userSpaceOnUse" x1="402.2522" y1="193.4571" x2="427.0907" y2="193.4571">
				<stop  offset="0" style="stop-color:#4A4E73"/>
				<stop  offset="1" style="stop-color:#5F6386"/>
			</linearGradient>
			<path class="st12" d="M402.3,166.6c0,0,0.9,11.1,1.9,24.4l19.5,30.8c0-0.3,0-0.6,0.1-0.9c1.3-18,3.4-55.9,3.4-55.9L402.3,166.6z"
				/>
			<path class="st4" d="M406.3,167.9c0,0,16,40.2,26.6,59c10.5,18.9,13.8,24.1,13.8,24.1s6-2.4,6.6-4.1c0,0-4-36.4-11.1-45.3
				c-4-5-8.7-20.1-8.9-25.4c-0.2-5.3-1.4-15.7-1.4-15.7L406.3,167.9z"/>
		</g>
		<path class="st13" d="M414.5,105.9c-0.7-4.2-0.7-6.7-0.7-6.7l8.1-6.6c-0.3,9,5.5,13.3,5.5,13.3s-10.8,5.3-17.1,3.4
			C410.3,109.4,411.8,107.4,414.5,105.9z"/>
		<path class="st14" d="M411.9,99.1c0,0,10.3,1.7,11.3-4.7c1-6.5,3-10.6-3.6-12c-6.6-1.4-8.2,0.9-9.1,3
			C409.7,87.4,409.2,98.5,411.9,99.1z"/>
		<g>
			<path class="st14" d="M375.6,112.4l-2.2-1.4c0,0-2.7-4.1-7.4-1.5c0,0-1.9,1.2-0.6,2.2c1.2,1,0.9,0.4,2.6,1.9
				c1.7,1.4,4,1.9,5.4,1.2l1.8-0.2L375.6,112.4z"/>
			<linearGradient id="SVGID_4_" gradientUnits="userSpaceOnUse" x1="372.7038" y1="115.5625" x2="429.2643" y2="115.5625">
				<stop  offset="0" style="stop-color:#F5911F"/>
				<stop  offset="1" style="stop-color:#FFBE0B"/>
			</linearGradient>
			<path class="st15" d="M372.9,112.8c0.6-1.8,0.8-1.9,0.8-1.9s17.8,2.1,19.5,2.2c1.7,0.1,25-4.7,25-4.7l11,13.4
				c0,0-32.5,1.2-36.7,0.8c-7-0.7-19.7-7.2-19.7-7.2S372.5,114.2,372.9,112.8z"/>
		</g>
		<path class="st16" d="M433.1,162.7c0,0.7-1.4,1.4-2,1.7c-4.6,2.1-9,3.5-13.9,4c-5.8,0.6-12.7-0.7-15-0.7c-0.3,0-0.5-0.1-0.7-0.3
			c-0.2-0.1-0.3-7.2-0.2-16.1c0-0.3,0-0.7,0-1.1v-0.1c0-0.9,0-1.9,0-2.8c0.1-2.6,0.2-5.3,0.3-8c0.2-3.9,0.4-7.8,0.7-11.2
			c0.3-3.6,0.8-6.7,1.3-8.9c1.3-5,4.1-8.4,6.8-10.8l2.2-1.9c2.2,0.4,4.5,0.3,6.7-0.8c2.5-1.2,5.2-2.5,5.6-2.2
			c3.3,2.5,5.6,8.2,6.7,15.4c0.6,3.9,0.9,8.2,0.9,12.7c0,1.7-0.1,3.5-0.2,5.3c-0.6,9.5,0,17.8,0.3,22.6
			C433,160.9,433.1,162,433.1,162.7z"/>
		<path class="st17" d="M378.1,74.7l-65.4-10.4c-2.8-0.4-5.4,1.5-5.8,4.2L304,86.8c-0.1,0.8,0.1,3.2,0.1,3.2l2.4,0.4
			c0.1,0,0.3,0,0.4,0.1l0,0l0,0c0.4,0,0.9,0,1.3-0.2c2.2-0.8,4.6-1,7-0.6c6.9,1.3,11.7,7.7,11,14.6c-0.8,7.7-7.9,13.1-15.5,11.9
			c-2.9-0.5-5.4-1.8-7.3-3.6c-0.4-0.4-0.8-0.6-1.3-0.6l0,0l-2.5-0.4l-3.1,22.2c-0.4,2.7,1.4,5.3,4.2,5.8l18.7,3
			c1.7,0.3,2.6,2.3,1.5,3.7c-1.2,1.6-2,3.6-2.3,5.7c-1.3,8.4,5.4,16.2,14.5,15.6c4.6-0.3,9.7-4.2,11.4-8.4c1.2-3.2,1.2-6.3,0.3-9.2
			c-0.5-1.6,0.9-3.2,2.5-3l18.8,3c2.7,0.4,5.3-1.4,5.8-4.2l10.4-65.5C382.6,77.7,380.8,75.1,378.1,74.7z"/>
		<linearGradient id="SVGID_5_" gradientUnits="userSpaceOnUse" x1="401.4792" y1="133.056" x2="425.3162" y2="133.056">
			<stop  offset="0" style="stop-color:#F5911F"/>
			<stop  offset="1" style="stop-color:#FFBE0B"/>
		</linearGradient>
		<path class="st18" d="M425.3,118.8c0,0-5,23.4-23.8,28.6c0.1-2.6,0.2-5.3,0.3-8c0.2-3.9,0.4-7.8,0.7-11.2c0.3-0.2,0.7-0.3,0.9-0.4
			C409.8,125.7,425.3,118.8,425.3,118.8z"/>
		<path class="st19" d="M342,158.8c1.2-3.2,1.2-6.3,0.3-9.2c-0.5-1.6,0.9-3.2,2.5-3l18.8,3c2.7,0.4,5.3-1.4,5.8-4.2L379.8,80
			c0.4-2.7-1.4-5.2-4.1-5.6L310.3,64c-2.8-0.4-5.4,1.5-5.8,4.2l-2.9,18.2c-0.4,2.4,1.9,4.3,4.2,3.4c2.2-0.8,4.6-1,7-0.6
			c6.9,1.3,11.7,7.7,11,14.6c-0.8,7.7-7.9,13.1-15.5,11.9c-2.9-0.5-5.4-1.8-7.3-3.6c-1.3-1.2-3.4-0.5-3.6,1.2l-3.2,20.1
			c-0.4,2.7,1.4,5.3,4.2,5.8l18.7,3c1.7,0.3,2.6,2.3,1.5,3.7c-1.2,1.6-2,3.6-2.3,5.7c-1.3,8.4,5.4,16.2,14.5,15.6
			C335.2,166.9,340.3,163,342,158.8z"/>
		<g>
			<path class="st14" d="M375.6,127.5l-2.7-0.4c0,0-3.1-4.4-8.4-1.9c0,0-2.1,1.2-0.7,2.3c1.4,1.1,1,0.5,3,2.1
				c1.9,1.6,4.5,2.2,6.1,1.5l2.1-0.1L375.6,127.5z"/>
			<path class="st16" d="M373.6,128.8c0.1-2,1.1-2.2,1.1-2.2s20.4-1.3,22.1-1.7c1.8-0.3,18-13.8,18-13.8s6.3-5.6,10.7-3.7
				c3.8,1.7,5,4.9,5.2,7.9c0.2,3.6-1.8,6.9-5,8.4c-7.3,3.4-21.9,10.1-25.2,10.7c-7.4,1.3-26.4-2.8-26.4-2.8S373.5,130.4,373.6,128.8
				z"/>
		</g>
		<path class="st3" d="M410.5,85.4c0,0-4.2-3.1-1.5-7.9c0,0,3.3,1.1,8,0c4.7-1.1,8.9,0.5,9.4,2.1c0,0,1.8,0.7,2,3.5
			c0.2,2.7-5.3,11.4-5.3,11.4s-1.2-1.5-0.9-2.5c0.3-1,1.3-3.2,0.1-3.2s-1.6,1.8-2.1,1.1c-0.5-0.7,0.4-3.8-1-4.3
			C417.8,84.9,412.2,86.3,410.5,85.4z"/>
	</g>
	<path class="st20" d="M267.8,259.3l-18.5-83.9h5.1c1.2,0,2.2-1,2.2-2.2v-2.8c0-1.2-1-2.2-2.2-2.2h-64.6c-1.2,0-2.2,1-2.2,2.2v2.8
		c0,1.2,1,2.2,2.2,2.2h6.6L178,259.3c-0.2,1.1,0.5,2.3,1.6,2.5c1.1,0.2,2.2-0.5,2.5-1.6l18.7-84.9h44.3l18.7,84.9
		c0.2,1.1,1.4,1.8,2.5,1.6l0,0C267.4,261.5,268.1,260.4,267.8,259.3z"/>
	<g>
		<path class="st1" d="M390.5,207.7c-6.8-6.6-31.5,34.9-31.5,34.9S397.3,214.2,390.5,207.7z"/>
		<path class="st1" d="M389.6,227c-6.1-2.4-25.4,18-29.8,22.7c-3.3-0.4-7-0.7-11-0.8c-30.7-0.5-44.6,13.3-44.6,13.3l85.5,0.3
			c0,0-7.6-9.6-29.1-12.7c5.3-2.5,20.8-9.7,26.4-11.1C394,237.1,396.5,229.8,389.6,227z"/>
	</g>
	<g>
		<path class="st21" d="M365.5,185.4h-18.5c-2.4,0-3.9,2.6-2.8,4.7c1.1,2-2.8,19.5-11.1,20c-7.8,0.4-14.2-5.8-14.2-13.5
			c0-2.9,0.9-5.6,2.5-7.8c1-1.4,0-3.4-1.8-3.4h-20.3c-2.8,0-5,2.3-5,5c0,0-1.8,21.8-3.4,21c-1.6-0.8-3.4-1.3-5.3-1.4l0,0h0
			c-0.2,0-0.5,0-0.7,0c-0.2,0-3.6-0.1-3.6-0.1l-0.5,26.9l2.9,0c2.8-0.1,5.2-0.3,7.3-1.4c1.5-0.8,3.3,0.3,3.3,2v19c0,2.8,2.3,5,5,5
			h66.3c2.7,0,4.9-2.2,4.9-4.9v-66.2C370.6,187.7,368.3,185.4,365.5,185.4z"/>
		<path class="st16" d="M278.4,236.6c3.3,0.7,6.5,0.2,9.1-1.1c1.5-0.8,3.3,0.3,3.3,2v19c0,2.8,2.3,5,5,5h66.3c2.7,0,4.9-2.2,4.9-4.9
			v-66.2c0-2.8-2.3-5.1-5.1-5.1h-18.5c-2.4,0-3.9,2.6-2.8,4.7c1.1,2,1.7,4.4,1.7,6.8c-0.2,7-5.8,12.8-12.7,13.1
			c-7.8,0.4-14.2-5.8-14.2-13.5c0-2.9,0.9-5.6,2.5-7.8c1-1.4,0-3.4-1.8-3.4h-20.3c-2.8,0-5,2.3-5,5v18.9c0,1.8-1.8,2.9-3.4,2.1
			c-1.8-0.9-3.9-1.4-6-1.4c-8.5,0-15.2,7.9-13.1,16.7C269.3,231.2,273.9,235.7,278.4,236.6z"/>
	</g>
	<path class="st1" d="M86.4,261.8l11.9,0.1c0,0-0.4-2.9-8.4-3.6l0,0c-3.1-8.6-12.2-31.9-20.2-30.8c-7.8,1.1,10.7,22.4,18.3,30.7
		c-1.1,0-2.1,0.1-3,0.2c-1.8-3.6-5.4-8.7-11.2-8.5c-6.2,0.2,2.2,5.9,8,9.3c-2.9,1-4.5,2.5-4.5,2.5l9,0.1
		C86.4,261.8,86.4,261.8,86.4,261.8C86.4,261.8,86.4,261.8,86.4,261.8z"/>
	<g>
		<g>
			<path class="st5" d="M129,165.7l1.8,1.4c0,0,4.8-1.7,5.9,4c0,0,0.3,2.4-1.3,2.4c-1.5,0-0.9-0.3-3.1-0.2c-2.2,0.1-4-1.1-4.3-2.9
				l-1-1.5L129,165.7z"/>
			<path class="st22" d="M128.8,168.7c1.4-1.5,1.3-2.6,1.3-2.6s-16.3-13.3-17.9-14.4C111,151,99,140.4,93.4,133.9
				c-2.8-3.2-6.2-2-10.2-0.8L80,134c-3.9,1.1-4.9,6.6-1.7,9.3c9.1,7.5,24.1,15.9,26.9,17.7c7,4.4,20.7,9.6,20.7,9.6
				S127.6,170,128.8,168.7z"/>
		</g>
		<path class="st3" d="M147.9,250.5c0,0,4,3,10,1.4c0,0,4.9-1.1,6,1.3c0,0-7.5,3.8-9.4,4.8c-1.4,0.8-2.9,2-4,3
			c-0.8,0.8-2.1,0.7-2.8-0.2c-0.3-0.4-0.7-0.9-1.1-1.4c-1.2-1.6-3.8-6.6-3.8-6.6L147.9,250.5z"/>
		<path class="st4" d="M149.7,249.2c0,0-2.4,5.5-8,4.5c0,0-11.3-9.4-19.1-19.1c-2.5-3.2-4.7-6.4-5.9-9.3
			c-5.2-11.9-19.1-29.7-27.9-38.8l22.1-8c0,0,7.1,14.3,16.5,31.8C134.2,223,142.2,237.3,149.7,249.2z"/>
		<linearGradient id="SVGID_6_" gradientUnits="userSpaceOnUse" x1="88.7549" y1="206.5781" x2="127.4244" y2="206.5781">
			<stop  offset="0" style="stop-color:#4A4E73"/>
			<stop  offset="1" style="stop-color:#5F6386"/>
		</linearGradient>
		<path class="st23" d="M127.4,210.3l-4.8,24.3c-2.5-3.2-4.7-6.4-5.9-9.3c-5.2-11.9-19.1-29.7-27.9-38.8l22.1-8
			C110.9,178.5,118,192.8,127.4,210.3z"/>
		<path class="st3" d="M109.3,253.7c0,0-0.2,4.4,5.1,5c0,0,3.1,0,3.1,2.8l-15.6,0c0,0-0.5-1.1-0.6-3.6c-0.1-1.9,1.8-6.8,1.8-6.8
			L109.3,253.7z"/>
		<path class="st4" d="M103.6,178.5c0,0,9.9,10.8,16.1,30.4c3.4,10.6-6.2,37.3-8.1,46.6c0,0-6.5,0.5-10.9-1.2c0,0-0.3-19.2,2.3-33.9
			c1.4-8.3-13-17.7-19.3-32.6c-4.3-10.2,0.9-10,7.3-10.2L103.6,178.5z"/>
		<path class="st2" d="M92.2,130.2c-5.5,3.1-16.7,0.2-16.7,0.2s4.6-5.2,2.5-13.6l4.3,2.2l4.6,2.4c0,0,0.3,1.5,0.5,4.1
			c0.1,0.7,0.1,1.5,0.1,2.3C90.4,128.6,92.2,130.2,92.2,130.2z"/>
		<path class="st8" d="M112.4,178c0,1-1.1,1.4-1.3,1.5c-2.2,0.4-8.4,2.8-14,3.4c-4.7,0.5-9,0-13.8-0.9c-0.6-0.1-2.1-0.5-2.2-1.1
			c-0.1-0.7-18.4-37.3-4.2-53.1c0.3-0.4,3.1,0.3,5.7,0.9c2.4,0.6,4.6,0.2,6.5-0.5l2.4,1.3c3,1.6,8.6,7.5,9.2,12.1
			c0.3,2.3,1.7,4.1,2.1,6.1c0.1,0.8,0.3,1.5,0.4,2.2c0.3,1.4,0.6,2.8,0.9,4.1c0.8,3.5,1.7,6.5,2.6,9.1c0.9,2.7,1.8,5,2.6,6.9
			c1,2.5,1.9,4.3,2.5,5.7C112.1,176.6,112.4,177.4,112.4,178z"/>
		<linearGradient id="SVGID_7_" gradientUnits="userSpaceOnUse" x1="76.9526" y1="157.7871" x2="111.7552" y2="157.7871">
			<stop  offset="0" style="stop-color:#9C0050"/>
			<stop  offset="1" style="stop-color:#EC0068"/>
		</linearGradient>
		<path class="st24" d="M111.8,175.6C85.9,163.4,77,140,77,140s21,7.7,26.2,9.8c0.3,1.4,0.6,2.8,0.9,4.1c0.8,3.5,1.7,6.5,2.6,9.1
			c0.9,2.7,1.8,5,2.6,6.9C110.3,172.3,111.2,174.2,111.8,175.6z"/>
		<path class="st17" d="M184.8,149.7l-5.5-17.6c-0.5-1.7-2.3-2.5-3.8-2.1l0,0l0,0c-0.1,0-0.2,0.1-0.2,0.1l-1.9,0.6
			c0,0-3,3.1-5.2,3.8c-6.7,1.9-13.1-1.6-15.5-8.2c-2.7-7.3,0.4-15.3,7.7-17.6c2.5-0.8,7.4,0.7,7.4,0.7l2-0.7
			c1.1-0.3,1.8-1.5,1.4-2.7l-6.1-19.3c-0.8-2.6-3.6-4.1-6.3-3.3l-18,5.7c-1.7,0.5-3.3-0.9-3-2.6c0.3-2,0.2-4.1-0.5-6.1
			c-2.6-8.1-12-12.1-19.8-7.4c-3.9,2.3-6.8,8-6.4,12.6c0.3,3.4,1.7,6.2,3.8,8.3c1.2,1.2,0.7,3.3-0.9,3.8l-18.1,5.7
			c-2.6,0.8-4.1,3.6-3.3,6.3l19.9,63.1c0.8,2.6,3.6,4,6.1,3.2l63-19.9C184.1,155.2,185.6,152.3,184.8,149.7z"/>
		<path class="st19" d="M109,86.2c0.3,3.4,1.7,6.2,3.8,8.3c1.2,1.2,0.7,3.3-0.9,3.8L93.8,104c-2.6,0.8-4.1,3.6-3.3,6.3l19.9,63.1
			c0.8,2.6,3.6,4,6.1,3.2l63-19.9c2.7-0.8,4.2-3.7,3.3-6.4l-5.5-17.6c-0.7-2.3-3.6-2.9-5.3-1.2c-1.6,1.7-3.6,2.9-6,3.6
			c-6.7,1.9-13.9-1.6-16.3-8.2c-2.7-7.3,1.2-15.2,8.5-17.6c2.8-0.9,5.6-0.8,8.1,0c1.7,0.5,3.2-1,2.7-2.7L163,87.4
			c-0.8-2.6-3.6-4.1-6.3-3.3l-18,5.7c-1.7,0.5-3.3-0.9-3-2.6c0.3-2,0.2-4.1-0.5-6.1c-2.6-8.1-12-12.1-19.8-7.4
			C111.5,76,108.6,81.7,109,86.2z"/>
		<g>
			<path class="st2" d="M126.9,168.5l2.2,0.8c0,0,4.5-3.2,7.3,2c0,0,1,2.2-0.6,2.7c-1.6,0.5-1,0-3.3,0.8c-2.2,0.7-4.4,0.2-5.3-1.4
				l-1.5-1.1L126.9,168.5z"/>
			<path class="st8" d="M128.7,171.7c0.8-2.2,1.2-3.1,1.2-3.1s-16.9-13.8-18.6-14.9c-1.2-0.8-12.8-9.5-18.5-16.3
				c-2.8-3.4-7.3-4.9-11.6-4l-3.5,0.7c-4.3,0.9-5.7,6.3-2.3,9.2c9.3,8,25.1,17.3,28.1,19.2c7.3,4.8,23.4,11.5,23.4,11.5
				S128.1,173.4,128.7,171.7z"/>
		</g>
		<path class="st5" d="M87.5,125.5c-5.4,0.3-8.9-4.2-8.9-4.2s2.4-1.4,3.8-2.3l4.6,2.4C87,121.4,87.3,122.8,87.5,125.5z"/>
		<path class="st2" d="M89.8,120c0,0-8.2,5.9-11.8,0.7c-3.6-5.1-7-7.9-2-11.8c5.1-4,7.5-2.7,9.1-1.3C86.7,109,91.8,118.3,89.8,120z"
			/>
		<path class="st3" d="M86,102.9c-0.3-2-1-3.4-1-3.4s-0.5,2.1-4.4,1.8c-3.9-0.3-10,0.4-12.1,4.8c-0.1,0.3-0.2,0.6-0.4,0.9
			c-0.4-1-0.5-2.5-0.5-2.5c-0.7,1.9,0,4.3,0,4.3h0c0,0.1,0,0.1,0,0.2c-0.9,0.7-1.6,3-1.6,3c0.3-0.6,0.9-1,1.5-1.3
			c0,3.4,1.4,6.8,3.8,7.8c3.6,1.5,3.6,0.3,7.2,2.7c0,0,1-1.2,0.3-2c-0.7-0.8-3.2-2-1.8-3.2c1.4-1.2,1.9,0.1,2.4-0.7
			c0.5-0.8-2.1-3.2,1.2-5.4C84.1,108,86.3,104.9,86,102.9z"/>
	</g>
	<path class="st25" d="M296.5,261.6c0,0-4.1-6.1-10.6-5.6c-2,0.1-5.2,0.6-8.9,1.1c-2.8-9.8-10.5-33-20.9-34.3
		c-10.6-1.3,10.2,24.5,18.7,34.6c-1.6,0.2-3.2,0.4-4.8,0.6c-4.5-4.8-12.4-11.9-18.9-11.4c-6.6,0.5,5.7,7.3,14.6,11.8
		c-5.4,0.4-10.6,0.4-13.8-0.9c-7.7-3-14.8,4.1-14.8,4.1H296.5z"/>
	<path class="st26" d="M504.3,262.9H5.7c-0.4,0-0.7-0.3-0.7-0.7v0c0-0.4,0.3-0.7,0.7-0.7h498.7c0.4,0,0.7,0.3,0.7,0.7l0,0
		C505,262.6,504.7,262.9,504.3,262.9z"/>
</g>
</svg>
