<?xml version="1.0" encoding="utf-8"?>
<!-- Generator: Adobe Illustrator 25.1.0, SVG Export Plug-In . SVG Version: 6.00 Build 0)  -->
<svg version="1.1" id="Capa_1" xmlns="http://www.w3.org/2000/svg" xmlns:xlink="http://www.w3.org/1999/xlink" x="0px" y="0px"
	 viewBox="0 0 32 32" style="enable-background:new 0 0 32 32;" xml:space="preserve">
<style type="text/css">
	.st0{fill:#FFFFFF;}
</style>
<g>
	<path class="st0" d="M15.3,7.6c0.3,0.1,0.6,0.2,0.9,0.3c0.8,0.5,1.2,1.2,1.2,2.2c0,1.6,0,3.2,0,4.7c0,2.3,0,4.7,0,7
		c0,1.2-0.7,2.1-1.8,2.4c-1.5,0.4-3.1-0.8-3-2.4c0-1.3,1-2.3,2.3-2.4c0,0,0.1,0,0.1,0c0.1,0,0.2-0.1,0.2-0.2c0-0.1-0.1-0.2-0.2-0.2
		c-0.3,0-0.6,0.1-0.8,0.1c-1.2,0.4-1.9,1.4-1.9,2.6c0,0,0,0.1,0,0.2c-0.3,0-0.5,0-0.8-0.1c-1.2-0.4-1.8-1.5-1.7-2.6
		c0.2-1.3,1.2-2.1,2.4-2.1c0.3,0,0.5,0.1,0.8,0.1c0.1,0,0.1,0,0.2,0.1c0.1,0,0.2,0,0.2-0.1c0-0.1,0-0.2-0.1-0.2
		c-0.3-0.1-0.6-0.2-0.9-0.2c-1.2-0.1-2.2,0.5-2.7,1.6c0,0.1-0.1,0.1-0.1,0.2c-0.8-0.4-1.3-1.1-1.4-1.9c-0.1-0.8,0.3-1.7,1-2.2
		c0.3,0.2,0.6,0.5,0.9,0.6c0.8,0.4,1.6,0.5,2.4,0.1c0.2-0.1,0.3-0.2,0.2-0.3c0-0.1-0.2-0.1-0.3-0.1c-0.8,0.3-1.5,0.2-2.2-0.2
		c-0.9-0.5-1.3-1.6-1.1-2.5c0.2-1,1-1.8,2-1.9c0.4-0.1,0.8,0,1.1,0.1c0.1,0,0.2,0.1,0.2,0.2c0.1,0.7,0.5,1.3,1.1,1.8
		c0.5,0.3,1,0.5,1.6,0.5c0.1,0,0.2,0,0.3-0.2c0-0.1-0.1-0.2-0.2-0.2c-0.6,0-1.2-0.2-1.6-0.7c-0.7-0.7-0.9-1.5-0.7-2.5
		c0.3-0.9,1-1.5,1.9-1.7c0,0,0.1,0,0.1,0C14.9,7.6,15.1,7.6,15.3,7.6z M16.1,16.2c0.3,0,0.6,0,0.9,0c0.2,0,0.3-0.1,0.3-0.2
		c0-0.2-0.1-0.2-0.3-0.2c-0.6,0-1.2,0-1.8,0c-0.2,0-0.3,0.1-0.2,0.2c0,0.2,0.1,0.2,0.3,0.2C15.5,16.2,15.8,16.2,16.1,16.2z
		 M16.4,14.2c0.2,0,0.3,0,0.5,0c0.1,0,0.2,0,0.2-0.2c0-0.1-0.1-0.2-0.2-0.2c-0.3,0-0.7,0-1,0c-0.1,0-0.2,0-0.2,0.2
		c0,0.1,0.1,0.2,0.2,0.2C16.1,14.2,16.3,14.2,16.4,14.2z M16.4,18.2C16.4,18.2,16.4,18.2,16.4,18.2c0.2,0,0.3,0,0.5,0
		c0.1,0,0.2-0.1,0.2-0.2c0-0.1-0.1-0.2-0.2-0.2c-0.4,0-0.7,0-1.1,0c-0.1,0-0.2,0.1-0.2,0.2c0,0.1,0.1,0.2,0.2,0.2
		C16.1,18.2,16.3,18.2,16.4,18.2z M16.8,12C16.8,12,16.8,12,16.8,12c-0.1,0-0.2,0-0.2,0c-0.1,0-0.2,0.1-0.2,0.2
		c0,0.1,0.1,0.2,0.2,0.2c0.2,0,0.3,0,0.5,0c0.1,0,0.2-0.1,0.2-0.2c0-0.1-0.1-0.2-0.2-0.2C16.9,12,16.8,12,16.8,12z M16.7,20
		C16.7,20,16.7,20,16.7,20c0.1,0,0.2,0,0.3,0c0.1,0,0.2-0.1,0.2-0.2c0-0.1-0.1-0.2-0.2-0.2c-0.2,0-0.3,0-0.5,0
		c-0.1,0-0.2,0.1-0.2,0.2c0,0.1,0.1,0.2,0.2,0.2C16.6,20,16.7,20,16.7,20z"/>
	<path class="st0" d="M18.6,19.6c0.3-0.1,0.5,0.1,0.6,0.3c0.5,0.5,1,1,1.5,1.5c0.1,0.1,0.2,0.1,0.2,0.1c0.4,0,0.8,0,1.3,0
		c0.1,0,0.2,0,0.2-0.1c0.2-0.4,0.5-0.5,0.9-0.5c0.4,0.1,0.6,0.4,0.6,0.8c0,0.4-0.3,0.7-0.6,0.8c-0.4,0.1-0.7-0.1-0.9-0.5
		c0-0.1-0.1-0.1-0.2-0.1c-0.5,0-0.9,0-1.4,0c-0.1,0-0.2,0-0.3-0.1c-0.5-0.5-1.1-1.1-1.6-1.6C18.8,20,18.7,20,18.6,20
		c-0.1,0-0.3,0-0.4,0c-0.1,0-0.2-0.1-0.2-0.2c0-0.1,0.1-0.2,0.2-0.2C18.3,19.6,18.4,19.6,18.6,19.6z"/>
	<path class="st0" d="M23.9,10.4c0,0.4-0.3,0.7-0.6,0.8c-0.4,0.1-0.7-0.1-0.9-0.4c0-0.1-0.1-0.1-0.2-0.1c-0.4,0-0.8,0-1.2,0
		c-0.1,0-0.2,0-0.2,0.1c-0.5,0.5-1.1,1.1-1.6,1.6c-0.1,0.1-0.2,0.1-0.3,0.1c-0.2,0-0.3,0-0.5,0c-0.1,0-0.2,0-0.2-0.2
		c0-0.1,0.1-0.2,0.2-0.2c0,0,0,0,0,0c0.4,0.1,0.6-0.1,0.9-0.4c0.4-0.5,0.9-0.9,1.3-1.3c0.1-0.1,0.2-0.1,0.3-0.1c0.4,0,0.9,0,1.3,0
		c0.1,0,0.2,0,0.2-0.1c0.1-0.4,0.5-0.5,0.9-0.4C23.6,9.7,23.9,10,23.9,10.4z"/>
	<path class="st0" d="M19,14.2c-0.2,0-0.5,0-0.7,0c-0.2,0-0.3-0.1-0.3-0.2c0-0.1,0.1-0.2,0.3-0.2c0.4,0,0.9,0,1.3,0
		c0.1,0,0.2,0,0.2-0.1c0.2-0.2,0.4-0.4,0.6-0.6c0.1-0.1,0.3-0.2,0.5-0.2c0.2,0,0.3,0,0.4-0.2c0.2-0.3,0.5-0.5,0.9-0.4
		c0.3,0.1,0.6,0.4,0.6,0.8c0,0.4-0.3,0.7-0.6,0.7c-0.4,0.1-0.7-0.1-0.9-0.4c0-0.1-0.1-0.1-0.1-0.1c-0.1,0-0.3-0.1-0.4,0.1
		c-0.2,0.2-0.4,0.5-0.7,0.7c-0.1,0.1-0.2,0.1-0.3,0.1C19.6,14.2,19.3,14.2,19,14.2z"/>
	<path class="st0" d="M19.1,17.8c0.2,0,0.5,0,0.7,0c0.1,0,0.2,0,0.3,0.1c0.2,0.2,0.4,0.4,0.7,0.7c0.1,0.1,0.2,0.1,0.3,0.1
		c0.1,0,0.2,0,0.2-0.2c0.2-0.3,0.5-0.5,0.9-0.4c0.4,0.1,0.6,0.4,0.6,0.8c0,0.4-0.3,0.7-0.6,0.8c-0.4,0.1-0.7-0.1-0.9-0.4
		c-0.1-0.1-0.1-0.2-0.2-0.1c-0.3,0-0.5-0.1-0.6-0.3c-0.1-0.2-0.3-0.3-0.5-0.5c-0.1-0.1-0.2-0.1-0.3-0.1c-0.4,0-0.8,0-1.3,0
		c0,0-0.1,0-0.1,0c-0.2,0-0.3-0.1-0.3-0.2c0-0.2,0.1-0.2,0.3-0.2C18.6,17.8,18.8,17.8,19.1,17.8C19.1,17.8,19.1,17.8,19.1,17.8z"/>
	<path class="st0" d="M19.4,16.2c-0.4,0-0.7,0-1.1,0c-0.1,0-0.2,0-0.2-0.1c0,0,0-0.1,0-0.2c0.1-0.1,0.1-0.1,0.2-0.1c0.3,0,0.7,0,1,0
		c0.1,0,0.1,0,0.2-0.1c0.2-0.4,0.5-0.6,0.9-0.5c0.4,0.1,0.6,0.4,0.6,0.8c0,0.4-0.3,0.7-0.6,0.8c-0.4,0.1-0.7-0.1-0.9-0.5
		C19.4,16.3,19.4,16.2,19.4,16.2z"/>
</g>
</svg>
