<svg id="Layer_1" data-name="Layer 1" xmlns="http://www.w3.org/2000/svg" viewBox="0 0 53.9 37.6"><defs><style>.cls-1{fill:#c3c9d9;}</style></defs><path class="cls-1" d="M24.73,9.8h0c.85.28,1.71.53,2.57.8l-2.39.64a.57.57,0,0,1-.29,0l-2.47-.66C23,10.33,23.88,10.07,24.73,9.8Z"/><path class="cls-1" d="M15.15,10.6l2.41-.76a.34.34,0,0,1,.22,0c.83.26,1.67.51,2.5.78Q19,11,17.7,11.29Z"/><path class="cls-1" d="M14.56,11l2.79.83V16q-1.39-.48-2.79-.93Z"/><path class="cls-1" d="M18.08,11.87,20.87,11c0,1.34,0,2.69,0,4L18.08,16C18.07,14.63,18.08,13.25,18.08,11.87Z"/><path class="cls-1" d="M21.59,11l2.79.83V16q-1.39-.48-2.79-.93Z"/><path class="cls-1" d="M25.11,11.87,27.9,11c0,1.34,0,2.69,0,4L25.11,16Z"/><path class="cls-1" d="M4.61,16.5c.84-.29,1.69-.53,2.54-.81l2.58.8-.19.07c-.8.2-1.59.43-2.39.62Z"/><path class="cls-1" d="M11.93,16.4l2.25-.7,2.6.8c-.87.23-1.73.47-2.6.68l-2.54-.68A1.66,1.66,0,0,1,11.93,16.4Z"/><path class="cls-1" d="M4,16.93c.93.28,1.87.55,2.8.84,0,1.37,0,2.75,0,4.13C5.87,21.58,4.94,21.28,4,21Z"/><path class="cls-1" d="M7.53,17.76l2.79-.82c0,1.34,0,2.68,0,4l-2.78.93Z"/><path class="cls-1" d="M11,16.94c.94.27,1.87.54,2.8.83,0,1.37,0,2.75,0,4.12-.93-.29-1.85-.62-2.78-.92C11,19.63,11.05,18.28,11,16.94Z"/><path class="cls-1" d="M14.56,17.76l2.79-.82v4l-2.78.93Z"/><path class="cls-1" d="M8.13,22.39l2.53-.8,2.59.8c-.85.25-1.72.47-2.58.69l-2.35-.63A.6.6,0,0,1,8.13,22.39Z"/><path class="cls-1" d="M11,23.66l2.8-.83c0,1.35,0,2.69,0,4L11,27.8Z"/><path class="cls-1" d="M7.53,26.87c0-1.35,0-2.7,0-4l2.78.83V27.8Q8.93,27.32,7.53,26.87Z"/><path class="cls-1" d="M19.78,17.09a2.88,2.88,0,0,1,1.79-.38,2,2,0,0,1,1.41.63,1.76,1.76,0,0,1,.32,1.13c0,.7,0,1.4,0,2.1a1.11,1.11,0,0,0,.18.67,2.12,2.12,0,0,1,.24.37.15.15,0,0,1-.07.2l-.69.61c-.08.07-.2.14-.3.08a2.34,2.34,0,0,1-.6-.69,2.67,2.67,0,0,1-.84.61,2.29,2.29,0,0,1-1.1.12A1.4,1.4,0,0,1,19,21.78a1.88,1.88,0,0,1,.53-2.27,4.75,4.75,0,0,1,2.32-.58c0-.33.06-.71-.19-1a.84.84,0,0,0-1.3.32c0,.11-.05.26-.19.29-.33,0-.65-.06-1-.1a.18.18,0,0,1-.19-.2A1.76,1.76,0,0,1,19.78,17.09Zm.79,3a1,1,0,0,0-.2.91.59.59,0,0,0,.46.47.83.83,0,0,0,.85-.46,2.52,2.52,0,0,0,.18-1.3A1.75,1.75,0,0,0,20.57,20.13Z"/><path class="cls-1" d="M33.26,17.07A2.91,2.91,0,0,1,35,16.71a2,2,0,0,1,1.39.61,1.66,1.66,0,0,1,.34,1.1c0,.61,0,1.22,0,1.83a2,2,0,0,0,.09.81,2.46,2.46,0,0,0,.31.48.18.18,0,0,1,0,.25c-.24.22-.49.42-.73.63a.24.24,0,0,1-.29.08,2.34,2.34,0,0,1-.6-.69,2.51,2.51,0,0,1-.91.64,2.4,2.4,0,0,1-1,.09,1.43,1.43,0,0,1-1-.61,2,2,0,0,1-.2-1.46,1.73,1.73,0,0,1,1-1.18,6.79,6.79,0,0,1,1.94-.36c0-.33.06-.72-.19-1a.85.85,0,0,0-1.3.33c0,.11,0,.27-.2.29-.31,0-.62-.06-.93-.09-.1,0-.22,0-.23-.17A1.72,1.72,0,0,1,33.26,17.07Zm1,2.87a1,1,0,0,0-.36,1.3.59.59,0,0,0,.62.28.87.87,0,0,0,.62-.5,2.63,2.63,0,0,0,.18-1.27A2.41,2.41,0,0,0,34.26,19.94Z"/><path class="cls-1" d="M26.08,17.29a1.39,1.39,0,0,1,2.17-.06,2.31,2.31,0,0,1,.28.48A1.61,1.61,0,0,1,29.1,17a1.59,1.59,0,0,1,1.51-.1,1.26,1.26,0,0,1,.7.78,4.51,4.51,0,0,1,.09,1.27v3.32a.2.2,0,0,1-.21.22h-1a.19.19,0,0,1-.21-.22V18.94a1,1,0,0,0-.21-.75.68.68,0,0,0-.92.11,1.38,1.38,0,0,0-.21.87v3.1a.19.19,0,0,1-.18.21h-1a.19.19,0,0,1-.2-.22V19a1.24,1.24,0,0,0-.18-.78.63.63,0,0,0-.7-.16.64.64,0,0,0-.38.46,3.1,3.1,0,0,0-.08.86v2.85a.19.19,0,0,1-.19.22h-1a.19.19,0,0,1-.19-.21v-5a1.13,1.13,0,0,1,0-.32.2.2,0,0,1,.22-.12h.93a.18.18,0,0,1,.17.2c0,.21,0,.42,0,.64C25.93,17.57,26,17.41,26.08,17.29Z"/><path class="cls-1" d="M44.33,16.77a2.19,2.19,0,0,1,1.73.46A2.89,2.89,0,0,1,47,19a3.89,3.89,0,0,1-.34,2.4,2.28,2.28,0,0,1-1.28,1.1,2.13,2.13,0,0,1-2.07-.41,3,3,0,0,1-.9-2.12A3.64,3.64,0,0,1,43,17.58,2,2,0,0,1,44.33,16.77Zm.19,1.07a.64.64,0,0,0-.45.38,2.44,2.44,0,0,0-.19,1,8.16,8.16,0,0,0,0,1.31,1.44,1.44,0,0,0,.34.83.63.63,0,0,0,.91-.1,1.67,1.67,0,0,0,.29-.92,7.52,7.52,0,0,0,0-1.5,1.82,1.82,0,0,0-.23-.77A.66.66,0,0,0,44.52,17.84Z"/><path class="cls-1" d="M49.61,17.06a1.49,1.49,0,0,1,2,.2A2.28,2.28,0,0,1,52,18.54v3.81a.21.21,0,0,1-.19.13h-1a.18.18,0,0,1-.19-.22c0-1.07,0-2.15,0-3.23a1.31,1.31,0,0,0-.21-.82.61.61,0,0,0-.88,0,1.65,1.65,0,0,0-.3,1.06c0,1,0,2,0,3a.19.19,0,0,1-.19.21H48a.19.19,0,0,1-.19-.21V17.06a.19.19,0,0,1,.18-.2h.8c.12,0,.28,0,.34.12,0,.29,0,.57,0,.86A2.23,2.23,0,0,1,49.61,17.06Z"/><path class="cls-1" d="M38,17a.18.18,0,0,1,.21-.18h3.33a.19.19,0,0,1,.21.18c0,.2,0,.4,0,.61a.7.7,0,0,1-.15.38c-.62.88-1.24,1.75-1.85,2.64a3.61,3.61,0,0,1,1.94.42.36.36,0,0,1,.16.34c0,.26,0,.51,0,.77a.18.18,0,0,1-.27.13,3.89,3.89,0,0,0-3.5,0,.18.18,0,0,1-.28-.15v-.75a.89.89,0,0,1,.14-.55c.66-1,1.34-1.93,2-2.9-.58,0-1.16,0-1.74,0a.18.18,0,0,1-.21-.16C38,17.55,38,17.28,38,17Z"/><path class="cls-1" d="M42,23a.41.41,0,0,1,.59.41.4.4,0,0,1-.62.29A.42.42,0,0,1,42,23Z"/><path class="cls-1" d="M26.33,23.25c0-.15.2-.15.31-.15s.31,0,.33.15c0,.45,0,.91,0,1.36a1,1,0,0,1,.7-.42,1.2,1.2,0,0,1,1.18.55,2.32,2.32,0,0,1,.29,1.46,1.92,1.92,0,0,1-.48,1.17,1.2,1.2,0,0,1-1.57.12,2,2,0,0,1-.25-.26,3,3,0,0,1-.1.32c-.07.19-.44.14-.41-.08Zm1.23,1.48a1,1,0,0,0-.59.95,2.41,2.41,0,0,0,.13,1.1.7.7,0,0,0,.85.39.8.8,0,0,0,.44-.54,2.41,2.41,0,0,0,.05-1.13,1.47,1.47,0,0,0-.26-.6A.57.57,0,0,0,27.56,24.73Z"/><path class="cls-1" d="M38.64,24.37c-.06-.14.13-.2.23-.18s.41-.06.48.14c.28.81.52,1.64.81,2.45.25-.82.51-1.64.78-2.45.06-.18.28-.14.42-.14s.23.07.18.18c-.35,1.08-.7,2.17-1.06,3.25,0,.17-.25.13-.39.13s-.3,0-.35-.12C39.37,26.55,39,25.46,38.64,24.37Z"/><path class="cls-1" d="M41.93,24.19a1.4,1.4,0,0,1,.41,0,.17.17,0,0,1,.17.2c0,1.09,0,2.19,0,3.28,0,.17-.23.14-.36.14s-.3,0-.31-.14c0-1.09,0-2.19,0-3.28A.17.17,0,0,1,41.93,24.19Z"/><path class="cls-1" d="M18.62,24.42c-.05-.12.09-.2.19-.19s.33,0,.44.08a1,1,0,0,1,.08.25l.54,2c.21-.71.38-1.44.58-2.16.05-.17.25-.13.39-.13a.2.2,0,0,1,.19.15c.21.72.39,1.45.62,2.16.2-.72.4-1.43.61-2.15,0-.18.26-.17.4-.16s.21.08.17.18L22,27.6a.19.19,0,0,1-.19.17c-.15,0-.38.05-.43-.14-.21-.71-.41-1.43-.62-2.15-.2.72-.37,1.44-.57,2.16,0,.17-.26.13-.4.13a.22.22,0,0,1-.23-.17Z"/><path class="cls-1" d="M23.53,24.53a1.49,1.49,0,0,1,1.38-.25,1.21,1.21,0,0,1,.72.59A2.09,2.09,0,0,1,25.89,26c0,.11-.14.13-.23.13h-2a1.31,1.31,0,0,0,.26.86.77.77,0,0,0,1,.17c.19-.09.28-.29.39-.45s.28,0,.42,0,.19.09.15.19a1.33,1.33,0,0,1-.86.82,1.57,1.57,0,0,1-1.38-.18,1.66,1.66,0,0,1-.6-1A2.1,2.1,0,0,1,23.53,24.53Zm.61.25a1.06,1.06,0,0,0-.49.83h1.56a1.09,1.09,0,0,0-.27-.7A.68.68,0,0,0,24.14,24.78Z"/><path class="cls-1" d="M31,24.26a2,2,0,0,1,1,0,1,1,0,0,1,.7.73c0,.15-.19.15-.31.18s-.24.05-.29-.07A.78.78,0,0,0,31,24.87a.37.37,0,0,0,.1.64,11.24,11.24,0,0,1,1.27.32,1,1,0,0,1,.52.93,1,1,0,0,1-.47.79,1.94,1.94,0,0,1-1.34.16,1.24,1.24,0,0,1-.93-.68c0-.09-.1-.22,0-.3a1.38,1.38,0,0,1,.4-.1c.1,0,.15.09.19.17a.7.7,0,0,0,.47.38A1,1,0,0,0,32,27.1a.41.41,0,0,0,0-.65,1.5,1.5,0,0,0-.61-.19,2,2,0,0,1-1-.36,1,1,0,0,1-.19-1.09A1,1,0,0,1,31,24.26Z"/><path class="cls-1" d="M33.67,24.65a1.45,1.45,0,0,1,2.07,0,1.92,1.92,0,0,1,.42,1.28c0,.11-.09.18-.19.17H33.9a1.25,1.25,0,0,0,.25.86.78.78,0,0,0,1,.18,1.16,1.16,0,0,0,.39-.46c.11-.11.28,0,.41,0s.2.08.16.18a1.35,1.35,0,0,1-.7.78,1.56,1.56,0,0,1-1.7-.27,1.81,1.81,0,0,1-.48-1.21A2.08,2.08,0,0,1,33.67,24.65Zm.74.14a1,1,0,0,0-.49.82h1.56a1.11,1.11,0,0,0-.25-.68A.68.68,0,0,0,34.41,24.79Z"/><path class="cls-1" d="M37.2,24.8a1,1,0,0,1,.73-.55c.12,0,.29,0,.36.09a1.08,1.08,0,0,1,0,.4c0,.12-.17.11-.27.12a.88.88,0,0,0-.67.57,2.59,2.59,0,0,0-.11,1c0,.41,0,.82,0,1.22-.09.15-.29.1-.43.1a.18.18,0,0,1-.21-.19c0-1,0-2,0-3a.17.17,0,0,1,.2-.18c.12,0,.3,0,.37.1A2.23,2.23,0,0,1,37.2,24.8Z"/><path class="cls-1" d="M44.08,24.24a1.26,1.26,0,0,1,1.53,1.16c0,.11-.12.16-.22.15s-.27,0-.36-.07a2.35,2.35,0,0,0-.17-.44.62.62,0,0,0-.74-.25.85.85,0,0,0-.46.61,2.31,2.31,0,0,0,0,1.25.77.77,0,0,0,.54.56.64.64,0,0,0,.7-.44c.06-.12.06-.34.24-.35s.38-.06.45.12a1.49,1.49,0,0,1-.35.8,1.3,1.3,0,0,1-1.93,0,2,2,0,0,1-.4-1.17,2.22,2.22,0,0,1,.33-1.38A1.23,1.23,0,0,1,44.08,24.24Z"/><path class="cls-1" d="M46.52,24.52a1.43,1.43,0,0,1,2,.23,2.08,2.08,0,0,1,.34,1.17c0,.11-.1.18-.2.17H46.6a1.32,1.32,0,0,0,.27.88.79.79,0,0,0,.92.18,1,1,0,0,0,.4-.44c.08-.15.26-.07.39-.05s.24.06.21.19a1.35,1.35,0,0,1-.87.84,1.59,1.59,0,0,1-1.33-.16,1.52,1.52,0,0,1-.62-1A2.07,2.07,0,0,1,46.52,24.52Zm.6.27a1,1,0,0,0-.49.82h1.56a1.07,1.07,0,0,0-.26-.69A.67.67,0,0,0,47.12,24.79Z"/><path class="cls-1" d="M50.05,24.26a2,2,0,0,1,1,0,1.07,1.07,0,0,1,.71.72c0,.16-.2.16-.32.19a.21.21,0,0,1-.29-.08A.78.78,0,0,0,50,24.87a.38.38,0,0,0,.09.64,6.05,6.05,0,0,1,1.4.39,1,1,0,0,1,.09,1.53,1.69,1.69,0,0,1-1.33.31,1.29,1.29,0,0,1-1.08-.69c0-.11-.12-.26,0-.33a1.43,1.43,0,0,1,.41-.09c.16,0,.14.25.26.34a1,1,0,0,0,1.17.15.41.41,0,0,0,.11-.63,1.15,1.15,0,0,0-.59-.22,2.09,2.09,0,0,1-1.06-.38,1,1,0,0,1-.19-1.08A1,1,0,0,1,50.05,24.26Z"/></svg>