<?xml version="1.0" encoding="utf-8"?>
<!-- Generator: Adobe Illustrator 25.1.0, SVG Export Plug-In . SVG Version: 6.00 Build 0)  -->
<svg version="1.1" id="Capa_1" xmlns="http://www.w3.org/2000/svg" xmlns:xlink="http://www.w3.org/1999/xlink" x="0px" y="0px"
	 viewBox="0 0 32 32" style="enable-background:new 0 0 32 32;" xml:space="preserve">
<style type="text/css">
	.st0{fill:#FFFFFF;}
</style>
<g>
	<path class="st0" d="M10.8,20.7c0,0.3,0.2,0.5,0.5,0.5h1.9c0.3,0,0.5-0.2,0.5-0.5v-8.5c0-0.3-0.2-0.5-0.5-0.5h-1.9
		c-0.3,0-0.5,0.2-0.5,0.5V20.7z"/>
	<path class="st0" d="M15.1,21.2h1.9c0.3,0,0.5-0.2,0.5-0.5v-5.6c0-0.3-0.2-0.5-0.5-0.5h-1.9c-0.3,0-0.5,0.2-0.5,0.5v5.6
		C14.6,21,14.8,21.2,15.1,21.2z"/>
	<path class="st0" d="M18.8,21.2h1.9c0.3,0,0.5-0.2,0.5-0.5v-7.5c0-0.3-0.2-0.5-0.5-0.5h-1.9c-0.3,0-0.5,0.2-0.5,0.5v7.5
		C18.4,21,18.6,21.2,18.8,21.2z"/>
	<path class="st0" d="M23.9,22.3l-0.9-0.9c-0.2-0.2-0.5-0.2-0.7,0c-0.2,0.2-0.2,0.5,0,0.7l0.1,0.1H9.9V9.6L10,9.7
		c0.1,0.1,0.2,0.1,0.3,0.1c0.1,0,0.2,0,0.3-0.1c0.2-0.2,0.2-0.5,0-0.7L9.7,8.1C9.6,8,9.3,8,9.1,8.1L8.1,9.1C8,9.3,8,9.6,8.1,9.7
		c0.2,0.2,0.5,0.2,0.7,0L9,9.6v13C9,22.8,9.2,23,9.4,23h13l-0.1,0.1c-0.2,0.2-0.2,0.5,0,0.7c0.1,0.1,0.2,0.1,0.3,0.1s0.2,0,0.3-0.1
		l0.9-0.9C24,22.7,24,22.4,23.9,22.3L23.9,22.3z"/>
</g>
</svg>
