<svg id="Layer_1" data-name="Layer 1" xmlns="http://www.w3.org/2000/svg" viewBox="0 0 100 37.6"><defs><style>.cls-1{fill:#c3c9d9;}</style></defs><path class="cls-1" d="M12.17,15.09h.56l1.61-1.6.08-.68A7.21,7.21,0,0,0,2.69,16.32a.89.89,0,0,1,.56,0l3.21-.53s.16-.27.25-.25a4,4,0,0,1,5.47-.42Z"/><path class="cls-1" d="M16.62,16.32a7.24,7.24,0,0,0-2.18-3.51l-2.25,2.25a4,4,0,0,1,1.47,3.18v.4a2,2,0,0,1,0,4h-4l-.4.41v2.4l.4.4h4a5.21,5.21,0,0,0,3-9.53Z"/><path class="cls-1" d="M5.64,25.83h4V22.62h-4a2,2,0,0,1-.83-.18l-.56.18-1.61,1.6-.14.56a5.16,5.16,0,0,0,3.14,1Z"/><path class="cls-1" d="M5.64,15.42A5.21,5.21,0,0,0,2.5,24.76l2.32-2.32a2,2,0,1,1,1.65-3.65,2,2,0,0,1,1,1l2.32-2.32A5.19,5.19,0,0,0,5.64,15.42Z"/><path class="cls-1" d="M29.58,23.59a5.09,5.09,0,0,1-3.71-1.53,5.09,5.09,0,0,1,0-7.33,5.09,5.09,0,0,1,3.71-1.56,4.94,4.94,0,0,1,3.56,1.44l-1,1a3.68,3.68,0,0,0-5.2.11,3.78,3.78,0,0,0,0,5.31,3.77,3.77,0,0,0,5.26.06A3,3,0,0,0,33,19.36H29.6V17.92h4.78a5.2,5.2,0,0,1,0,.88,4.48,4.48,0,0,1-1.23,3.32,4.78,4.78,0,0,1-3.62,1.47Zm11.11-1a3.44,3.44,0,0,1-4.77,0,3.43,3.43,0,0,1,0-4.78,3.44,3.44,0,0,1,4.77,0,3.15,3.15,0,0,1,1,2.39,3.16,3.16,0,0,1-1,2.39ZM37,21.69a1.81,1.81,0,0,0,2.57.09l.09-.09a2,2,0,0,0,.56-1.45,2,2,0,0,0-.56-1.46A1.85,1.85,0,0,0,37,18.73s0,0-.05.05a2,2,0,0,0-.57,1.46A2,2,0,0,0,37,21.69Zm11,.94a3.44,3.44,0,0,1-4.77,0,3.43,3.43,0,0,1,0-4.78,3.44,3.44,0,0,1,4.77,0,3.43,3.43,0,0,1,0,4.78Zm-3.72-.94a1.82,1.82,0,0,0,2.58.09l.09-.09a2,2,0,0,0,.56-1.45A2.07,2.07,0,0,0,47,18.78a1.85,1.85,0,0,0-2.62-.05l-.06.05a2.16,2.16,0,0,0,0,2.91Zm8.53,4.9A2.94,2.94,0,0,1,51,26a3.46,3.46,0,0,1-1.09-1.39l1.28-.53a2.19,2.19,0,0,0,.64.84,1.6,1.6,0,0,0,1.05.35,1.65,1.65,0,0,0,1.31-.51,2,2,0,0,0,.47-1.46v-.48h0a2.17,2.17,0,0,1-1.76.76,3.08,3.08,0,0,1-2.25-1,3.37,3.37,0,0,1,0-4.73,3,3,0,0,1,2.25-1,2.46,2.46,0,0,1,1,.23,2,2,0,0,1,.73.54h0v-.54H56v6a3.53,3.53,0,0,1-.89,2.62,3.17,3.17,0,0,1-2.3.87Zm.11-4.32a1.63,1.63,0,0,0,1.27-.56,2.06,2.06,0,0,0,.51-1.44,2.13,2.13,0,0,0-.51-1.47,1.63,1.63,0,0,0-1.27-.56,1.74,1.74,0,0,0-1.32.56,2.16,2.16,0,0,0,0,2.9A1.75,1.75,0,0,0,52.94,22.27Zm5.56-8.72v9.84H57V13.55Zm4,10a3.23,3.23,0,0,1-2.37-1,3.3,3.3,0,0,1-.95-2.39,3.33,3.33,0,0,1,.92-2.41,3,3,0,0,1,2.25-.94,2.83,2.83,0,0,1,1.12.22,2.65,2.65,0,0,1,.87.56,4.5,4.5,0,0,1,.56.68,4.07,4.07,0,0,1,.33.66l.15.39-4.5,1.85a1.68,1.68,0,0,0,1.62,1,1.92,1.92,0,0,0,1.65-.93l1.13.76a3.92,3.92,0,0,1-1.08,1,3.1,3.1,0,0,1-1.7.47Zm-1.88-3.45,3-1.24a1.13,1.13,0,0,0-.47-.52,1.49,1.49,0,0,0-.77-.19,1.71,1.71,0,0,0-1.21.53,1.77,1.77,0,0,0-.55,1.42Zm12.46,3.45A4.64,4.64,0,0,1,68.39,19v-.19a4.64,4.64,0,0,1,4.53-4.74h.19a4.17,4.17,0,0,1,3.33,1.49l-.81.78a3.07,3.07,0,0,0-2.52-1.15,3.42,3.42,0,0,0-2.5,1,3.53,3.53,0,0,0-1,2.62,3.54,3.54,0,0,0,1,2.63,3.42,3.42,0,0,0,2.5,1,3.59,3.59,0,0,0,2.82-1.32l.81.81a4.42,4.42,0,0,1-1.56,1.19A4.79,4.79,0,0,1,73.11,23.59Zm5.8-.2H77.75V14.3h1.16Zm1.91-5.47a3.24,3.24,0,0,1,4.59,0,3.54,3.54,0,0,1,0,4.72,3.29,3.29,0,0,1-4.59-4.72Zm.86,4a2,2,0,0,0,2.78.08l.08-.08a2.51,2.51,0,0,0,0-3.26,2,2,0,0,0-2.78-.08l-.08.08a2.24,2.24,0,0,0-.6,1.63,2.29,2.29,0,0,0,.61,1.63Zm11.08,1.48H91.64v-.86h0a2.17,2.17,0,0,1-.82.77,2.33,2.33,0,0,1-1.15.31,2.16,2.16,0,0,1-1.77-.71,2.77,2.77,0,0,1-.6-1.9V17.17h1.16v3.62c0,1.16.52,1.74,1.54,1.74A1.44,1.44,0,0,0,91.14,22a2.12,2.12,0,0,0,.46-1.34V17.17h1.16Zm4,.2a2.76,2.76,0,0,1-2.08-.95,3.6,3.6,0,0,1,0-4.72,2.76,2.76,0,0,1,2.08-1,2.67,2.67,0,0,1,1.27.3,2.23,2.23,0,0,1,.85.76h0l0-.86V14.3H100v9.09H98.87v-.86h-.05a2.1,2.1,0,0,1-.84.75A2.64,2.64,0,0,1,96.72,23.59Zm.19-1.06a1.91,1.91,0,0,0,1.4-.61,2.24,2.24,0,0,0,.56-1.64,2.24,2.24,0,0,0-.56-1.64,1.9,1.9,0,0,0-2.69-.12l-.12.12a2.23,2.23,0,0,0-.56,1.63,2.24,2.24,0,0,0,.56,1.64A1.89,1.89,0,0,0,96.91,22.53Z"/></svg>