<svg id="Layer_1" data-name="Layer 1" xmlns="http://www.w3.org/2000/svg" viewBox="0 0 100 37.6"><defs><style>.cls-1{fill:#c3c9d9;}</style></defs><path class="cls-1" d="M31.65,9.8h0c-.78,1.72-1.59,3.43-2.39,5.14-1.69,3.63-3.37,7.26-5.07,10.89H18.87c1.94-3.39,3.9-6.78,5.85-10.17a.39.39,0,0,1,.08-.1Z"/><path class="cls-1" d="M32.43,11.08c.79,1.33,1.56,2.68,2.33,4,2.45,4.23,4.88,8.47,7.33,12.7H24.23c3.61-.65,7.22-1.28,10.84-1.92.09,0,0-.09,0-.11-1.86-2.21-3.72-4.41-5.56-6.63Q31,15.1,32.43,11.08Z"/><path class="cls-1" d="M44.26,25.85l4-10.47h1.28q2,5.24,4,10.47H52.19l-1.1-2.94H46.84c-.07,0-.19,0-.2.07l-1,2.87Zm4.6-9.2c0,.2-.08.41-.14.62-.54,1.51-1.11,3-1.65,4.53,1.21,0,2.41,0,3.61,0-.27-.75-.55-1.51-.83-2.26s-.6-1.59-.86-2.4C48.93,17,48.93,16.8,48.86,16.65Z"/><path class="cls-1" d="M75.9,19.16a3.19,3.19,0,0,1,2.17-1,3,3,0,0,1,1.92.51,2.91,2.91,0,0,1,1.14,1.7v2H76a2.87,2.87,0,0,0,.71,2A2.45,2.45,0,0,0,78,25a3.81,3.81,0,0,0,2.8-.79c0,.37,0,.75,0,1.12a4.47,4.47,0,0,1-.61.33,5,5,0,0,1-2.53.36,3.09,3.09,0,0,1-2.17-1.3,4.3,4.3,0,0,1-.68-2.36A4.32,4.32,0,0,1,75.9,19.16Zm1.21.37A2.71,2.71,0,0,0,76,21.4h4a2.6,2.6,0,0,0-.41-1.46,1.61,1.61,0,0,0-1.1-.7A2.1,2.1,0,0,0,77.11,19.53Z"/><path class="cls-1" d="M73,18.25a2.51,2.51,0,0,1,1,.07v1.26a1.67,1.67,0,0,0-1.55-.08,1.54,1.54,0,0,0-.69.67,3.29,3.29,0,0,0-.45,1.64c0,1.35,0,2.7,0,4h-1.2q0-3.74,0-7.47h1.2c0,.5,0,1,0,1.5.09-.15.13-.33.22-.48A2.11,2.11,0,0,1,73,18.25Z"/><path class="cls-1" d="M54.36,18.38h5.78c0,.13,0,.29,0,.4-1.46,2-2.92,4-4.37,6,1.45,0,2.91,0,4.36,0v1H54c0-.15-.05-.33.06-.46l4.35-6-4,0C54.37,19.06,54.37,18.72,54.36,18.38Z"/><path class="cls-1" d="M61.5,18.38h1.21c0,1.47,0,2.94,0,4.41a2.87,2.87,0,0,0,.34,1.49A1.51,1.51,0,0,0,64.2,25a2.16,2.16,0,0,0,1.1-.13,2.24,2.24,0,0,0,1.19-1.79c0-1.56,0-3.12,0-4.68h1.23c0,2.48,0,5,0,7.45H66.51c0-.39,0-.78,0-1.18A2.48,2.48,0,0,1,64.64,26a3,3,0,0,1-2.07-.42,2.51,2.51,0,0,1-.93-1.53,7.94,7.94,0,0,1-.12-1.76C61.51,21,61.51,19.69,61.5,18.38Z"/></svg>