<svg id="Layer" xmlns="http://www.w3.org/2000/svg" xmlns:xlink="http://www.w3.org/1999/xlink" viewBox="0 0 24 24"><defs><style>.cls-1{fill:url(#linear-gradient);}.cls-2{fill:#3a3735;}.cls-3{fill:url(#linear-gradient-2);}.cls-4{fill:url(#linear-gradient-3);}.cls-5{fill:url(#linear-gradient-4);}</style><linearGradient id="linear-gradient" x1="6.18" y1="14.98" x2="17.78" y2="14.98" gradientUnits="userSpaceOnUse"><stop offset="0" stop-color="#f19300"/><stop offset="1" stop-color="#e64a17"/></linearGradient><linearGradient id="linear-gradient-2" x1="12.96" y1="14.33" x2="14.39" y2="14.33" xlink:href="#linear-gradient"/><linearGradient id="linear-gradient-3" x1="7.64" y1="12.85" x2="9.08" y2="12.85" xlink:href="#linear-gradient"/><linearGradient id="linear-gradient-4" x1="9.52" y1="10.79" x2="10.95" y2="10.79" xlink:href="#linear-gradient"/></defs><path class="cls-1" d="M12,21.26a42.87,42.87,0,0,1-4.49-5A6.44,6.44,0,0,1,6.2,13,5.71,5.71,0,0,1,7.57,8.69l.77,1a4.58,4.58,0,1,0,7.24,0l.81-.91.2.23a5.61,5.61,0,0,1,.51,6.14,13.26,13.26,0,0,1-1.74,2.49C14.3,18.85,13.15,20,12,21.26Z"/><path class="cls-2" d="M17.78,5.65a.53.53,0,0,1-.42.23.76.76,0,0,1-.45-.19,7.58,7.58,0,0,0-9.84-.05.89.89,0,0,1-.47.26.29.29,0,0,1-.18-.08A1,1,0,0,1,6.1,5.2a.7.7,0,0,1,.24-.4A8.25,8.25,0,0,1,12,2.74a8.23,8.23,0,0,1,5.68,2.11C17.93,5.12,18,5.42,17.78,5.65Z"/><path class="cls-2" d="M16.46,7.17a.53.53,0,0,1-.4.22.81.81,0,0,1-.5-.22,5.55,5.55,0,0,0-7.22,0,.82.82,0,0,1-.48.24.44.44,0,0,1-.34-.2c-.28-.31-.24-.63.11-.94A6.66,6.66,0,0,1,12,4.71h0a6.58,6.58,0,0,1,4.31,1.57C16.65,6.57,16.71,6.87,16.46,7.17Z"/><path class="cls-2" d="M15.29,8.34a.7.7,0,0,1-.23.49.49.49,0,0,1-.31.17.44.44,0,0,1-.28-.13,3.9,3.9,0,0,0-2.52-1,3.86,3.86,0,0,0-2.45,1,.52.52,0,0,1-.32.13.63.63,0,0,1-.47-.25.45.45,0,0,1,0-.69,4.57,4.57,0,0,1,3.11-1.24A4.67,4.67,0,0,1,15,7.87.7.7,0,0,1,15.29,8.34Z"/><path class="cls-2" d="M14.92,12.53h-.63c-.07,0-.09,0-.09-.08A5,5,0,0,0,14,11.06C14,11,14,11,14,11a4.53,4.53,0,0,0,.9-.53s.06,0,.09,0a3.63,3.63,0,0,1,.65,2c0,.07,0,.08-.08.08Z"/><path class="cls-2" d="M14,13.91a4.37,4.37,0,0,0,.18-1c0-.07,0-.09.1-.09h1.28s.08,0,.08.08a3.69,3.69,0,0,1-.73,1.86c-.05.07-.08.07-.15,0a3.25,3.25,0,0,0-.57-.33,1.48,1.48,0,0,1,0-.21A1.32,1.32,0,0,0,14,13.91Z"/><path class="cls-2" d="M9.9,11.36a4.38,4.38,0,0,0-.14,1.08c0,.08,0,.1-.1.1H8.91a.56.56,0,0,0-.54-.4A3.61,3.61,0,0,1,9,10.41c0-.05.06-.05.11,0a3.19,3.19,0,0,0,.47.31.58.58,0,0,0,.21.59S9.89,11.33,9.9,11.36Z"/><path class="cls-2" d="M8.93,12.81h.75c.07,0,.09,0,.09.09a4.76,4.76,0,0,0,.31,1.38c0,.06,0,.08-.05.11a4,4,0,0,0-.77.45s-.07,0-.11,0a3.62,3.62,0,0,1-.73-1.59.67.67,0,0,0,.19-.05A.64.64,0,0,0,8.93,12.81Z"/><path class="cls-2" d="M10.63,11.17a4.88,4.88,0,0,0,1.14.21c.07,0,.09,0,.09.09v1c0,.07,0,.08-.09.08H10.12c-.07,0-.09,0-.08-.1a4.46,4.46,0,0,1,.13-1A.71.71,0,0,0,10.63,11.17Z"/><path class="cls-2" d="M13,12.53h-.8c-.07,0-.09,0-.09-.09v-1c0-.06,0-.08.08-.08a4.67,4.67,0,0,0,1.38-.25c.07,0,.1,0,.12,0a4.87,4.87,0,0,1,.2,1.26c0,.08,0,.1-.09.09Z"/><path class="cls-2" d="M11,12.81h.83c.06,0,.08,0,.08.08v1c0,.06,0,.07-.07.08a4.5,4.5,0,0,0-1.36.27c-.06,0-.07,0-.09,0a4.34,4.34,0,0,1-.29-1.32c0-.07,0-.06.07-.06Z"/><path class="cls-2" d="M13.14,14.07a4.73,4.73,0,0,0-.91-.12c-.08,0-.09,0-.09-.09v-1c0-.06,0-.08.08-.08h1.6c.08,0,.09,0,.09.09a4.71,4.71,0,0,1-.17.91.53.53,0,0,0-.55.21Z"/><path class="cls-2" d="M12.14,9a4.49,4.49,0,0,1,1.42,1.81c0,.05,0,.08,0,.11a4.73,4.73,0,0,1-1.29.23s-.09,0-.09-.06Z"/><path class="cls-2" d="M10.55,10.44a4.64,4.64,0,0,1,1.14-1.39l.15-.12a.09.09,0,0,1,0,.08v2c0,.09,0,.1-.1.1a5.19,5.19,0,0,1-1-.19c0-.06,0-.14,0-.21A2.2,2.2,0,0,0,10.55,10.44Z"/><path class="cls-2" d="M11.86,16.17,11.63,16a4.3,4.3,0,0,1-1.11-1.4c0-.06,0-.08,0-.11a5.46,5.46,0,0,1,1.19-.24c.08,0,.11,0,.11.1v1.84Z"/><path class="cls-2" d="M12.58,9a3.08,3.08,0,0,1,.71.18,3.63,3.63,0,0,1,1.43,1c0,.06.06.09,0,.14a4.74,4.74,0,0,1-.79.45c-.05,0-.07,0-.1,0A4.67,4.67,0,0,0,12.62,9Z"/><path class="cls-2" d="M13.31,14.82a4.62,4.62,0,0,1-1.08,1.25l-.06,0h0s0,0,0-.05V14.32c0-.07,0-.09.09-.09a4.59,4.59,0,0,1,.84.11A.64.64,0,0,0,13.31,14.82Z"/><path class="cls-2" d="M9.75,10.47c-.14-.08-.28-.18-.42-.28s-.07-.07,0-.12A3.65,3.65,0,0,1,11.25,9h.1a5.33,5.33,0,0,0-1,1.35A.69.69,0,0,0,9.75,10.47Z"/><path class="cls-2" d="M14.08,14.7a5.39,5.39,0,0,1,.52.3s.06,0,0,.09a3.61,3.61,0,0,1-2,1h-.07a4.55,4.55,0,0,0,1-1.24.66.66,0,0,0,.28,0C13.94,14.82,14,14.74,14.08,14.7Z"/><path class="cls-2" d="M11.36,16.13a3.27,3.27,0,0,1-.93-.3,3.71,3.71,0,0,1-1-.68c0-.05,0-.07,0-.11a4.86,4.86,0,0,1,.7-.4s.07,0,.1,0a4.61,4.61,0,0,0,1.09,1.43Z"/><circle class="cls-3" cx="13.67" cy="14.33" r="0.72"/><circle class="cls-4" cx="8.36" cy="12.85" r="0.72"/><circle class="cls-5" cx="10.24" cy="10.79" r="0.72"/></svg>