<?xml version="1.0" encoding="utf-8"?>
<!-- Generator: Adobe Illustrator 25.1.0, SVG Export Plug-In . SVG Version: 6.00 Build 0)  -->
<svg version="1.1" id="Capa_1" xmlns="http://www.w3.org/2000/svg" xmlns:xlink="http://www.w3.org/1999/xlink" x="0px" y="0px"
	 viewBox="0 0 32 32" style="enable-background:new 0 0 32 32;" xml:space="preserve">
<style type="text/css">
	.st0{fill:#FFFFFF;}
</style>
<g>
	<path class="st0" d="M7.5,13.4c0.1,0.4,0.2,0.7,0.4,1L7.4,15c-0.2,0.2-0.1,0.5,0,0.7l0.9,0.9c0.2,0.2,0.5,0.2,0.7,0l0.6-0.5
		c0.3,0.2,0.7,0.3,1.1,0.4l0.1,0.8c0,0.3,0.3,0.5,0.5,0.5h1.3c0.3,0,0.5-0.2,0.5-0.5l0.1-0.8c0.4-0.1,0.8-0.3,1.1-0.5l0.6,0.5
		c0.2,0.2,0.5,0.1,0.7,0l0.9-0.9c0.2-0.2,0.2-0.5,0-0.7l-0.5-0.6c0.2-0.3,0.4-0.7,0.5-1.1l0.7-0.1c0.3,0,0.5-0.3,0.5-0.5v-1.3
		c0-0.3-0.2-0.5-0.5-0.5l-0.7-0.1c-0.1-0.4-0.3-0.8-0.4-1.1l0.5-0.6c0.2-0.2,0.1-0.5,0-0.7l-0.9-0.9c-0.2-0.2-0.5-0.2-0.7,0L14.4,8
		c-0.4-0.2-0.7-0.4-1.2-0.5l-0.1-0.7c0-0.3-0.3-0.5-0.5-0.5h-1.3c-0.3,0-0.5,0.2-0.5,0.5l-0.1,0.7C10.4,7.6,10,7.8,9.6,8L9,7.5
		c-0.2-0.2-0.5-0.1-0.7,0L7.4,8.5C7.2,8.6,7.2,9,7.4,9.2l0.5,0.6c-0.2,0.3-0.3,0.7-0.4,1.1L6.7,11c-0.3,0-0.5,0.3-0.5,0.5v1.3
		c0,0.3,0.2,0.5,0.5,0.5L7.5,13.4z M12,10c1.1,0,2.1,0.9,2.1,2.1s-0.9,2.1-2.1,2.1c-1.1,0-2.1-0.9-2.1-2.1S10.9,10,12,10z"/>
	<path class="st0" d="M24.4,13.7l-0.7-0.6c-0.2-0.2-0.5-0.2-0.7,0l-0.4,0.3c-0.3-0.1-0.6-0.3-1-0.3l-0.1-0.5
		c-0.1-0.3-0.3-0.4-0.6-0.4l-0.9,0.1c-0.3,0-0.5,0.2-0.5,0.5l0,0.5c-0.3,0.1-0.6,0.3-0.9,0.5l-0.4-0.3c-0.2-0.1-0.5-0.1-0.7,0.1
		l-0.6,0.7c-0.2,0.2-0.2,0.5,0,0.7l0.4,0.4c-0.1,0.3-0.2,0.6-0.3,0.9l-0.5,0.1c-0.3,0.1-0.4,0.3-0.4,0.6l0.1,0.9
		c0,0.3,0.2,0.5,0.5,0.5l0.6,0c0.1,0.3,0.2,0.5,0.4,0.8l-0.3,0.5c-0.1,0.2-0.1,0.5,0.1,0.7l0.7,0.6c0.2,0.2,0.5,0.2,0.7,0l0.4-0.4
		c0.3,0.1,0.6,0.2,0.9,0.3l0.1,0.6c0.1,0.3,0.3,0.4,0.6,0.4l0.9-0.1c0.3,0,0.5-0.2,0.5-0.5l0-0.6c0.3-0.1,0.6-0.3,0.9-0.5l0.5,0.3
		c0.2,0.1,0.5,0.1,0.7-0.1l0.6-0.7c0.2-0.2,0.2-0.5,0-0.7l-0.4-0.4c0.1-0.3,0.2-0.6,0.3-0.9l0.5-0.1c0.3-0.1,0.4-0.3,0.4-0.6
		l-0.1-0.9c0-0.3-0.2-0.5-0.5-0.5l-0.5,0c-0.1-0.3-0.3-0.6-0.4-0.9l0.3-0.4C24.7,14.2,24.7,13.9,24.4,13.7z M21.2,18.7
		c-0.9,0.1-1.8-0.6-1.8-1.6c-0.1-0.9,0.6-1.8,1.6-1.8c0.9-0.1,1.8,0.6,1.8,1.6C22.8,17.8,22.1,18.6,21.2,18.7z"/>
	<path class="st0" d="M10.5,21c-0.3,0-0.5,0.3-0.5,0.5l0,0.5c0,0.3,0.2,0.5,0.5,0.5l0.4,0.1c0.1,0.2,0.2,0.5,0.3,0.7l-0.3,0.3
		c-0.2,0.2-0.2,0.5,0,0.7l0.4,0.4c0.2,0.2,0.5,0.2,0.7,0l0.3-0.2c0.2,0.1,0.5,0.2,0.7,0.3l0,0.4c0,0.3,0.3,0.5,0.5,0.5l0.5,0
		c0.3,0,0.5-0.2,0.5-0.5l0-0.4c0.3-0.1,0.5-0.2,0.8-0.3l0.3,0.2c0.2,0.2,0.5,0.2,0.7,0l0.4-0.4c0.2-0.2,0.2-0.5,0-0.7l-0.2-0.3
		c0.1-0.2,0.2-0.5,0.3-0.7l0.3,0c0.3,0,0.5-0.3,0.5-0.5l0-0.5c0-0.3-0.2-0.5-0.5-0.5L17,21c-0.1-0.3-0.2-0.5-0.3-0.7l0.2-0.3
		c0.2-0.2,0.2-0.5,0-0.7l-0.4-0.4c-0.2-0.2-0.5-0.2-0.7,0l-0.3,0.2c-0.2-0.1-0.5-0.3-0.8-0.3l0-0.3c0-0.3-0.3-0.5-0.5-0.5l-0.5,0
		c-0.3,0-0.5,0.2-0.5,0.5l0,0.3c-0.3,0.1-0.5,0.2-0.8,0.3l-0.3-0.2c-0.2-0.2-0.5-0.2-0.7,0L11,19.3c-0.2,0.2-0.2,0.5,0,0.7l0.2,0.3
		c-0.1,0.2-0.2,0.5-0.3,0.7L10.5,21z M13.9,20.4c0.8,0,1.4,0.6,1.4,1.4c0,0.8-0.6,1.4-1.4,1.4c-0.8,0-1.4-0.6-1.4-1.4
		C12.6,21,13.2,20.4,13.9,20.4z"/>
</g>
</svg>
