<?xml version="1.0" encoding="utf-8"?>
<!-- Generator: Adobe Illustrator 25.1.0, SVG Export Plug-In . SVG Version: 6.00 Build 0)  -->
<svg version="1.1" id="Capa_1" xmlns="http://www.w3.org/2000/svg" xmlns:xlink="http://www.w3.org/1999/xlink" x="0px" y="0px"
	 viewBox="0 0 32 32" style="enable-background:new 0 0 32 32;" xml:space="preserve">
<style type="text/css">
	.st0{fill:#FFFFFF;}
</style>
<g>
	<ellipse class="st0" cx="16" cy="9.7" rx="8.4" ry="2.1"/>
	<path class="st0" d="M16,13.2c-4.6,0-8.4-0.9-8.4-2.1V16c0,1.2,3.7,2.1,8.4,2.1s8.4-0.9,8.4-2.1v-4.9C24.4,12.3,20.6,13.2,16,13.2z
		 M10.1,16c-0.6,0-1-0.5-1-1s0.5-1,1-1c0.6,0,1,0.5,1,1S10.7,16,10.1,16z"/>
	<path class="st0" d="M16,19.5c-4.6,0-8.4-0.9-8.4-2.1v4.9c0,1.2,3.7,2.1,8.4,2.1s8.4-0.9,8.4-2.1v-4.9C24.4,18.5,20.6,19.5,16,19.5
		z M10.1,22.3c-0.6,0-1-0.5-1-1s0.5-1,1-1c0.6,0,1,0.5,1,1S10.7,22.3,10.1,22.3z"/>
</g>
</svg>
