<?xml version="1.0" encoding="utf-8"?>
<!-- Generator: Adobe Illustrator 25.1.0, SVG Export Plug-In . SVG Version: 6.00 Build 0)  -->
<svg version="1.1" id="Capa_1" xmlns="http://www.w3.org/2000/svg" xmlns:xlink="http://www.w3.org/1999/xlink" x="0px" y="0px"
	 viewBox="0 0 32 32" style="enable-background:new 0 0 32 32;" xml:space="preserve">
<style type="text/css">
	.st0{fill:#FFFFFF;}
</style>
<g>
	<g>
		<g>
			<rect x="12.7" y="12.7" class="st0" width="6.6" height="6.6"/>
		</g>
	</g>
	<g>
		<g>
			<path class="st0" d="M23.5,16.8c0.5,0,0.8-0.3,0.8-0.8c0-0.4-0.3-0.8-0.8-0.8h-0.8v-1.7h0.8c0.5,0,0.8-0.3,0.8-0.8
				c0-0.4-0.3-0.8-0.8-0.8h-0.8V11c0-0.9-0.7-1.7-1.7-1.7h-0.8V8.5c0-0.4-0.3-0.8-0.8-0.8c-0.4,0-0.8,0.3-0.8,0.8v0.8h-1.7V8.5
				c0-0.4-0.3-0.8-0.8-0.8c-0.5,0-0.8,0.3-0.8,0.8v0.8h-1.7V8.5c0-0.4-0.3-0.8-0.8-0.8c-0.5,0-0.8,0.3-0.8,0.8v0.8H11
				c-0.9,0-1.7,0.7-1.7,1.7v0.8H8.5c-0.5,0-0.8,0.3-0.8,0.8c0,0.4,0.3,0.8,0.8,0.8h0.8v1.7H8.5c-0.5,0-0.8,0.3-0.8,0.8
				c0,0.4,0.3,0.8,0.8,0.8h0.8v1.7H8.5c-0.5,0-0.8,0.3-0.8,0.8c0,0.4,0.3,0.8,0.8,0.8h0.8V21c0,0.9,0.7,1.7,1.7,1.7h0.8v0.8
				c0,0.4,0.3,0.8,0.8,0.8s0.8-0.3,0.8-0.8v-0.8h1.7v0.8c0,0.4,0.3,0.8,0.8,0.8c0.5,0,0.8-0.3,0.8-0.8v-0.8h1.7v0.8
				c0,0.4,0.3,0.8,0.8,0.8c0.4,0,0.8-0.3,0.8-0.8v-0.8H21c0.9,0,1.7-0.7,1.7-1.7v-0.8h0.8c0.5,0,0.8-0.3,0.8-0.8
				c0-0.4-0.3-0.8-0.8-0.8h-0.8v-1.7L23.5,16.8L23.5,16.8z M21,21H11V11h10V21z"/>
		</g>
	</g>
</g>
</svg>
