<?xml version="1.0" encoding="utf-8"?>
<!-- Generator: Adobe Illustrator 25.1.0, SVG Export Plug-In . SVG Version: 6.00 Build 0)  -->
<svg version="1.1" id="Capa_1" xmlns="http://www.w3.org/2000/svg" xmlns:xlink="http://www.w3.org/1999/xlink" x="0px" y="0px"
	 viewBox="0 0 32 32" style="enable-background:new 0 0 32 32;" xml:space="preserve">
<style type="text/css">
	.st0{fill:#FFFFFF;}
</style>
<path class="st0" d="M24,11.6c-0.1-0.1-0.3-0.2-0.5-0.2H12l0-0.4c0,0,0,0,0,0c-0.2-1.7-1.7-3-3.4-3c-0.4,0-0.6,0.3-0.6,0.6
	c0,0.4,0.3,0.6,0.6,0.6c1.1,0,2,0.8,2.2,1.9l0.9,8.4c0.1,0.8,0.5,1.4,1.1,1.8c-0.8,1.2,0.1,2.9,1.6,2.9c1.3,0,2.2-1.3,1.8-2.5h2.7
	c-0.4,1.2,0.5,2.5,1.8,2.5c2.5-0.1,2.5-3.6,0-3.8h-6.4c-0.6,0-1.2-0.5-1.3-1.1l0-0.2h7.8c1.2,0,2.2-0.9,2.5-2l0.3-1.6
	c0-0.2,0-0.4-0.1-0.5c-0.1-0.1-0.3-0.2-0.5-0.2H20l0.2-2.1h2.6l0,0.1c-0.1,0.3,0.2,0.7,0.5,0.8c0,0,0.1,0,0.1,0
	c0.3,0,0.6-0.2,0.6-0.5l0.2-0.8C24.2,11.9,24.1,11.7,24,11.6L24,11.6z M20.5,21.7c0.3,0,0.6,0.3,0.6,0.6c0,0.8-1.2,0.8-1.2,0
	C19.9,21.9,20.2,21.7,20.5,21.7z M14.3,21.7c0.3,0,0.6,0.3,0.6,0.6c0,0.8-1.2,0.8-1.2,0C13.6,21.9,13.9,21.7,14.3,21.7z M12.1,12.6
	h2.5l0.2,2.1h-2.4L12.1,12.6z M12.7,17.8l-0.2-1.9h2.4l0.2,1.9H12.7z M18.4,17.8h-2.1l-0.2-1.9h2.4L18.4,17.8z M18.7,14.7h-2.6
	l-0.2-2.1h3L18.7,14.7z M22,15.9l-0.2,0.9c-0.1,0.6-0.6,1-1.2,1h-0.9l0.2-1.9H22z"/>
</svg>
