<svg id="Layer_1" data-name="Layer 1" xmlns="http://www.w3.org/2000/svg" xmlns:xlink="http://www.w3.org/1999/xlink" viewBox="0 0 510 220"><defs><style>.cls-1{fill:#b0c5cc;}.cls-2{fill:#ff910d;}.cls-3{fill:#edf2f4;}.cls-4{fill:#c5d7dd;}.cls-5{fill:#ff8931;}.cls-6{fill:#b6ccd3;}.cls-7{fill:#dceceb;}.cls-8{fill:#b3d6e2;}.cls-9{fill:#00a8f2;}.cls-10{fill:#ff006e;}.cls-11{fill:#e9928b;}.cls-12{fill:#099659;}.cls-13{fill:#ffbe0b;}.cls-14{fill:#de6667;}.cls-15{fill:#5f6386;}.cls-16{fill:url(#linear-gradient);}.cls-17{fill:#4a4e73;}.cls-18{fill:#6d3524;}.cls-19{fill:#0c1b3c;}.cls-20{fill:#f5911f;}.cls-21{fill:#eb916d;}.cls-22,.cls-28,.cls-32,.cls-33,.cls-34,.cls-50{fill:#fff;}.cls-23{fill:#e28160;}.cls-24{fill:url(#linear-gradient-2);}.cls-25{fill:url(#linear-gradient-3);}.cls-26{fill:url(#linear-gradient-4);}.cls-27{fill:#04683b;}.cls-28{opacity:0.39;}.cls-29{fill:url(#linear-gradient-5);}.cls-30{fill:#c16000;}.cls-31{fill:#9b5f48;}.cls-32{opacity:0.67;}.cls-33{opacity:0.28;}.cls-34{stroke:#b6ccd3;stroke-miterlimit:10;stroke-width:0.28px;}.cls-35{fill:url(#linear-gradient-6);}.cls-36{fill:#b5005f;}.cls-37{fill:url(#linear-gradient-7);}.cls-38{fill:#bc6851;}.cls-39{fill:url(#linear-gradient-8);}.cls-40{fill:url(#linear-gradient-9);}.cls-41{fill:url(#linear-gradient-10);}.cls-42{fill:#ffac95;}.cls-43{fill:url(#linear-gradient-11);}.cls-44{fill:url(#linear-gradient-12);}.cls-45{fill:url(#linear-gradient-13);}.cls-46{fill:url(#linear-gradient-14);}.cls-47{fill:url(#linear-gradient-15);}.cls-48{fill:url(#linear-gradient-16);}.cls-49{fill:#93405e;}.cls-50{opacity:0.25;}</style><linearGradient id="linear-gradient" x1="362.86" y1="173.57" x2="414.35" y2="173.57" gradientUnits="userSpaceOnUse"><stop offset="0" stop-color="#4a4e73"/><stop offset="1" stop-color="#5f6386"/></linearGradient><linearGradient id="linear-gradient-2" x1="350.11" y1="164.3" x2="397.37" y2="117.04" gradientUnits="userSpaceOnUse"><stop offset="0" stop-color="#bc6851"/><stop offset="1" stop-color="#e28160"/></linearGradient><linearGradient id="linear-gradient-3" x1="365.45" y1="154.47" x2="382.72" y2="137.19" gradientUnits="userSpaceOnUse"><stop offset="0" stop-color="#f5911f"/><stop offset="1" stop-color="#ffbe0b"/></linearGradient><linearGradient id="linear-gradient-4" x1="329.43" y1="174.87" x2="355.13" y2="149.18" xlink:href="#linear-gradient-2"/><linearGradient id="linear-gradient-5" x1="394.56" y1="144.51" x2="413.88" y2="125.18" xlink:href="#linear-gradient-3"/><linearGradient id="linear-gradient-6" x1="152.06" y1="183.61" x2="186.21" y2="149.46" xlink:href="#linear-gradient"/><linearGradient id="linear-gradient-7" x1="183.12" y1="127.7" x2="199.49" y2="99.12" gradientUnits="userSpaceOnUse"><stop offset="0" stop-color="#9c0050"/><stop offset="1" stop-color="#ec0068"/></linearGradient><linearGradient id="linear-gradient-8" x1="175.04" y1="180.6" x2="224.37" y2="131.28" xlink:href="#linear-gradient-2"/><linearGradient id="linear-gradient-9" x1="187.1" y1="177.14" x2="221.94" y2="142.29" xlink:href="#linear-gradient-2"/><linearGradient id="linear-gradient-10" x1="265.16" y1="74.37" x2="270.45" y2="69.07" gradientUnits="userSpaceOnUse"><stop offset="0" stop-color="#4a4e73"/><stop offset="1" stop-color="#0c1b3c"/></linearGradient><linearGradient id="linear-gradient-11" x1="249.44" y1="134.29" x2="273.25" y2="110.48" xlink:href="#linear-gradient-3"/><linearGradient id="linear-gradient-12" x1="267.71" y1="157.72" x2="284.31" y2="157.72" xlink:href="#linear-gradient"/><linearGradient id="linear-gradient-13" x1="261.24" y1="137.05" x2="284.26" y2="137.05" xlink:href="#linear-gradient"/><linearGradient id="linear-gradient-14" x1="268.49" y1="120.66" x2="280.99" y2="108.17" xlink:href="#linear-gradient-3"/><linearGradient id="linear-gradient-15" x1="302.93" y1="91.13" x2="315.62" y2="78.44" xlink:href="#linear-gradient-10"/><linearGradient id="linear-gradient-16" x1="175.86" y1="143.36" x2="188.74" y2="143.36" xlink:href="#linear-gradient-7"/></defs><rect class="cls-1" x="465.81" y="138.32" width="2.44" height="79.05"/><path class="cls-2" d="M459.88,204.25s4.07-10.36,15.25-12.45c10.39-2,15.37-.27,25.92,3.54,6.57,2.37-4.08-.79-9.55,6.91-4.84,6.81-11.58,16.64-24.73,13.33S459.88,204.25,459.88,204.25Z"/><path class="cls-3" d="M291,170.82s0,0,0,0a2.22,2.22,0,0,0,2.19,1.65l1.3,0a2.26,2.26,0,0,1,2,1.17l.24.42a2.27,2.27,0,0,1,0,2.32l-.67,1.11a2.23,2.23,0,0,0,.34,2.73l0,0a2.23,2.23,0,0,0,2.73.34l1.11-.66a2.25,2.25,0,0,1,2.32,0l.42.25a2.24,2.24,0,0,1,1.17,2l0,1.3a2.24,2.24,0,0,0,1.65,2.2h0a2.24,2.24,0,0,0,2.53-1.08l.63-1.13a2.23,2.23,0,0,1,2-1.15h.55a2.23,2.23,0,0,1,2,1.15l.63,1.13a2.25,2.25,0,0,0,2.54,1.08h0a2.24,2.24,0,0,0,1.65-2.2l0-1.3a2.24,2.24,0,0,1,1.17-2L320,180a2.25,2.25,0,0,1,2.32,0l1.11.66a2.23,2.23,0,0,0,2.73-.34l0,0a2.24,2.24,0,0,0,.33-2.73l-.66-1.11a2.25,2.25,0,0,1,0-2.32c.08-.14.16-.28.25-.42a2.24,2.24,0,0,1,2-1.17l1.3,0a2.24,2.24,0,0,0,2.2-1.65.08.08,0,0,1,0,0,2.24,2.24,0,0,0-1.08-2.53l-1.13-.63a2.23,2.23,0,0,1-1.15-2v-.55a2.23,2.23,0,0,1,1.15-2l1.13-.63a2.24,2.24,0,0,0,1.08-2.53.06.06,0,0,1,0,0,2.24,2.24,0,0,0-2.2-1.65l-1.3,0a2.24,2.24,0,0,1-2-1.17c-.09-.14-.17-.28-.25-.42a2.25,2.25,0,0,1,0-2.32l.66-1.11a2.24,2.24,0,0,0-.33-2.73l0,0a2.23,2.23,0,0,0-2.73-.34l-1.11.67a2.27,2.27,0,0,1-2.32,0l-.42-.24a2.26,2.26,0,0,1-1.17-2l0-1.3a2.24,2.24,0,0,0-1.65-2.2h0a2.25,2.25,0,0,0-2.54,1.08l-.63,1.13a2.23,2.23,0,0,1-2,1.15H311a2.23,2.23,0,0,1-2-1.15l-.63-1.13a2.24,2.24,0,0,0-2.53-1.08h0a2.24,2.24,0,0,0-1.65,2.2l0,1.3a2.26,2.26,0,0,1-1.17,2l-.42.24a2.27,2.27,0,0,1-2.32,0l-1.11-.67a2.23,2.23,0,0,0-2.73.34l0,0a2.23,2.23,0,0,0-.34,2.73l.67,1.11a2.27,2.27,0,0,1,0,2.32l-.24.42a2.26,2.26,0,0,1-2,1.17l-1.3,0A2.22,2.22,0,0,0,291,160s0,0,0,0a2.24,2.24,0,0,0,1.08,2.53l1.13.63a2.23,2.23,0,0,1,1.15,2v.55a2.23,2.23,0,0,1-1.15,2l-1.13.63A2.24,2.24,0,0,0,291,170.82Zm7.7-5.41A12.6,12.6,0,1,1,311.32,178,12.6,12.6,0,0,1,298.72,165.41Z"/><circle class="cls-3" cx="311.32" cy="165.41" r="5.67"/><rect class="cls-3" x="319.92" y="61.55" width="58.81" height="30.25"/><rect class="cls-3" x="319.92" y="54.57" width="58.81" height="5.02"/><circle class="cls-4" cx="366.08" cy="57.08" r="1"/><circle class="cls-4" cx="370.18" cy="57.08" r="1"/><circle class="cls-4" cx="374.28" cy="57.08" r="1"/><path class="cls-5" d="M416.21,219.18l0-1.13a12,12,0,0,0-4.54-9.37l-.35.49a11.63,11.63,0,0,1,4.24,8c-1.23-1.32-4.43-3.76-10.41-2.35l.14.58c7.53-1.77,10.34,2.79,10.36,2.84Z"/><path class="cls-5" d="M402.31,216a1.43,1.43,0,1,0,1-1.77A1.44,1.44,0,0,0,402.31,216Z"/><circle class="cls-2" cx="419.28" cy="211.11" r="1.43" transform="translate(-15.13 389.01) rotate(-48.99)"/><path class="cls-5" d="M409.3,208.38a1.43,1.43,0,1,0,1-1.77A1.43,1.43,0,0,0,409.3,208.38Z"/><path class="cls-5" d="M416.19,218.05c-.07-2.76,2.41-5.84,2.44-5.87l-.47-.38c-.11.13-2.64,3.28-2.57,6.26Z"/><rect class="cls-4" x="397.71" y="132.76" width="37.1" height="1.66"/><rect class="cls-3" x="401.29" y="58.78" width="84.51" height="43.47"/><rect class="cls-3" x="401.29" y="48.74" width="84.51" height="7.21"/><rect class="cls-6" x="359.65" y="65.3" width="100.3" height="53.51" rx="2.19"/><circle class="cls-6" cx="361.55" cy="69.29" r="3.9"/><path class="cls-6" d="M449.84,119.5c.09,1.42,4.85,1.37,6.7,1.37a3.54,3.54,0,0,0,3.41-3.5c0-1.85.05-3.39-1.79-3.39S449.71,117.65,449.84,119.5Z"/><rect class="cls-7" x="357.62" y="67.36" width="100.3" height="53.51" rx="2.19"/><rect class="cls-8" x="385.46" y="95.13" width="70.37" height="10.43" rx="1.34"/><rect class="cls-9" x="382.83" y="97.47" width="70.37" height="10.43" rx="1.34"/><path class="cls-4" d="M357.62,115.17v3.51a2.19,2.19,0,0,0,2.19,2.19h95.91a2.2,2.2,0,0,0,2.2-2.19v-3.51Z"/><rect class="cls-10" x="461.86" y="119.49" width="43.14" height="10.72"/><path class="cls-11" d="M418,129.35s4.63.49,6.48.88,4.49,3.9,4.39,4.29-2.34,1.07-4,1.07-9.06-1.27-9.06-1.27Z"/><path class="cls-3" d="M425.86,187.24v0a1.64,1.64,0,0,0,1.61,1.22l.95,0a1.67,1.67,0,0,1,1.47.86l.18.31a1.64,1.64,0,0,1,0,1.71l-.49.81a1.66,1.66,0,0,0,.25,2l0,0a1.66,1.66,0,0,0,2,.25l.81-.49a1.63,1.63,0,0,1,1.7,0l.32.18a1.63,1.63,0,0,1,.85,1.47v1a1.64,1.64,0,0,0,1.22,1.61h0a1.64,1.64,0,0,0,1.86-.79l.46-.83a1.66,1.66,0,0,1,1.46-.85H441a1.63,1.63,0,0,1,1.45.85l.47.83a1.64,1.64,0,0,0,1.86.79h0a1.64,1.64,0,0,0,1.22-1.61l0-1a1.66,1.66,0,0,1,.86-1.47l.31-.18a1.64,1.64,0,0,1,1.71,0l.81.49a1.66,1.66,0,0,0,2-.25l0,0a1.65,1.65,0,0,0,.24-2l-.48-.81a1.64,1.64,0,0,1,0-1.71l.18-.31a1.64,1.64,0,0,1,1.46-.86l1,0a1.64,1.64,0,0,0,1.61-1.22v0a1.64,1.64,0,0,0-.79-1.86l-.83-.47a1.63,1.63,0,0,1-.85-1.45c0-.07,0-.14,0-.21s0-.13,0-.2a1.63,1.63,0,0,1,.85-1.45l.83-.47a1.64,1.64,0,0,0,.79-1.86v0a1.64,1.64,0,0,0-1.61-1.22l-1,0a1.64,1.64,0,0,1-1.46-.86l-.18-.31a1.64,1.64,0,0,1,0-1.71l.48-.81a1.65,1.65,0,0,0-.24-2l0,0a1.66,1.66,0,0,0-2-.25l-.81.49a1.64,1.64,0,0,1-1.71,0l-.31-.18a1.66,1.66,0,0,1-.86-1.47l0-.95a1.64,1.64,0,0,0-1.22-1.61h0a1.64,1.64,0,0,0-1.86.79l-.47.83a1.63,1.63,0,0,1-1.45.85h-.41a1.66,1.66,0,0,1-1.46-.85l-.46-.83a1.64,1.64,0,0,0-1.86-.79h0a1.64,1.64,0,0,0-1.22,1.61v.95a1.63,1.63,0,0,1-.85,1.47l-.32.18a1.63,1.63,0,0,1-1.7,0l-.81-.49a1.66,1.66,0,0,0-2,.25l0,0a1.66,1.66,0,0,0-.25,2l.49.81a1.64,1.64,0,0,1,0,1.71l-.18.31a1.67,1.67,0,0,1-1.47.86l-.95,0a1.64,1.64,0,0,0-1.61,1.22v0a1.63,1.63,0,0,0,.79,1.86l.83.47a1.65,1.65,0,0,1,.85,1.45,1.41,1.41,0,0,0,0,.2,1.48,1.48,0,0,0,0,.21,1.65,1.65,0,0,1-.85,1.45l-.83.47A1.63,1.63,0,0,0,425.86,187.24Zm5.65-4a9.27,9.27,0,1,1,9.26,9.27A9.27,9.27,0,0,1,431.51,183.25Z"/><rect class="cls-7" x="324.19" y="134.42" width="144.06" height="3.9"/><rect class="cls-6" x="434.82" y="134.42" width="33.43" height="3.9"/><rect class="cls-1" x="434.82" y="138.32" width="2.44" height="79.05"/><path class="cls-12" d="M331.3,217.66s-4.38-12.87-18.27-8.19c0,0-3.51-11-13.16-10.6s-12.72,9.39-12.72,9.39-13-1.56-14.82,9.4Z"/><path class="cls-12" d="M479.48,217.66s-1.17-10.67-13.31-10.09c0,0-1.17-8.48-8-10.6s-14.91,1.76-16.81,10.35a14,14,0,0,0-13.75-1.86c-7.89,3.14-6.43,12.2-6.43,12.2Z"/><path class="cls-9" d="M418.31,52.35A1.38,1.38,0,1,1,416.93,51,1.38,1.38,0,0,1,418.31,52.35Z"/><path class="cls-10" d="M412.64,52.35A1.39,1.39,0,1,1,411.26,51,1.38,1.38,0,0,1,412.64,52.35Z"/><path class="cls-13" d="M407,52.35A1.39,1.39,0,1,1,405.58,51,1.38,1.38,0,0,1,407,52.35Z"/><polygon class="cls-11" points="385.4 205.33 392.86 209.91 395.08 205.91 396.88 202.68 389.4 198.58 387.24 202.23 385.4 205.33"/><polygon class="cls-14" points="389.4 198.58 387.24 202.23 395.08 205.91 396.88 202.68 389.4 198.58"/><path class="cls-15" d="M362.86,166.92c2.35,3.43,7.33,7,7.33,7l7.46.78,22.22-.3L389.8,192.65l-3.23,5.88a1.57,1.57,0,0,0,.81,2.24c3.77,1.5,7.43,3.12,9.11,3.88a1.61,1.61,0,0,0,1.75-.3c4-3.83,18.61-21.29,22.44-30.16s-6.4-12.74-21.6-16.64-20-5.27-20-5.27-16.6,7.26-17.39,11.14A4.93,4.93,0,0,0,362.86,166.92Z"/><path class="cls-16" d="M362.86,166.92c2.35,3.43,7.33,7,7.33,7l7.46.78,22.22-.3L389.8,192.65c9.83-2.61,5.82-10.54,13.73-11.92s10.36-2.71,10.8-6.08-10.08-1.75-17.45-5.85-19.09.76-17.55-3.9a78.89,78.89,0,0,0,2.46-10.42l-14.35,4.82S364.8,163.61,362.86,166.92Z"/><polygon class="cls-11" points="369.12 201.27 375.56 207.28 377.17 200.08 377.8 197.29 370.09 195.34 369.65 198.06 369.12 201.27"/><polygon class="cls-14" points="369.65 198.06 377.17 200.08 377.8 197.29 370.09 195.34 369.65 198.06"/><path class="cls-15" d="M370,196.46c3.76.81,7,1.67,8.89,2.21a2.21,2.21,0,0,0,2-.44,1.14,1.14,0,0,1,.11-.11h0a2.34,2.34,0,0,0,.48-.71l.7-1.65,9.17-21.59-14.18.19-2.24,0-.33.94-.15.46-6.18,18.06A2.2,2.2,0,0,0,370,196.46Z"/><path class="cls-17" d="M381,198.12h0l.06-.23-.17.34A1.14,1.14,0,0,1,381,198.12Z"/><path class="cls-17" d="M381,191.86a11.18,11.18,0,0,1,.12,6l1.12-2.13,9.17-21.59-14.18.19c-1,.4-1.93.74-2.57,1l-.92.35.77.11c2,.28,7.53,1.21,10.36,3.14C388.36,181.32,379.15,185.52,381,191.86Z"/><path class="cls-18" d="M383,209.18a3.73,3.73,0,0,0-1.9,1.95c-.49,1.36,1.23,2.73,3.52,3.73,1.63.71,4.62,2.51,4.62,2.51h8.63l-5-4.49Z"/><path class="cls-19" d="M385.4,205.33s2.14-1.22,6.92,3c1.33,1.17,3,5,6.95,5.78,6.1,1.17,4.88,3.29,4.88,3.29h-7.88s-2.79-1-4.88-1.93c-3.23-1.38-7.11-7.23-10.33-4.31C381.06,211.13,382.47,206.4,385.4,205.33Z"/><path class="cls-11" d="M368.19,111.13c-.74-1.22-.27-6.82-.27-6.82s5.67-1.29,6.65-4.49a11.21,11.21,0,0,0,.33-1.57h0a64.88,64.88,0,0,0,.41-8.34c0-.6,0-1.12,0-1.54,0-.65,0-1,0-1L371,86.16l-5.65,3.17-3.93,2.2-3.06,8.6s-.1,6.91-2.53,10.7C354.16,113.47,369.54,113.35,368.19,111.13Z"/><path class="cls-11" d="M372.47,91.51s2.1,8.3,2.43,6.74h0c.33-1.58,3.66-.54,2-2.29-1.11-1.18-1.44-4.2-1.55-6,0-.92,0-1.55,0-1.55h0l-1.52,1.69Z"/><path class="cls-14" d="M365.21,89.12l.16.21c.63.84,3,3.87,2.82,2.42-.2-1.69,1-2.38,3.82-1.82a8,8,0,0,0,1.77.12,10.86,10.86,0,0,0,1.53-.15h0c0-.92,0-1.55,0-1.55h0c0-.65,0-1,0-1L371,86.16Z"/><path class="cls-20" d="M369,111s-.22-2.56-4.83-3.87-7.46-.64-8.33,2.42S369,111,369,111Z"/><path class="cls-19" d="M375.31,98.76c-.43-.25-3.58.13-5.18-1.24s-2.22-6.08-1.86-7.41,3.68-.67,6.83-1.69,3.57-5.45,1.72-7.36-7.22-3.55-9.66,1c0,0-1.64-2.62-5.15-.85s-3,6.13-3,6.13-3.1-.23-3.19,3.85c-.08,3.76,2.71,7.93,2.37,10.49a.45.45,0,0,0,.54.52,5.71,5.71,0,0,0,1.56-.61,3.37,3.37,0,0,0,1.25-4.42,4.44,4.44,0,0,1-.2-4.12c1.6-2.61,3.58-.28,3.18,1.94s-.67,5.79.84,8.32,6.92,4.56,8.6,2.35S375.76,99,375.31,98.76Z"/><path class="cls-13" d="M362.74,164.88a23.77,23.77,0,0,0,11-2.15c7.34-3.37,11-9.5,10.2-9.82-1.16-.45-3.11-2.24-5.1-6.77-1.05-2.36-1.7-13-.15-13,.57,0,4.77,2.5,9,4.47a26.42,26.42,0,0,0,6.38,2.28c4.82.73,21.93-3.95,24-5.12,1.76-1,1.44-3.73.51-4.94h0a1.68,1.68,0,0,0-.51-.46c-1.73-1-17.25,0-19.44,0s-3.8-.87-11-7.89-15.5-11.63-25.92-12.14c-15-.73-18.38,7.31-20.13,13.75S348.26,164.3,362.74,164.88Z"/><path class="cls-19" d="M370.79,200.61c3.26-.05,4.43,2.63,5.53,5.11s2.43,8.29,4.33,8.87,2.92,1.61,2.92,2.78h-6.86s-4.3-4.73-6.52-6.58a10.3,10.3,0,0,1-2.75-3,43.37,43.37,0,0,1,1.68-6.47A2.43,2.43,0,0,1,370.79,200.61Z"/><rect class="cls-1" x="355.18" y="138.32" width="2.44" height="79.05"/><rect class="cls-1" x="324.19" y="138.32" width="2.44" height="79.05"/><rect class="cls-9" x="296.7" y="111.93" width="30.5" height="10.72"/><path class="cls-18" d="M370.25,205.38c2.38.49,3.26,3.05,4.72,7.29s4.36,4.7,4.36,4.7h-8.1a23.89,23.89,0,0,0-1.42-3.53c-.71-1.46-1.94-3.14-2.25-4.66C366.83,205.6,369.67,205.26,370.25,205.38Z"/><path class="cls-21" d="M402.94,218a.39.39,0,0,0,.15,0,.58.58,0,0,0,.42-.71l-11-41.38a.57.57,0,0,0-.71-.41.59.59,0,0,0-.42.71l11,41.38A.58.58,0,0,0,402.94,218Z"/><path class="cls-21" d="M375,218a.39.39,0,0,0,.15,0,.57.57,0,0,0,.41-.71l-11-41.38a.58.58,0,0,0-1.13.3l11,41.38A.59.59,0,0,0,375,218Z"/><path class="cls-21" d="M337.77,218a.59.59,0,0,0,.57-.43l11-41.38a.57.57,0,0,0-.41-.71.58.58,0,0,0-.72.41l-11,41.38a.57.57,0,0,0,.41.71A.39.39,0,0,0,337.77,218Z"/><path class="cls-21" d="M365.75,218a.58.58,0,0,0,.56-.43l11-41.38a.59.59,0,0,0-.42-.71.57.57,0,0,0-.71.41l-11,41.38a.58.58,0,0,0,.42.71A.39.39,0,0,0,365.75,218Z"/><path class="cls-22" d="M393,212.39a4,4,0,0,1,1.42-1.47l-.14-.25a4.18,4.18,0,0,0-1.55,1.59Z"/><path class="cls-22" d="M394.74,213.84H395c0-.66.85-1.4.86-1.4l-.19-.23S394.74,213.05,394.74,213.84Z"/><path class="cls-23" d="M328.23,137.39c.82,5.92,2.5,12.13,3.4,16.31,1.07,5,2.28,10.08,3.7,15,1.87,6.4,6.88,8,10.11,8h1.5l18.35,0h4.42l5.26.06-4.78-2.79-2.73-4.29-4.87-16.77-5.75-19.78-6.73-10.34s-7.79-3.31-13.25-3.11a9,9,0,0,0-7.6,4.41,14,14,0,0,0-1.47,6.34A41.14,41.14,0,0,0,328.23,137.39Z"/><path class="cls-24" d="M329.26,124s2-6.8,11.84-6.8c7.32,0,12.8,3.75,16.75,11.48,3.34,6.52,5.27,15.06,7.31,24.1,1.1,4.89,2.24,9.95,3.64,14.72,1.61,5.55,6.28,5.1,6.79,5l23.65,0a2,2,0,1,1,0,4.1l-24.27.06c-3.22,0-8.24-1.62-10.1-8-1.43-4.89-2.59-10-3.71-15-3.68-16.32-6.93-30.94-17.87-32.61C342.71,120.58,335.32,119.26,329.26,124Z"/><path class="cls-25" d="M373.72,162.73h0c7.34-3.37,11-9.5,10.2-9.82-1.16-.45-3.11-2.24-5.1-6.77-1.05-2.36-1.7-13-.15-13,0,0-8.19-4.09-8.33-2s3.94,11.7,0,14.92S382.58,156.78,373.72,162.73Z"/><path class="cls-26" d="M328.37,138.32c.81,5.91,2.36,11.2,3.26,15.38,1.07,5,2.28,10.08,3.7,15,1.87,6.4,6.88,8,10.11,8h1.5l18.35,0c-3.19-1.3-10.9-4.91-9.44-7.25,6.44-10.35-9.5-9.88-17.06-13.69C331.52,152,340.59,146.57,328.37,138.32Z"/><path class="cls-27" d="M301.93,217.6l.57-.1a17.57,17.57,0,0,1,3.6-13.35l-.44-.38A18.11,18.11,0,0,0,301.93,217.6Z"/><path class="cls-27" d="M301.78,212.87l.45-.38c-.05-.05-4.44-5.31-5.19-8.6l-.57.13C297.25,207.45,301.59,212.65,301.78,212.87Z"/><path class="cls-27" d="M302,215.65c3.46-.19,6.52-3.75,6.65-3.9l-.44-.38s-3,3.52-6.24,3.69Z"/><path class="cls-27" d="M291.14,217.88l.39-.44c-.25-.22-6.14-5.27-9.21-5.36l0,.59C285.17,212.75,291.09,217.83,291.14,217.88Z"/><path class="cls-27" d="M279.69,216.91a54,54,0,0,0,8.53-1.27l-.15-.57a51.27,51.27,0,0,1-8.41,1.25Z"/><path class="cls-27" d="M314.61,217.59c3.08-2.56,9.6-4.61,9.66-4.63l-.17-.56c-.27.08-6.69,2.1-9.86,4.74Z"/><path class="cls-27" d="M316.93,215.57l.58,0a10,10,0,0,1,1.07-4.65l-.51-.29A10.38,10.38,0,0,0,316.93,215.57Z"/><path class="cls-27" d="M450.55,217.39c.84-10.49,6.68-15.81,6.74-15.86l-.39-.44c-.06.06-6.08,5.51-6.94,16.25Z"/><path class="cls-27" d="M451,213.84c.09-4.47-3.3-10-3.45-10.25l-.49.31c0,.06,3.44,5.63,3.35,9.93Z"/><path class="cls-27" d="M451.9,210.2a23.43,23.43,0,0,0,10.57-5.75l-.42-.41a22.83,22.83,0,0,1-10.28,5.59Z"/><path class="cls-27" d="M439.54,217.56l.44-.38c-.25-.29-6.11-7-12.2-7.56l-.06.58C433.58,210.79,439.48,217.49,439.54,217.56Z"/><path class="cls-27" d="M440.5,215.27a32.16,32.16,0,0,0,7.65-.89l-.15-.57a31.87,31.87,0,0,1-8.46.85l0,.59S439.89,215.27,440.5,215.27Z"/><path class="cls-27" d="M464.3,217.6c2.67-2,8.69-3.46,8.75-3.48l-.14-.57c-.25.06-6.2,1.5-9,3.58Z"/><path class="cls-27" d="M465.78,216.63c1.63-3.56.88-5.83.85-5.93l-.55.19s.69,2.16-.83,5.49Z"/><rect class="cls-8" x="397.71" y="75.57" width="70.37" height="10.43" rx="1.34"/><rect class="cls-9" x="395.08" y="77.91" width="70.37" height="10.43" rx="1.34"/><rect class="cls-22" x="446.79" y="82.21" width="13.65" height="1.85"/><rect class="cls-22" x="438.01" y="82.21" width="5.53" height="1.85"/><rect class="cls-22" x="421.06" y="82.21" width="13.65" height="1.85"/><rect class="cls-22" x="412.28" y="82.21" width="5.53" height="1.85"/><rect class="cls-22" x="401.61" y="82.21" width="7.71" height="1.85"/><rect class="cls-22" x="436.12" y="101.77" width="11.1" height="1.85"/><rect class="cls-22" x="424.79" y="101.77" width="7.67" height="1.85"/><rect class="cls-22" x="410.75" y="101.77" width="10.74" height="1.85"/><rect class="cls-22" x="399.06" y="101.77" width="7.96" height="1.85"/><rect class="cls-22" x="388.4" y="101.77" width="7.71" height="1.85"/><rect class="cls-13" x="469.54" y="37.98" width="14.04" height="13.5"/><path class="cls-22" d="M472.29,43.87h3.29V40.56h1.72v3.31h3.31V45.6H477.3v3.29h-1.72V45.6h-3.29Z"/><polygon class="cls-2" points="442.49 134.42 447.68 134.42 449.12 123.07 441.05 123.07 442.49 134.42"/><path class="cls-5" d="M443,130.76l.16-.62-1.77-.46a1.9,1.9,0,0,1-1.34-1.32l-.34-1.24a1.88,1.88,0,0,1,1.81-2.37v-.64a2.51,2.51,0,0,0-2.42,3.18l.34,1.24a2.49,2.49,0,0,0,1.79,1.76Z"/><path class="cls-28" d="M446,121.92s.4-4.43-4.92-5.9-6.09-2.43-8-6.74-10.82-4.32-9.75-.27,6.34,2,6.53,6.16,1.9,4.27,7.16,4.66S445.72,120.46,446,121.92Z"/><circle class="cls-22" cx="473.98" cy="70" r="6.28"/><path class="cls-29" d="M387.65,137.6a26.42,26.42,0,0,0,6.38,2.28c4.82.73,21.93-3.95,24-5.12,1.76-1,1.44-3.73.51-4.94.42,2.94-8.12,1.14-11.49,5.77s-9.94-.1-14.77,1.5A11.22,11.22,0,0,1,387.65,137.6Z"/><path class="cls-3" d="M223.28,92.21v0a1.26,1.26,0,0,0,1.24.93h.73a1.27,1.27,0,0,1,1.13.66l.14.24a1.28,1.28,0,0,1,0,1.31l-.38.62a1.28,1.28,0,0,0,.19,1.55h0a1.26,1.26,0,0,0,1.54.19l.62-.38a1.28,1.28,0,0,1,1.31,0l.24.14a1.27,1.27,0,0,1,.66,1.13v.73a1.27,1.27,0,0,0,.93,1.24h0a1.26,1.26,0,0,0,1.43-.61l.36-.64a1.27,1.27,0,0,1,1.12-.65h.31a1.3,1.3,0,0,1,1.12.65l.35.64a1.27,1.27,0,0,0,1.43.61h0a1.26,1.26,0,0,0,.94-1.24v-.73a1.28,1.28,0,0,1,.65-1.13,2,2,0,0,0,.25-.14,1.26,1.26,0,0,1,1.3,0l.63.38a1.26,1.26,0,0,0,1.54-.19h0a1.28,1.28,0,0,0,.19-1.55l-.38-.62a1.28,1.28,0,0,1,0-1.31c0-.08.09-.16.14-.24a1.27,1.27,0,0,1,1.12-.66H245a1.26,1.26,0,0,0,1.24-.93v0a1.27,1.27,0,0,0-.6-1.43l-.64-.36a1.23,1.23,0,0,1-.65-1.11V89a1.26,1.26,0,0,1,.65-1.12l.64-.35a1.27,1.27,0,0,0,.6-1.43v0a1.26,1.26,0,0,0-1.24-.93h-.74a1.27,1.27,0,0,1-1.12-.66c0-.08-.1-.16-.14-.24a1.28,1.28,0,0,1,0-1.31l.38-.63a1.27,1.27,0,0,0-.19-1.54h0a1.26,1.26,0,0,0-1.54-.19l-.63.37a1.22,1.22,0,0,1-1.3,0l-.25-.13a1.28,1.28,0,0,1-.65-1.13v-.74a1.25,1.25,0,0,0-.94-1.23h0a1.27,1.27,0,0,0-1.43.61l-.35.64a1.3,1.3,0,0,1-1.12.65h-.31a1.27,1.27,0,0,1-1.12-.65l-.36-.64a1.26,1.26,0,0,0-1.43-.61h0a1.25,1.25,0,0,0-.93,1.23v.74a1.27,1.27,0,0,1-.66,1.13l-.24.13a1.24,1.24,0,0,1-1.31,0l-.62-.37a1.26,1.26,0,0,0-1.54.19h0a1.27,1.27,0,0,0-.19,1.54l.38.63a1.28,1.28,0,0,1,0,1.31l-.14.24a1.27,1.27,0,0,1-1.13.66h-.73a1.26,1.26,0,0,0-1.24.93v0a1.28,1.28,0,0,0,.61,1.43l.64.35a1.26,1.26,0,0,1,.65,1.12v.32a1.23,1.23,0,0,1-.65,1.11l-.64.36A1.28,1.28,0,0,0,223.28,92.21Zm4.35-3.06a7.12,7.12,0,1,1,7.11,7.11A7.11,7.11,0,0,1,227.63,89.15Z"/><circle class="cls-3" cx="234.74" cy="89.15" r="3.25" transform="translate(-14.2 56.32) rotate(-13.28)"/><polygon class="cls-8" points="315.41 68.19 347.96 68.19 347.96 79.41 342.16 79.41 345.18 86.53 334.37 79.41 315.41 79.41 315.41 68.19"/><rect class="cls-22" x="319.27" y="71.47" width="25.31" height="1.24"/><rect class="cls-22" x="319.27" y="74.91" width="25.31" height="1.24"/><path class="cls-30" d="M466.31,207c3.26-7.3,11.89-10,18.55-11a62,62,0,0,1,13.92-.43l.06-.6a62.51,62.51,0,0,0-14,.43,35.07,35.07,0,0,0-11.06,3.36,16.91,16.91,0,0,0-8,8Z"/><path class="cls-30" d="M491.21,199.47l.38-.46c-.12-.1-3-2.48-9.67-3.12l-.06.6C488.29,197.11,491.18,199.45,491.21,199.47Z"/><path class="cls-30" d="M485.44,207.37l.35-.5c-.09-.06-8.49-5.86-16.54-4.92l.07.6C477.15,201.63,485.36,207.31,485.44,207.37Z"/><path class="cls-30" d="M478.39,197.44c2.86-1.07,4.26-5.63,4.32-5.83l-.57-.17s-1.38,4.47-4,5.43Z"/><path class="cls-30" d="M468.75,203.24a26.8,26.8,0,0,0,3.4-9.75l-.6.1h0c.06.58-1.33,6.47-3.3,9.3Z"/><path class="cls-3" d="M267.26,30.63H218.71s2.87-5.65,9.5-2.83c0,0,3.61-6.48,11-2.65,0,0,2.83-7.22,10.79-6.22A10.37,10.37,0,0,1,259,26.55S266.46,26.23,267.26,30.63Z"/><rect class="cls-31" x="272.33" y="216.27" width="207.45" height="3.73"/><path class="cls-22" d="M303.5,119.89l-.81-1.45h-1.17v1.45h-1.14v-5.08h2.2c1.33,0,2.09.64,2.09,1.77a1.69,1.69,0,0,1-.95,1.64l1.08,1.67Zm-2-2.41h1.06c.64,0,1-.29,1-.87s-.36-.85-1-.85h-1.06Z"/><path class="cls-22" d="M309.51,114.81v1h-2.73v1.11h2.45v.95h-2.45v1.12h2.81v1h-3.95v-5.08Z"/><path class="cls-22" d="M313.84,118.91h-2.35l-.4,1h-1.18l2.21-5.08h1.18l2.17,5.08h-1.23Zm-.37-.93-.8-2-.8,2Z"/><path class="cls-22" d="M318.23,115.77a1.57,1.57,0,0,0,0,3.13,2,2,0,0,0,1.32-.6l.67.74a3,3,0,0,1-2.05.91,2.59,2.59,0,1,1,0-5.18,2.92,2.92,0,0,1,2,.85l-.67.81A1.84,1.84,0,0,0,318.23,115.77Z"/><path class="cls-22" d="M324.65,114.81v1H323.1v4.11H322v-4.11h-1.54v-1Z"/><path class="cls-22" d="M469.36,126.61H467l-.4,1h-1.18l2.21-5.09h1.18L471,127.6h-1.23Zm-.37-.93-.79-2-.81,2Z"/><path class="cls-22" d="M472.57,122.51l2.47,3.27v-3.27h1.09v5.09h-1.05l-2.46-3.27v3.27h-1.1v-5.09Z"/><path class="cls-22" d="M480.66,125h1v2a3.8,3.8,0,0,1-2.07.66,2.6,2.6,0,0,1-2.71-2.6,2.64,2.64,0,0,1,2.78-2.58,3.18,3.18,0,0,1,2,.75l-.65.82a2.11,2.11,0,0,0-1.39-.57,1.59,1.59,0,1,0,0,3.17,2.42,2.42,0,0,0,1-.27Z"/><path class="cls-22" d="M484.88,126.64a1.07,1.07,0,0,0,1.13-1.17v-3h1.15v3a2.3,2.3,0,0,1-4.59,0v-3h1.14v3A1.1,1.1,0,0,0,484.88,126.64Z"/><path class="cls-22" d="M489.33,122.51v4.08h2.18v1h-3.33v-5.09Z"/><path class="cls-22" d="M495.58,126.61h-2.36l-.4,1h-1.18l2.21-5.09H495l2.17,5.09H496Zm-.37-.93-.8-2-.81,2Z"/><path class="cls-22" d="M500.86,127.6l-.81-1.46h-1.17v1.46h-1.14v-5.09h2.2c1.33,0,2.09.64,2.09,1.77a1.69,1.69,0,0,1-.95,1.64l1.08,1.68Zm-2-2.42h1.06c.64,0,1-.29,1-.87s-.36-.85-1-.85h-1.06Z"/><path class="cls-6" d="M88.36,174.08V160.84a7.47,7.47,0,0,0-7.47-7.48H71.44v63h31.87V189a7.48,7.48,0,0,0-7.47-7.48h0A7.47,7.47,0,0,1,88.36,174.08Z"/><polygon class="cls-11" points="169.59 200.59 163.56 206.48 161.53 203.47 158.29 198.65 166.05 195.05 168.16 198.36 169.59 200.59"/><path class="cls-14" d="M168.16,198.36a25.2,25.2,0,0,0-6.63,5.11l-3.24-4.82,7.76-3.6Z"/><rect class="cls-3" x="59.36" y="23.91" width="128.02" height="66.75"/><rect class="cls-7" x="66.39" y="29.91" width="20.62" height="19.02"/><polygon class="cls-6" points="174.67 47.12 173.9 47.12 173.9 45.96 172.74 45.96 172.74 45.19 174.67 45.19 174.67 47.12"/><path class="cls-6" d="M169.58,46h-3.17v-.77h3.17Zm-6.33,0h-3.16v-.77h3.16Zm-6.33,0h-3.16v-.77h3.16Zm-6.32,0h-3.16v-.77h3.16Zm-6.33,0h-3.16v-.77h3.16ZM138,46h-3.16v-.77H138Zm-6.33,0h-3.16v-.77h3.16Zm-6.32,0h-3.16v-.77h3.16ZM119,46h-3.16v-.77H119Z"/><polygon class="cls-6" points="111.49 47.12 110.72 47.12 110.72 45.19 112.65 45.19 112.65 45.96 111.49 45.96 111.49 47.12"/><path class="cls-6" d="M111.49,78.71h-.77V75.55h.77Zm0-6.32h-.77V69.23h.77Zm0-6.32h-.77V62.92h.77Zm0-6.31h-.77V56.6h.77Zm0-6.32h-.77V50.28h.77Z"/><polygon class="cls-6" points="112.65 83.8 110.72 83.8 110.72 81.87 111.49 81.87 111.49 83.03 112.65 83.03 112.65 83.8"/><path class="cls-6" d="M169.58,83.8h-3.17V83h3.17Zm-6.33,0h-3.16V83h3.16Zm-6.33,0h-3.16V83h3.16Zm-6.32,0h-3.16V83h3.16Zm-6.33,0h-3.16V83h3.16Zm-6.32,0h-3.16V83H138Zm-6.33,0h-3.16V83h3.16Zm-6.32,0h-3.16V83h3.16Zm-6.33,0h-3.16V83H119Z"/><polygon class="cls-6" points="174.67 83.8 172.74 83.8 172.74 83.03 173.9 83.03 173.9 81.87 174.67 81.87 174.67 83.8"/><path class="cls-6" d="M174.67,78.71h-.77V75.55h.77Zm0-6.32h-.77V69.23h.77Zm0-6.32h-.77V62.92h.77Zm0-6.31h-.77V56.6h.77Zm0-6.32h-.77V50.28h.77Z"/><rect class="cls-8" x="45.64" y="57.33" width="71.25" height="36.94" rx="1.91"/><rect class="cls-9" x="47.96" y="59.65" width="71.25" height="36.94" rx="1.91"/><path class="cls-32" d="M53.05,93.88h60.56s-2-14.13-5.19-18.43-5.84,1.64-9.37,8.68S88.23,94.35,82.9,87.31,75.17,78,69.24,81.81s-10.56.6-12.54-4.29-3.65-4.82-3.65-4.82Z"/><path class="cls-33" d="M53.05,93.88a6.33,6.33,0,0,0,5-3c2.24-3.1,2.84-7.82,5.25-9.28s4.63,0,8,6.12S79.9,91,82.13,84.9s3.26-9,7-9.36,6,4.21,7.3,8.59,4.64,5.84,8,4,9.23,5.71,9.23,5.71Z"/><path class="cls-22" d="M54.21,65h0a1.16,1.16,0,0,1-1.16-1.16h0a1.16,1.16,0,0,1,1.16-1.16h0a1.16,1.16,0,0,1,1.16,1.16h0A1.16,1.16,0,0,1,54.21,65Z"/><rect class="cls-22" x="58.25" y="63.13" width="24.31" height="1.37"/><path class="cls-22" d="M54.21,69.16h0A1.16,1.16,0,0,1,53.05,68h0a1.16,1.16,0,0,1,1.16-1.16h0A1.16,1.16,0,0,1,55.37,68h0A1.16,1.16,0,0,1,54.21,69.16Z"/><rect class="cls-22" x="58.25" y="67.31" width="18.73" height="1.37"/><rect class="cls-22" x="68.8" y="31.86" width="20.62" height="19.02"/><polygon class="cls-13" points="87 40.27 79.51 43.66 72.01 40.27 72.01 45.34 87 45.34 87 40.27"/><polygon class="cls-13" points="87 37.98 72.01 37.98 72.01 39.34 79.51 42.65 87 39.34 87 37.98"/><path class="cls-22" d="M151.63,44.05H110.16V42.12h41.47Zm-41.21-.25h41V42.38H110.42Z"/><path class="cls-22" d="M151.63,36.06H110.16V34.13h41.47Zm-41.21-.25h41V34.39H110.42Z"/><path class="cls-22" d="M151.63,28.08H110.16V26.14h41.47Zm-41.21-.26h41V26.4H110.42Z"/><rect class="cls-7" x="200.1" y="57.97" width="15.74" height="11.59"/><path class="cls-22" d="M205.19,66.62,201.77,64a.32.32,0,0,1-.14-.27.37.37,0,0,1,.13-.27l3.4-2.6.42.54-3.05,2.33,3.07,2.31Z"/><path class="cls-22" d="M210.76,66.62l-.41-.54,3.07-2.31-3-2.33.41-.54,3.4,2.6a.37.37,0,0,1,.13.27.34.34,0,0,1-.13.27Z"/><rect class="cls-22" x="204.84" y="63.42" width="6.27" height="0.68" transform="translate(95.88 250.18) rotate(-76.03)"/><polygon class="cls-11" points="189.83 200.09 183.2 206.27 181.55 198.86 180.91 195.99 188.83 193.99 189.29 196.78 189.83 200.09"/><path class="cls-14" d="M189.29,196.78a11.08,11.08,0,0,0-3.28.2,42.11,42.11,0,0,0-4.46,1.88l-.64-2.87,7.92-2Z"/><path class="cls-19" d="M188.11,199.41c-3.35,0-4.56,2.7-5.68,5.25s-2.5,8.52-4.45,9.13-3,1.65-3,2.85H182s4.43-4.86,6.71-6.76a10.63,10.63,0,0,0,2.83-3.14,45,45,0,0,0-1.73-6.65A2.48,2.48,0,0,0,188.11,199.41Z"/><path class="cls-18" d="M188.67,204.31c-2.45.51-3.35,3.14-4.85,7.5s-4.49,4.83-4.49,4.83h8.33a25.83,25.83,0,0,1,1.46-3.63c.73-1.5,2-3.22,2.31-4.79C192.19,204.54,189.26,204.19,188.67,204.31Z"/><path class="cls-15" d="M189.26,194.65a30.7,30.7,0,0,0-8.9,2.32s-1.78.58-4.36-4.85-11.63-22.41-11.63-22.41l10.41.33,7.88.25s4.25,10.76,6.31,15.34A12.51,12.51,0,0,1,189.26,194.65Z"/><path class="cls-17" d="M180.36,187.32c-3.16,3.78-2.1,8.18,0,9.65,0,0-1.78.58-4.36-4.85s-11.63-22.41-11.63-22.41l10.41.33,6.81,3s-6.7.86-8.21,4.38S183.52,183.54,180.36,187.32Z"/><path class="cls-12" d="M336.17,217.49s0-19-20.78-9.75c0,0-4.57-16.36-16.55-15.59s-13.15,16.25-13.15,16.25-16.41-8.34-25.21,8.58Z"/><path class="cls-27" d="M301.12,216.82l-.51-.07a24.71,24.71,0,0,0-4-17.07l.41-.31A25.26,25.26,0,0,1,301.12,216.82Z"/><path class="cls-27" d="M301.31,210.75l-.42-.31c.05-.06,4.91-6.76,5.75-11l.5.1C306.29,203.9,301.51,210.47,301.31,210.75Z"/><path class="cls-27" d="M301.07,214.25c-3.8-.23-7.16-4.73-7.3-4.92l.42-.31s3.36,4.5,6.92,4.72Z"/><path class="cls-27" d="M313.26,216.75l.7-.5c.06,0,6.65-4.71,13.7-5l0,.52c-5.53.25-10.77,3.24-12.68,4.44l6.85-.23,0,.51Z"/><path class="cls-27" d="M318.68,214.08l-.48-.17a25.91,25.91,0,0,1,3.46-6.27l.41.32A25.53,25.53,0,0,0,318.68,214.08Z"/><path class="cls-27" d="M285.58,216.66a40.35,40.35,0,0,0-10.87-6.33l.18-.49a40.54,40.54,0,0,1,11,6.43Z"/><path class="cls-27" d="M272.29,215.16l-.24-.46c.15-.08,3.75-1.88,10.37-1l-.07.51C275.91,213.36,272.32,215.14,272.29,215.16Z"/><path class="cls-3" d="M152.06,175.76l-1.16-.64a2.29,2.29,0,0,1-1.18-2c0-.1,0-.19,0-.29s0-.19,0-.28a2.29,2.29,0,0,1,1.18-2l1.16-.65a2.29,2.29,0,0,0,1.1-2.59s0,0,0,0a2.31,2.31,0,0,0-2.25-1.7l-1.33,0a2.34,2.34,0,0,1-2-1.2l-.25-.44a2.29,2.29,0,0,1,0-2.37l.68-1.14a2.29,2.29,0,0,0-.35-2.8l0,0a2.29,2.29,0,0,0-2.8-.35l-1.14.68a2.29,2.29,0,0,1-2.37,0l-.44-.25a2.34,2.34,0,0,1-1.2-2l0-1.33A2.31,2.31,0,0,0,138,152h0a2.29,2.29,0,0,0-2.59,1.1l-.65,1.16a2.29,2.29,0,0,1-2,1.18h-.57a2.29,2.29,0,0,1-2-1.18l-.64-1.16a2.29,2.29,0,0,0-2.6-1.1h0a2.28,2.28,0,0,0-1.7,2.25l0,1.33a2.31,2.31,0,0,1-1.19,2l-.44.25a2.31,2.31,0,0,1-2.38,0l-1.13-.68a2.29,2.29,0,0,0-2.8.35l0,0a2.3,2.3,0,0,0-.34,2.8l.68,1.14a2.29,2.29,0,0,1,0,2.37l-.25.44a2.31,2.31,0,0,1-2,1.2l-1.34,0a2.31,2.31,0,0,0-2.25,1.7.08.08,0,0,1,0,0,2.3,2.3,0,0,0,1.1,2.59l1.17.65a2.28,2.28,0,0,1,1.17,2v.57a2.28,2.28,0,0,1-1.17,2l-1.17.64a2.31,2.31,0,0,0-1.1,2.6,0,0,0,0,1,0,0,2.28,2.28,0,0,0,2.25,1.7l1.34,0a2.28,2.28,0,0,1,2,1.19l.25.44a2.31,2.31,0,0,1,0,2.38l-.68,1.13a2.3,2.3,0,0,0,.34,2.8l0,0a2.3,2.3,0,0,0,2.8.34l1.13-.68a2.31,2.31,0,0,1,2.38,0l.44.25a2.28,2.28,0,0,1,1.19,2l0,1.34a2.28,2.28,0,0,0,1.7,2.25h0a2.29,2.29,0,0,0,2.6-1.1l.64-1.17a2.28,2.28,0,0,1,2-1.17h.57a2.28,2.28,0,0,1,2,1.17l.65,1.17a2.29,2.29,0,0,0,2.59,1.1h0a2.31,2.31,0,0,0,1.7-2.25l0-1.34a2.31,2.31,0,0,1,1.2-2l.44-.25a2.29,2.29,0,0,1,2.37,0l1.14.68a2.3,2.3,0,0,0,2.8-.34l0,0a2.29,2.29,0,0,0,.35-2.8l-.68-1.13a2.31,2.31,0,0,1,0-2.38c.09-.14.17-.29.25-.44a2.31,2.31,0,0,1,2-1.19l1.33,0a2.28,2.28,0,0,0,2.25-1.7,0,0,0,0,0,0,0A2.29,2.29,0,0,0,152.06,175.76Zm-19.7,10a12.92,12.92,0,1,1,12.92-12.92A12.91,12.91,0,0,1,132.36,185.72Z"/><circle class="cls-3" cx="132.36" cy="172.91" r="5.83" transform="translate(-69.38 254.88) rotate(-74.68)"/><path class="cls-3" d="M228.62,201.71l-.67-.38a1.33,1.33,0,0,1-.69-1.18v-.33a1.34,1.34,0,0,1,.69-1.19l.67-.38a1.34,1.34,0,0,0,.65-1.51v0a1.34,1.34,0,0,0-1.31-1h-.78a1.35,1.35,0,0,1-1.2-.7l-.14-.25a1.34,1.34,0,0,1,0-1.39l.4-.66a1.34,1.34,0,0,0-.2-1.63l0,0a1.33,1.33,0,0,0-1.63-.2l-.67.4a1.36,1.36,0,0,1-1.38,0l-.26-.15a1.37,1.37,0,0,1-.7-1.19l0-.78a1.35,1.35,0,0,0-1-1.32h0a1.33,1.33,0,0,0-1.52.64l-.38.68a1.35,1.35,0,0,1-1.18.69H217a1.36,1.36,0,0,1-1.19-.69l-.38-.68a1.32,1.32,0,0,0-1.51-.64h0a1.35,1.35,0,0,0-1,1.32v.78a1.33,1.33,0,0,1-.7,1.19l-.25.15a1.38,1.38,0,0,1-1.39,0l-.66-.4a1.33,1.33,0,0,0-1.63.2l0,0a1.33,1.33,0,0,0-.2,1.63l.4.66a1.38,1.38,0,0,1,0,1.39l-.15.25a1.33,1.33,0,0,1-1.19.7h-.78a1.35,1.35,0,0,0-1.32,1v0a1.32,1.32,0,0,0,.64,1.51l.68.38a1.36,1.36,0,0,1,.69,1.19c0,.05,0,.11,0,.16s0,.11,0,.17a1.35,1.35,0,0,1-.69,1.18l-.68.38a1.33,1.33,0,0,0-.64,1.52v0a1.35,1.35,0,0,0,1.32,1l.78,0a1.35,1.35,0,0,1,1.19.7l.15.26a1.36,1.36,0,0,1,0,1.38l-.4.67a1.33,1.33,0,0,0,.2,1.63l0,0a1.34,1.34,0,0,0,1.63.2l.66-.4a1.34,1.34,0,0,1,1.39,0l.25.14a1.35,1.35,0,0,1,.7,1.2v.78a1.34,1.34,0,0,0,1,1.31h0a1.34,1.34,0,0,0,1.51-.65l.38-.67a1.34,1.34,0,0,1,1.19-.69h.33a1.33,1.33,0,0,1,1.18.69l.38.67a1.35,1.35,0,0,0,1.52.65h0a1.34,1.34,0,0,0,1-1.31l0-.78a1.39,1.39,0,0,1,.7-1.2l.26-.14a1.32,1.32,0,0,1,1.38,0l.67.4a1.35,1.35,0,0,0,1.63-.2l0,0a1.35,1.35,0,0,0,.2-1.63l-.4-.67a1.32,1.32,0,0,1,0-1.38c0-.09.1-.17.14-.26a1.37,1.37,0,0,1,1.2-.7l.78,0a1.34,1.34,0,0,0,1.31-1v0A1.35,1.35,0,0,0,228.62,201.71Zm-11.5,5.81a7.54,7.54,0,1,1,7.54-7.54A7.54,7.54,0,0,1,217.12,207.52Z"/><polygon class="cls-10" points="230.69 37.98 264.85 37.98 264.85 49.75 258.76 49.75 261.94 57.23 250.59 49.75 230.69 49.75 230.69 37.98"/><rect class="cls-22" x="234.74" y="41.42" width="26.56" height="1.3"/><rect class="cls-22" x="234.74" y="45.03" width="26.56" height="1.3"/><path class="cls-6" d="M193.64,138.81v-4l-3.65-1-2.79-3.33.73-2-22.25-25.43h-93a1.65,1.65,0,0,0-1.65,1.65v2.88l0,0a2.63,2.63,0,0,0,.59,1.34l24.67,29.39a9.43,9.43,0,0,0,7.22,3.37h87.5a2.6,2.6,0,0,0,2.58-2.31A3,3,0,0,0,193.64,138.81Z"/><path class="cls-34" d="M191.06,137.67h-87.5a9.47,9.47,0,0,1-7.23-3.37L71.67,104.91a2.6,2.6,0,0,1,2-4.26h87.5a9.43,9.43,0,0,1,7.22,3.37L193,133.41A2.59,2.59,0,0,1,191.06,137.67Z"/><path class="cls-8" d="M180.16,131.2h0a.57.57,0,0,1-.44-.2l-17-20.21a.58.58,0,0,1,.45-1h0a.58.58,0,0,1,.44.21l17,20.2A.58.58,0,0,1,180.16,131.2Z"/><path class="cls-7" d="M113.65,122.78H94a1.56,1.56,0,0,1-1.2-.56l-9.65-11.58a.6.6,0,0,1,.46-1h19.68a1.59,1.59,0,0,1,1.2.56l9.65,11.58A.6.6,0,0,1,113.65,122.78Z"/><path class="cls-8" d="M104.1,131.4h-2.9a1.52,1.52,0,0,1-1.19-.56l-3.57-4.25a.6.6,0,0,1,.46-1h2.9a1.56,1.56,0,0,1,1.2.56l3.56,4.26A.6.6,0,0,1,104.1,131.4Z"/><path class="cls-8" d="M112.49,131.4h-2.9a1.56,1.56,0,0,1-1.2-.56l-3.56-4.25a.6.6,0,0,1,.46-1h2.9a1.52,1.52,0,0,1,1.19.56l3.57,4.26A.6.6,0,0,1,112.49,131.4Z"/><path class="cls-8" d="M120.88,131.4H118a1.54,1.54,0,0,1-1.2-.56l-3.57-4.25a.61.61,0,0,1,.46-1h2.9a1.54,1.54,0,0,1,1.2.56l3.57,4.26A.6.6,0,0,1,120.88,131.4Z"/><path class="cls-7" d="M136.47,115.17H114.24a1.56,1.56,0,0,1-1.2-.56l-3.32-4a.6.6,0,0,1,.46-1H132.4a1.56,1.56,0,0,1,1.2.56l3.33,4A.61.61,0,0,1,136.47,115.17Z"/><path class="cls-7" d="M143.27,123.28H121a1.55,1.55,0,0,1-1.19-.56l-3.33-4a.6.6,0,0,1,.46-1h22.23a1.56,1.56,0,0,1,1.19.55l3.33,4A.6.6,0,0,1,143.27,123.28Z"/><path class="cls-7" d="M150.09,131.4H127.86a1.55,1.55,0,0,1-1.19-.55l-3.33-4a.6.6,0,0,1,.46-1H146a1.58,1.58,0,0,1,1.2.56l3.33,4A.6.6,0,0,1,150.09,131.4Z"/><path class="cls-8" d="M159.88,131.2h0a.57.57,0,0,1-.44-.2l-17-20.21a.58.58,0,0,1,.45-1h0a.58.58,0,0,1,.44.21l17,20.2A.58.58,0,0,1,159.88,131.2Z"/><path class="cls-8" d="M147.31,114.2h-2.42a1.8,1.8,0,0,1-1.16-.64l-.88-1c-.29-.34-.25-.63.1-.63h2.42a1.88,1.88,0,0,1,1.17.63l.88,1C147.71,113.91,147.66,114.2,147.31,114.2Z"/><path class="cls-7" d="M147.48,113.64h-2.42a1.8,1.8,0,0,1-1.16-.64l-.88-1c-.3-.35-.25-.63.1-.63h2.42a1.78,1.78,0,0,1,1.16.63l.88,1C147.88,113.35,147.83,113.64,147.48,113.64Z"/><path class="cls-8" d="M171.93,119.44h-2.42a1.78,1.78,0,0,1-1.16-.63l-.88-1c-.3-.35-.25-.63.1-.63H170a1.78,1.78,0,0,1,1.16.63l.88,1C172.33,119.16,172.28,119.44,171.93,119.44Z"/><path class="cls-7" d="M172.1,118.88h-2.42a1.83,1.83,0,0,1-1.17-.63l-.88-1c-.29-.35-.24-.63.11-.63h2.42a1.78,1.78,0,0,1,1.16.63l.88,1C172.49,118.6,172.45,118.88,172.1,118.88Z"/><path class="cls-8" d="M170.11,131.2h0a.57.57,0,0,1-.44-.2l-17-20.21a.58.58,0,0,1,.45-1h0a.58.58,0,0,1,.44.21l17,20.2A.58.58,0,0,1,170.11,131.2Z"/><path class="cls-8" d="M167.69,126.29h-2.42a1.84,1.84,0,0,1-1.17-.64l-.88-1c-.29-.35-.24-.64.11-.64h2.42a1.8,1.8,0,0,1,1.16.64l.88,1C168.08,126,168,126.29,167.69,126.29Z"/><path class="cls-7" d="M167.86,125.73h-2.43a1.8,1.8,0,0,1-1.16-.64l-.88-1c-.29-.35-.25-.64.1-.64h2.42a1.82,1.82,0,0,1,1.17.64l.88,1C168.25,125.44,168.21,125.73,167.86,125.73Z"/><path class="cls-15" d="M196.47,156.84a18.76,18.76,0,0,1-6.4,8.16,26.54,26.54,0,0,1-10,4.62,89.25,89.25,0,0,1-24.8,2.19c-.69.12,6,10.63,9.71,16.95.47.78.89,1.5,1.24,2.12l.13.23c3.05,5.48,1.42,6.86,1.42,6.86-3.09.39-7.35,3.87-7.35,3.87-6.44,1.67-10.3-8.38-13.91-12.63s-12.89-16.88-8.77-23.71,40.79-15.59,40.79-15.59l3.66,1.41,6.89,2.65Z"/><path class="cls-17" d="M166.19,190.88l.13.23A1,1,0,0,1,166.19,190.88Z"/><path class="cls-35" d="M192.6,161.46s-1,1.42-2.53,3.54a26.54,26.54,0,0,1-10,4.62,89.25,89.25,0,0,1-24.8,2.19c-.69.12,6,10.63,9.71,16.95-2.25-2.71-5.79-3.06-8.45-8.47-3.22-6.56-10.82.25-12.21-5.17s4-5,11.82-8.5,9.15-2.06,16.28-3.48,6-10.17,6-10.17l3.76-1.65,5.22-.68,1.67,3.33C190.6,157.1,192.67,161.3,192.6,161.46Z"/><path class="cls-19" d="M169.59,200.59s3.71,3.1,3.79,5.45-7.81,10.33-7.81,10.33h-10s-1.07-1.64,1.7-2.82,3.05-1.25,4.09-2.36,1.94-4.08,3.6-7.2A6.37,6.37,0,0,1,169.59,200.59Z"/><path class="cls-11" d="M173.26,79.17a9.74,9.74,0,0,1-3.13-3.07c-.78-1.62-2.76-5.17-2.88-6s1.56.06,2.52,1.75a40.62,40.62,0,0,0-1.86-4.15c-1.2-2.35-3.13-3.79-2.65-4.93s4,3.19,4.39,3.91,1.27-.06,2.35.48,1.08-.06,2.16.6,2,2,3.14,7.91Z"/><path class="cls-11" d="M145.63,124.19a11.12,11.12,0,0,1-3.42-2.51,15.12,15.12,0,0,0-4.13-3.13A6.72,6.72,0,0,0,135,118c-1.19.08-1.82-.48-1.55-.87s1.39-.68,1.39-.68-2.18.2-1.63-.79,3.7-.6,3.7-.6a2.08,2.08,0,0,1,1.43-.75c.83,0,.75-.68,2.42-.48s2.54,1.19,4.29,1.59,3.19,4,3.19,4Z"/><path class="cls-36" d="M148.25,119a14.47,14.47,0,0,0-3.66,5.1l-.3.77,1.63,2.28,3.78-7.22Z"/><path class="cls-36" d="M173,81.41l-1.35-2.12a14,14,0,0,1,6-4l.84,1.49Z"/><path class="cls-10" d="M213.44,108.85l-10.28,5.45-1.52.81-1.44-.74c-2.91-1.53-9.52-5.13-12.87-8a63.05,63.05,0,0,1-6.83-8.17c-4.86-6.51-10.05-14.25-10.05-14.25,3.73-5.8,8.05-7.73,8.05-7.73s11.64,16.36,13.44,17.91c1.06.9,8.23,5.79,14,9.69C210,106.58,213.44,108.85,213.44,108.85Z"/><path class="cls-37" d="M213.44,108.85l-10.28,5.45-3,.07c-2.91-1.53-9.52-5.13-12.87-8a63.05,63.05,0,0,1-6.83-8.17,32.79,32.79,0,0,1,5.47,3.15c2.66,2.31,1.89-.52,13.74,1.11a39.82,39.82,0,0,1,6.23,1.36C210,106.58,213.44,108.85,213.44,108.85Z"/><path class="cls-11" d="M205.24,107.21s-8.89,5.45-8.91,2a9.62,9.62,0,0,0-.49-3,7.65,7.65,0,0,0-1.34-2.5h0c-3.17,3.38-4.59,2.31-5,1.67s-3-6.06-2.62-7.86a5.56,5.56,0,0,0-.26-4c-.56-1.11.26-3.82.26-3.82l7.56-1.59s7,7.13,7.6,9.54S205.24,107.21,205.24,107.21Z"/><path class="cls-10" d="M215.29,130.58c-2.32,6.95-14.93,30.19-21.54,30.86-2.69.27-6.16-1.49-9.33-3.67a66,66,0,0,1-8.56-7.21c5.8-4.11,5-17.07,5-17.07h0c-.12.11-8.29,6.88-13.76,7.52s-23.35-11.72-23.35-11.72,4-10,5.93-9.67,14.69,8.64,16.88,8.77,14.56-11,17.64-14,15.22-7.86,23.73-8c0,0,5.54.9,7.47,5S217.61,123.62,215.29,130.58Z"/><path class="cls-19" d="M190.58,82.12c-4,.48-7.87,3.48-6.63,6.47A5.21,5.21,0,0,0,189.16,92a2.88,2.88,0,0,1,2.6,1.78c.54.84.78.32,1.46-1s2.24-.39,2.28,1.45-.28,6.27,3,6.35,3.92-1.28,4-1.28A23,23,0,0,0,205.13,89s3.4-1.75,2.76-4.55-4.32-3.36-6.51-1.1a6.38,6.38,0,0,1-3.56-1.06c-1.72-1.16-4-1.72-5.12-1S191.58,82,190.58,82.12Z"/><rect class="cls-21" x="190.02" y="174.27" width="3.45" height="39.21"/><polygon class="cls-38" points="193.47 213.48 191.74 213.48 191.74 174.27 193.47 174.16 193.47 213.48"/><path class="cls-38" d="M205.4,216.38H178.08a2.9,2.9,0,0,1,2.9-2.9H202.5A2.9,2.9,0,0,1,205.4,216.38Z"/><path class="cls-21" d="M196.68,216.38h-18.6a2.9,2.9,0,0,1,2.9-2.9h10.76Z"/><path class="cls-39" d="M225.64,133.13c-.24.11-.48.23-.71.36a1.71,1.71,0,0,0-.23.13l-.22.13-.22.13-.2.13-.23.15-.21.15-.21.15c-.24.17-.46.35-.69.54l-.23.21c-.29.25-.56.51-.82.78h0l-.32.33-.05.06-.31.34-.33.4,0,0c-.1.12-.2.25-.29.38s-.21.27-.31.41v0c-.1.13-.2.27-.29.41l-.3.43h0l-.25.39-.07.11-.06.1c-.15.25-.3.5-.44.76s-.35.62-.51,1l-.25.48-.23.5c-.16.33-.31.67-.46,1l-.21.51c-.08.17-.15.35-.21.52s-.12.3-.18.45-.16.4-.23.6-.13.36-.19.54l0,.06c-.05.16-.11.31-.16.47-.13.37-.26.74-.38,1.11,0,.18-.11.35-.16.52l-.18.55c-.1.35-.21.69-.31,1a.14.14,0,0,1,0,.06c-.05.18-.1.37-.16.55h0l-.15.55c-.07.23-.13.47-.2.7s-.07.27-.11.4l-.06.22c-.13.48-.25,1-.38,1.43s-.24.92-.35,1.38l-.15.58c-.16.61-.31,1.21-.47,1.8,0,.17-.09.34-.13.51-.08.32-.17.63-.25.93l-.15.57c-.19.68-.38,1.33-.57,2,0,.15-.09.29-.13.43l-.1.31a2.41,2.41,0,0,1-.08.25l-.27.82-.31.84s0,0,0,0-.09.24-.14.36a2.88,2.88,0,0,1-.13.31l0,.08-.15.36,0,0c0,.13-.11.25-.17.37s-.11.24-.17.36a2,2,0,0,1-.13.25l-.06.12-.17.3a1,1,0,0,1-.08.14l-.1.18c-4.85,7.88-18.62,7.6-18.62,7.6H170.65c-4.75,0-4.85-4.85.57-5.23s16-6.65,20.71-20.42c2.3-6.68,5-10.66,7.14-13a9.66,9.66,0,0,1,7.11-3.08h19.34A.3.3,0,0,1,225.64,133.13Z"/><path class="cls-23" d="M224.93,133.49a1.71,1.71,0,0,0-.23.13l-.22.13-.22.13-.2.13-.23.15-.21.15-.21.15c-.24.17-.46.35-.69.54l-.23.21c-.29.25-.56.51-.82.78h0l-.32.33-.05.06-.31.34-.33.4,0,0c-.1.13-.2.25-.29.38s-.21.27-.31.41v0c-.1.13-.2.27-.29.41l-.3.43h0l-.25.39-.07.11-.06.1h0c-.15.25-.3.5-.44.76s-.35.62-.51,1l-.25.48-.23.5c-.16.33-.31.67-.46,1l-.21.51c-.08.17-.15.35-.21.52s-.12.3-.18.45-.16.4-.23.6-.13.36-.19.54l0,.06c-.05.16-.11.31-.16.47-.13.37-.26.74-.38,1.11,0,.18-.11.35-.16.52l-.18.55c-.1.35-.21.69-.31,1a.14.14,0,0,1,0,.06l-.16.55h0l-.15.55c-.07.23-.13.47-.2.7s-.07.27-.11.4l-.06.22c-.13.48-.25,1-.38,1.43s-.24.92-.35,1.38l-.15.58c-.16.61-.31,1.21-.47,1.8,0,.17-.09.34-.13.51-.08.32-.17.63-.25.93l-.15.57c-.19.68-.38,1.33-.57,2,0,.15-.09.29-.13.43l-.1.31a2.41,2.41,0,0,1-.08.25l-.27.82-.31.84s0,0,0,0-.09.24-.14.36a2.88,2.88,0,0,1-.13.31l0,.08-.15.36,0,0c0,.13-.11.25-.17.37s-.11.24-.17.36a2,2,0,0,1-.13.25l-.06.12-.17.3-.18.32c-4.85,7.88-18.62,7.6-18.62,7.6h-19c-1.35-1.06-.69-2.67,2.9-2.92,5.41-.38,17.12-8,21.87-21.81,2.3-6.67,5-10.65,7.13-13a9.68,9.68,0,0,1,7.11-3.08Z"/><path class="cls-40" d="M219.05,139.41c-.15.25-.3.5-.44.76s-.35.62-.51,1l-.25.48-.23.5c-.16.33-.31.67-.46,1l-.21.51c-.08.17-.15.35-.21.52s-.12.3-.18.45-.16.4-.23.6-.13.36-.19.54l0,.06c-.05.16-.11.31-.16.47-.13.37-.26.74-.38,1.11,0,.18-.11.35-.16.52l-.18.55c-.1.35-.21.69-.31,1a.14.14,0,0,1,0,.06l-.16.55h0l-.15.55c-.07.23-.13.47-.2.7s-.07.27-.11.4l-.06.22c-.13.48-.25,1-.38,1.43s-.24.92-.35,1.38l-.15.58c-.16.61-.31,1.21-.47,1.8,0,.17-.09.34-.13.51-.08.32-.17.63-.25.93l-.15.57c-.19.68-.38,1.33-.57,2,0,.15-.09.29-.13.43l-.1.31a2.41,2.41,0,0,1-.08.25l-.27.82-.31.84s0,0,0,0-.09.24-.14.36a2.88,2.88,0,0,1-.13.31l0,.08-.15.36,0,0c0,.13-.11.25-.17.37s-.11.24-.17.36a2,2,0,0,1-.13.25l-.06.12-.17.3a1,1,0,0,1-.08.14l-.1.18c-4.85,7.88-18.62,7.6-18.62,7.6h-6.66c.69-.05,13.63-.67,18.25-20C205.59,141.2,214.06,140.43,219.05,139.41Z"/><path class="cls-7" d="M79.6,174.08V160.84a7.48,7.48,0,0,0-7.47-7.48H62.68v63H94.55V189a7.48,7.48,0,0,0-7.48-7.48h0A7.47,7.47,0,0,1,79.6,174.08Z"/><path class="cls-2" d="M77.58,200.35c-2.88-5.5-6.36-9.43-12-13.87S52.51,182,49.49,180.59s-3.11,2.53-2.17,6.26-1.91,20.87,15.27,26.33S79.71,204.41,77.58,200.35Z"/><path class="cls-30" d="M66.73,204.05a.25.25,0,0,1-.25-.22c-.83-6.07,2.18-12.07,2.21-12.13a.27.27,0,0,1,.35-.12.25.25,0,0,1,.11.35c0,.06-3,5.92-2.16,11.83a.26.26,0,0,1-.22.29Z"/><path class="cls-30" d="M66.78,204.73a.27.27,0,0,1-.12,0C61.54,202,52.64,203,52.55,203a.24.24,0,0,1-.28-.22.26.26,0,0,1,.22-.29c.38,0,9.15-1,14.41,1.77a.28.28,0,0,1,.11.35A.27.27,0,0,1,66.78,204.73Z"/><path class="cls-30" d="M68.38,209.67a.26.26,0,0,1-.25-.2c-3.68-15.23-18.3-26-18.45-26.11A.25.25,0,1,1,50,183c.15.1,14.92,11,18.66,26.4a.26.26,0,0,1-.19.31Z"/><path class="cls-30" d="M61.48,195.38a.25.25,0,0,1-.16-.06c-3.34-2.67-11.41-2-11.49-2a.27.27,0,0,1-.28-.24.26.26,0,0,1,.24-.28c.34,0,8.35-.72,11.85,2.08a.26.26,0,0,1,0,.36A.23.23,0,0,1,61.48,195.38Z"/><path class="cls-30" d="M58.8,192a.28.28,0,0,1-.24-.15c-1-2.49-.49-6.7-.47-6.88a.26.26,0,0,1,.51.07s-.55,4.25.44,6.61a.25.25,0,0,1-.14.33A.18.18,0,0,1,58.8,192Z"/><path class="cls-19" d="M323.38,107.71a2.86,2.86,0,0,1-.9.78c-2.79,1.53-7.79-1.8-10.08-1.69-2.56.12-3.78,3.47-9.82,1.09s-4.63-11.76-4.26-15.3-1.83-5.31-5.61-5.19-7.77-2-6-7.92-3.13-9.11-6-8-1.34-4-1.34-4a8.18,8.18,0,0,1,7.37-3,6.27,6.27,0,0,1,3.48,1.37h0a6.85,6.85,0,0,1,.55.52v0c1.41,1.53,2,3.67,2.86,5.31,1.47,2.68,3.9,2.5,7.68,1.34s11.41-.62,13.05,5.7-2.74,13.69,5.13,15.52S325.82,104.54,323.38,107.71Z"/><path class="cls-9" d="M279.59,66.9a5.06,5.06,0,0,1,2,4.55s0,.88-1,.43-1.82-3.75-1.73-4.46S279.34,66.82,279.59,66.9Z"/><path class="cls-19" d="M278.63,80.51c-3.5,3-5.21,2.84-6.24,1.34-.38-.55-1.43-1.93-2.61-3.44-2-2.54-4.28-5.46-4.28-5.46s-3.66-.23-3.74-3.06a3.8,3.8,0,0,1,.3-1.61c.9-2.22,3.77-4.14,7.74-4.47,4.92-.41,9.4,2,10.7,5.44S282.12,77.47,278.63,80.51Z"/><path class="cls-41" d="M269.78,78.41c-2-2.54-4.28-5.46-4.28-5.46s-3.66-.23-3.74-3.06a3.8,3.8,0,0,1,.3-1.61c.73-1.13,2.09-2.11,4.65-1.79,5.49.69,2.94,9.86,4.3,10.82C271.51,77.67,270.84,78.06,269.78,78.41Z"/><path class="cls-42" d="M250.34,134.85a11.49,11.49,0,0,0-2.9,1.29c-.95.72-3.27,1.83-3.32,2.21s1.95-.21,2.74-.51.66.44-.32,1.37a25.59,25.59,0,0,1-2.5,2.19c-1.13.85-1.26,1.24-.82,1.39a1,1,0,0,0,.83-.13s-1,.77-.61,1.2,1.63-.48,1.63-.48-.35.61.51.59,1.14-.4,2.15-.7,4-3.5,4.74-4.61a12.61,12.61,0,0,0,1.07-2.08Z"/><path class="cls-43" d="M271.25,108.49s1.86,9.29-2.68,14.49-14.9,14.72-14.9,14.72l-3.82-3s9.34-12.35,10.62-17.09c.27-1,.52-3,.52-3Z"/><path class="cls-42" d="M258.09,133.49a3.33,3.33,0,0,1,.14-2c.43-.94,2.47,1.87,2.47,1.87l.54,2.34Z"/><path class="cls-19" d="M308.43,197.26c1.74,1.87,5.44,8.93,5.44,8.93l-2.74,2s-3.13-4.71-3.78-4.43,0,7.19-.89,7.82l-6.66,4.84a9.53,9.53,0,0,1,.89-4.68c1-2,2-6.09-.59-12.26-.34-.8-.73-1.64-1.2-2.51l6-5.6s.74,1.67,1.73,3.36A15.56,15.56,0,0,0,308.43,197.26Z"/><path class="cls-11" d="M298.9,197l6-5.6s.74,1.67,1.73,3.36l-6.54,4.75C299.76,198.67,299.37,197.83,298.9,197Z"/><path class="cls-15" d="M309.78,190l-13.33,9.11s-7-8.57-13.17-16.46c-4.12-5.26-7.9-10.21-9-12.1-2.24-3.81-5.42-18.87-6.57-24.51l-.43-2.16,1.64-4.58,3.17-8.9.23-.66a25.65,25.65,0,0,1,4.84-1.82,13.52,13.52,0,0,1,2-.35c2.08-.18,4,.31,4.57,2.43a3.75,3.75,0,0,1,.09.39c.12.63.25,1.44.39,2.38,1.14,8,2.76,25.65,3.27,27.64C288.1,162.63,309.78,190,309.78,190Z"/><path class="cls-44" d="M283.28,182.66c-4.12-5.26-7.9-10.21-9-12.1-2.24-3.81-5.42-18.87-6.57-24.51a13.87,13.87,0,0,1,.68-2.28c.69-1,15.87-11,15.87-11s.63,8.9-2.38,14.58-5.59,9.85-3.18,16S276,173,280.07,176.41A8.89,8.89,0,0,1,283.28,182.66Z"/><path class="cls-19" d="M257.48,206c.3,2.53-.85,10.42-.85,10.42h-3.38s.23-5.66-.47-5.81-4.23,5.81-5.3,5.81h-8.23a9.46,9.46,0,0,1,3.46-3.27c2-1,5.21-3.73,6.73-10.27a27.28,27.28,0,0,0,.5-2.73l8.15-1s-.38,1.79-.57,3.73A15.63,15.63,0,0,0,257.48,206Z"/><path class="cls-11" d="M249.94,200.14l8.15-1s-.38,1.79-.57,3.73h-8.08A27.28,27.28,0,0,0,249.94,200.14Z"/><path class="cls-15" d="M265.17,126s-11.71,27.48-15.12,38.86-8.62,35.94-8.62,35.94h17.89s7-33.34,10.08-38.7,14.63-24.88,12.84-31.88S265.17,126,265.17,126Z"/><path class="cls-45" d="M284.26,132.78l-5.43,14.08-17.59-11.17,10.85-5.28,5.07-2.48,1.42-.69.63.34,4.57,2.43a3.75,3.75,0,0,1,.09.39C284,131,284.12,131.84,284.26,132.78Z"/><path class="cls-13" d="M275.09,88.94a21,21,0,0,0-7.81,6.66c-3.57,4.88-7.8,14-8.13,15.67s2.79,15.43,2.78,19,16.64,2.23,21.35,0c0,0-1.85-13-1.85-14.75s.16-13.83-.81-19.36A9.34,9.34,0,0,0,275.09,88.94Z"/><path class="cls-46" d="M274.08,101.69a27.28,27.28,0,0,0,0,7.8c.67,3.35-4.56,1.31-6.37,8.13s13.7,3.51,13.7,3.51,4.27-6.57,4.3-7.69S274.08,101.69,274.08,101.69Z"/><path class="cls-42" d="M275.09,88.94s-8.17,8.4-7.45,6.19c.39-1.22-.3-4.13-1-6.51-.57-1.94-1.14-3.51-1.14-3.51s1.56-1.6,3.21-3,3.57-2.63,3.68-1.35C272.63,83.28,275.09,88.94,275.09,88.94Z"/><rect class="cls-9" x="255.53" y="104.87" width="21.86" height="37.72" transform="translate(42.02 313.3) rotate(-65.09)"/><rect class="cls-22" x="257.8" y="107.14" width="17.31" height="33.17" transform="translate(42.02 313.3) rotate(-65.09)"/><polygon class="cls-9" points="250.84 126.29 263.18 117.62 264.52 132.64 250.84 126.29"/><polygon class="cls-9" points="263.88 132.37 273.43 125.67 274.46 137.29 263.88 132.37"/><circle class="cls-9" cx="269.31" cy="120.19" r="2.24" transform="translate(40.29 306) rotate(-63.1)"/><path class="cls-42" d="M264.45,129.16s-1.59.22-2.71.51-3.34.13-3.6.64,2.49,1,3.16,1-1,1-2,1.28-1.74.65-.74,1.55,2.54,2.25,3.18,2.34,3.79-2.28,5.53-4S264.45,129.16,264.45,129.16Z"/><path class="cls-13" d="M275.25,91.94c-3.07,2.35-1.87,8.37-.32,12.28s5.93,11,5.61,11.7-16.6,13-16.6,13l3.34,4.2s15.45-7.77,19.27-10.53,4.15-5.77,3-9.67S281.84,86.9,275.25,91.94Z"/><path class="cls-17" d="M253,200.87l-.76-.13c.25-1.4,6-34.42,7.05-37.53s9-23.19,9.31-24l.72.28c-.09.21-8.29,20.93-9.29,24S253,200.53,253,200.87Z"/><path class="cls-17" d="M303.9,194.06c-.12-.15-12.17-15.26-18.49-23.07s-8.73-19-8.75-19.07l.76-.16c0,.11,2.34,11,8.59,18.74s18.37,22.93,18.5,23.08Z"/><path class="cls-47" d="M323.38,107.71a2.86,2.86,0,0,1-.9.78c2.71-3.23.72-7.51-6.24-7.42s-8.85-5.93-4.72-15.89-6.27-10.74-10.65-8.51-8.85.17-8.68-4.66c.11-3.23-.84-4.94-1.49-5.71,1.41,1.53,2,3.67,2.86,5.31,1.47,2.68,3.9,2.5,7.68,1.34s11.41-.62,13.05,5.7-2.74,13.69,5.13,15.52S325.82,104.54,323.38,107.71Z"/><path class="cls-11" d="M271,81.78s-1.22,4.48-4.38,6.84c-.57-1.94-1.14-3.51-1.14-3.51s1.56-1.6,3.21-3Z"/><path class="cls-42" d="M265.74,70.15s-2.2,5.45-4.27,6.5-.69,1.3,0,2.48-2,4.84.33,6.51,7.56-1.06,9.22-3.87c0,0,2.89.13,3.58-2.07s-1.54-3.58-2.84-2.6-1.47-1.06-2-4.11S266,69.5,265.74,70.15Z"/><path class="cls-12" d="M32.66,216.27c-.49-5.15,4.17-12.9,19.14-7.86,0,0,3.78-11.81,14.17-11.42s13.71,10.12,13.71,10.12,14-1.69,16,10.12C95.64,217.23,33.37,223.71,32.66,216.27Z"/><path class="cls-27" d="M63.7,217.16l-.51-.09a19,19,0,0,0-3.89-14.43l.39-.34A19.51,19.51,0,0,1,63.7,217.16Z"/><path class="cls-27" d="M63.87,212l-.39-.33c0-.06,4.79-5.73,5.59-9.28l.51.11C68.74,206.21,64.07,211.8,63.87,212Z"/><path class="cls-27" d="M63.65,215c-3.7-.2-7-4-7.12-4.18l.4-.34s3.27,3.81,6.75,4Z"/><path class="cls-27" d="M75.33,217.43,75,217c.26-.23,6.59-5.67,9.88-5.76l0,.52C81.79,211.88,75.4,217.37,75.33,217.43Z"/><path class="cls-27" d="M87.71,216.36A57.15,57.15,0,0,1,78.53,215l.13-.5a56.54,56.54,0,0,0,9.08,1.35Z"/><path class="cls-27" d="M50.13,217.12c-3.33-2.77-10.36-5-10.43-5l.15-.49c.29.09,7.2,2.27,10.61,5.1Z"/><path class="cls-27" d="M47.53,215,47,215a10.63,10.63,0,0,0-1.16-5l.45-.25A10.93,10.93,0,0,1,47.53,215Z"/><polygon class="cls-6" points="198.14 48.56 107.42 50.11 105.62 48.56 105.62 18.75 198.14 18.75 199.95 20.3 198.14 48.56"/><polygon class="cls-6" points="198.14 15.98 107.42 17.53 105.62 15.98 105.62 9.28 198.14 9.28 199.95 10.83 198.14 15.98"/><rect class="cls-7" x="107.42" y="20.3" width="92.52" height="29.81"/><rect class="cls-3" x="107.42" y="10.83" width="92.52" height="6.7"/><circle class="cls-9" cx="125.13" cy="14.18" r="1.25"/><path class="cls-10" d="M120.49,14.18a1.26,1.26,0,1,1-1.25-1.25A1.25,1.25,0,0,1,120.49,14.18Z"/><circle class="cls-13" cx="113.34" cy="14.18" r="1.25"/><path class="cls-8" d="M181.35,21.75a11.92,11.92,0,1,0,11.91,11.91A11.91,11.91,0,0,0,181.35,21.75Zm0,19.58A7.67,7.67,0,1,1,189,33.66,7.66,7.66,0,0,1,181.35,41.33Z"/><path class="cls-9" d="M192.6,26.27a11.91,11.91,0,0,0-20.33,8.43,11.61,11.61,0,0,0,.21,2.22A11.91,11.91,0,1,0,192.6,26.27ZM188,41.33a7.58,7.58,0,0,1-3.84,1,7.66,7.66,0,0,1-7.53-6.24,7.43,7.43,0,0,1-.14-1.42A7.67,7.67,0,1,1,188,41.33Z"/><path class="cls-13" d="M196.09,34.7A11.91,11.91,0,0,1,190.15,45L188,41.33a7.66,7.66,0,0,0,1.58-12.06l3-3A11.85,11.85,0,0,1,196.09,34.7Z"/><path class="cls-10" d="M190.15,45a11.92,11.92,0,0,1-17.67-8.09l4.17-.8a7.66,7.66,0,0,0,7.53,6.24,7.58,7.58,0,0,0,3.84-1Z"/><rect class="cls-22" x="112.34" y="26.14" width="41.47" height="1.94"/><rect class="cls-22" x="112.34" y="34.13" width="41.47" height="1.94"/><rect class="cls-22" x="112.34" y="42.12" width="41.47" height="1.94"/><path class="cls-20" d="M274.73,87.88a20.85,20.85,0,0,1-7.17,4.9L267,96s4.09-1.26,8.11-7.08Z"/><path class="cls-18" d="M167.85,216.37H163a11.4,11.4,0,0,0,5.24-6c.93-2.92,2.45-5.73,4.35-5s.33,3.92-.68,5.73A32.08,32.08,0,0,1,167.85,216.37Z"/><path class="cls-6" d="M72.78,153.36H72v-31.3a4.83,4.83,0,0,1,4.83-4.83H80V118H76.84a4.05,4.05,0,0,0-4.06,4Z"/><path class="cls-6" d="M75.91,153.69h-.78V122.38a2.25,2.25,0,0,1,2.25-2.25H83v.78H77.38a1.47,1.47,0,0,0-1.47,1.47Z"/><path class="cls-48" d="M184.22,156.84a3.1,3.1,0,0,1,.2.93,66,66,0,0,1-8.56-7.21c5.8-4.11,5-17.07,5-17.07s6.55-5.72,7.45-4.33-2.32,9.3,0,12.56S182.31,151.57,184.22,156.84Z"/><path class="cls-14" d="M195.84,106.27a7.65,7.65,0,0,0-1.34-2.5,6.86,6.86,0,0,0,1.34-3.26S197.41,104.12,195.84,106.27Z"/><circle class="cls-22" cx="126.58" cy="60.62" r="6.53"/><rect class="cls-22" x="139.53" y="54.25" width="29" height="1.87"/><rect class="cls-22" x="139.53" y="59.79" width="29" height="1.87"/><rect class="cls-22" x="139.53" y="65.27" width="16.05" height="1.87"/><rect class="cls-10" x="33.27" y="135" width="29.4" height="10.72"/><rect class="cls-9" x="5" y="157.97" width="35.52" height="10.72"/><path class="cls-6" d="M75.8,171.29a1.23,1.23,0,1,1-1.23-1.22A1.23,1.23,0,0,1,75.8,171.29Z"/><circle class="cls-6" cx="74.57" cy="165.52" r="1.23"/><circle class="cls-6" cx="74.57" cy="159.75" r="1.23"/><path class="cls-3" d="M377.65,48.81H325.09s3.62-8.07,12-4.73c0,0,3.06-8.34,10.29-7.37s8.62,6,8.62,6a15.82,15.82,0,0,1,15.29,3.17S377.37,45.19,377.65,48.81Z"/><path class="cls-49" d="M195.84,108.63A2.89,2.89,0,0,1,197,106.9c.95-.65,7.05-3.33,8.71-.42Z"/><rect class="cls-31" x="32.66" y="216.27" width="303.51" height="3.73"/><path class="cls-22" d="M11.71,162.69a1.79,1.79,0,0,1-2,1.87h-1V166H7.52v-5.08H9.67C11,160.93,11.71,161.56,11.71,162.69Zm-1.09,0c0-.57-.36-.85-1-.85H8.67v1.72h.95C10.26,163.6,10.62,163.31,10.62,162.73Z"/><path class="cls-22" d="M14.89,164.37V166H13.74V164.4l-1.88-3.47H13l1.3,2.28,1.27-2.28h1.15Z"/><path class="cls-22" d="M21,160.93v1H19.48V166H18.33V161.9H16.78v-1Z"/><path class="cls-22" d="M22.8,160.93v2.12h2.3v-2.12h1.15V166H25.1v-2H22.8v2H21.65v-5.08Z"/><path class="cls-22" d="M32.47,163.47a2.74,2.74,0,1,1-2.74-2.58A2.61,2.61,0,0,1,32.47,163.47Zm-4.29,0a1.58,1.58,0,0,0,1.57,1.59,1.59,1.59,0,1,0-1.57-1.59Z"/><path class="cls-22" d="M34.27,160.93l2.47,3.26v-3.26h1.09V166h-1l-2.46-3.26V166h-1.1v-5.08Z"/><path class="cls-22" d="M37.51,137.42,39,140.53l1.47-3.11h1.28v5.09h-1v-3.43L39.36,142h-.75l-1.35-2.91v3.43h-1v-5.09Z"/><path class="cls-22" d="M43.31,144a1.59,1.59,0,0,1-1.06-.38l.47-.81a.75.75,0,0,0,.51.21.55.55,0,0,0,.52-.34l.11-.22-1.62-3.83h1.15l1,2.69.93-2.69h1.12l-1.72,4.34A1.44,1.44,0,0,1,43.31,144Z"/><path class="cls-22" d="M48.73,138.35c-.38,0-.65.14-.65.42,0,.93,2.71.41,2.71,2.24,0,1-.87,1.53-2,1.53a3.6,3.6,0,0,1-2.25-.8l.46-.94a3,3,0,0,0,1.8.76c.47,0,.76-.17.76-.48,0-1-2.71-.4-2.71-2.2,0-.93.79-1.51,2-1.51a3.68,3.68,0,0,1,1.94.55l-.45,1A3.51,3.51,0,0,0,48.73,138.35Z"/><path class="cls-22" d="M57,143.13a2.29,2.29,0,0,1-1.44.55,1.84,1.84,0,0,1-1.63-1.12,2.59,2.59,0,1,1,2.8-2.59A2.54,2.54,0,0,1,55,142.39a1,1,0,0,0,.69.39,1.71,1.71,0,0,0,.9-.4Zm-3-1.57A1.59,1.59,0,1,0,52.41,140,1.58,1.58,0,0,0,54,141.56Z"/><path class="cls-22" d="M58.64,137.42v4.09h2.18v1H57.49v-5.09Z"/><circle class="cls-19" cx="297.44" cy="45.31" r="4.46"/><path class="cls-13" d="M309.73,24.64a12.26,12.26,0,0,1-5.39,10.16,5.64,5.64,0,0,0-2.42,4.67v4.39h-9V39.4a5.67,5.67,0,0,0-2.5-4.65,12.38,12.38,0,0,1-4.11-4.82,12.15,12.15,0,0,1-1.15-6.37,12.29,12.29,0,0,1,24.53,1.08Z"/><rect class="cls-17" x="291.77" y="42.02" width="11.35" height="3.54" rx="1.77"/><path class="cls-22" d="M298.29,42.07a30.14,30.14,0,0,1,0-14.18,4.39,4.39,0,0,1-3.15-.29A109.34,109.34,0,0,1,296.69,42l-.43,0a106.08,106.08,0,0,0-1.62-14.7c-2.28-1.4-3.74-4.46-3.26-5.49.08-.18.35-.57,1.08-.3,1.11.42,2,2.66,2.57,5.51l.06,0a4,4,0,0,0,3.33.32q.19-.64.39-1.23c1.3-3.83,3.27-6.29,4.54-7,.61-.32.92-.12,1,0,.53.57-.07,2.29-1.62,4.71a9.09,9.09,0,0,1-4,3.77,30,30,0,0,0-.1,14.26ZM304,19.48a1,1,0,0,0-.4.12c-1.32.69-3.35,3.37-4.59,7.58a9.34,9.34,0,0,0,3.45-3.48c1.79-2.79,1.88-3.95,1.67-4.18A.18.18,0,0,0,304,19.48ZM292,21.88a.23.23,0,0,0-.23.14c-.3.67.75,3.27,2.74,4.7-.57-2.54-1.3-4.43-2.21-4.77A.84.84,0,0,0,292,21.88Z"/><path class="cls-50" d="M305.69,19.18a12.66,12.66,0,0,1-7.76,11.67,12.46,12.46,0,0,1-4.9,1,12.58,12.58,0,0,1-6.68-1.9,12.15,12.15,0,0,1-1.15-6.37A12.28,12.28,0,0,1,305,14.91,12.56,12.56,0,0,1,305.69,19.18Z"/><path class="cls-13" d="M297.44,10.16h0a.48.48,0,0,1-.49-.48V6.34a.48.48,0,0,1,.49-.48h0a.47.47,0,0,1,.48.48V9.68A.47.47,0,0,1,297.44,10.16Z"/><path class="cls-13" d="M304.74,12.12h0a.47.47,0,0,1-.18-.66l1.67-2.89a.47.47,0,0,1,.66-.18h0a.49.49,0,0,1,.18.66l-1.67,2.89A.49.49,0,0,1,304.74,12.12Z"/><path class="cls-13" d="M290.14,12.12h0a.49.49,0,0,0,.18-.66l-1.67-2.89a.47.47,0,0,0-.66-.18h0a.49.49,0,0,0-.18.66l1.67,2.89A.49.49,0,0,0,290.14,12.12Z"/><path class="cls-13" d="M312,24.78h0a.48.48,0,0,1,.49-.48h3.34a.48.48,0,0,1,.48.49h0a.48.48,0,0,1-.48.48h-3.34A.49.49,0,0,1,312,24.78Z"/><path class="cls-13" d="M278.54,24.73h0a.49.49,0,0,1,.48-.49h3.34a.48.48,0,0,1,.49.48h0a.49.49,0,0,1-.49.49H279A.48.48,0,0,1,278.54,24.73Z"/><path class="cls-13" d="M310.07,32.08h0a.48.48,0,0,1,.66-.18l2.89,1.67a.49.49,0,0,1,.17.67h0a.48.48,0,0,1-.66.17l-2.89-1.67A.48.48,0,0,1,310.07,32.08Z"/><path class="cls-13" d="M281.09,15.28h0a.49.49,0,0,1,.66-.18l2.89,1.68a.48.48,0,0,1,.17.66h0a.49.49,0,0,1-.66.18l-2.89-1.68A.48.48,0,0,1,281.09,15.28Z"/><path class="cls-13" d="M310.09,17.48h0a.49.49,0,0,0,.66.18l2.9-1.66a.5.5,0,0,0,.18-.67h0a.49.49,0,0,0-.67-.17l-2.89,1.66A.49.49,0,0,0,310.09,17.48Z"/><path class="cls-13" d="M281.05,34.18h0a.5.5,0,0,0,.67.18l2.89-1.67a.49.49,0,0,0,.18-.66h0a.49.49,0,0,0-.66-.18l-2.9,1.67A.49.49,0,0,0,281.05,34.18Z"/></svg>