<?xml version="1.0" encoding="utf-8"?>
<!-- Generator: Adobe Illustrator 25.1.0, SVG Export Plug-In . SVG Version: 6.00 Build 0)  -->
<svg version="1.1" id="Capa_1" xmlns="http://www.w3.org/2000/svg" xmlns:xlink="http://www.w3.org/1999/xlink" x="0px" y="0px"
	 viewBox="0 0 32 32" style="enable-background:new 0 0 32 32;" xml:space="preserve">
<style type="text/css">
	.st0{fill:#FFFFFF;}
</style>
<g>
	<path class="st0" d="M26.1,16.8L21.2,15V9.6c0-0.1-0.1-0.2-0.2-0.2l-5-1.8c-0.1,0-0.1,0-0.2,0l-5,1.8c-0.1,0-0.1,0.1-0.1,0.1
		c0,0-0.1,0.1-0.1,0.2V15l-4.9,1.7c-0.1,0-0.1,0.1-0.1,0.1c0,0-0.1,0.1-0.1,0.2v5.5c0,0.1,0.1,0.2,0.2,0.2l5,1.7c0.1,0,0.1,0,0.2,0
		l5-1.7l5,1.7c0.1,0,0.1,0,0.2,0l5-1.7c0.1,0,0.2-0.1,0.2-0.2V17C26.3,16.9,26.2,16.8,26.1,16.8z M20.4,14.6l-3.8,1.3v-4.1l3.8-1.4
		V14.6z M16,8.4l3.6,1.3L16,11.1l-3.8-1.3L16,8.4z M11,18.5l-3.8-1.3l3.8-1.4l3.6,1.3L11,18.5z M15.3,22.1l-3.8,1.3v-4.1l3.8-1.4
		V22.1z M21.1,18.5l-3.8-1.3l3.8-1.4l3.6,1.3L21.1,18.5z M25.4,22.1l-3.8,1.3v-4.1l3.8-1.4L25.4,22.1L25.4,22.1z"/>
</g>
</svg>
