<svg id="Layer_1" data-name="Layer 1" xmlns="http://www.w3.org/2000/svg" viewBox="0 0 24 24"><defs><style>.cls-1{fill:#272e3e;}</style></defs><path class="cls-1" d="M20.13.5H3.87A3.37,3.37,0,0,0,.5,3.87V20.13A3.37,3.37,0,0,0,3.87,23.5H20.13a3.37,3.37,0,0,0,3.37-3.37V3.87A3.37,3.37,0,0,0,20.13.5ZM12.05,18A6.07,6.07,0,1,1,18.11,12h0A6.08,6.08,0,0,1,12.05,18ZM18.78,7.24a2,2,0,1,1,2-2h0a2,2,0,0,1-2,2Zm0-2.7a.68.68,0,1,0,.68.68.67.67,0,0,0-.68-.68Zm-6.73,2.7A4.72,4.72,0,1,0,16.76,12h0A4.72,4.72,0,0,0,12,7.24Z"/></svg>