<?xml version="1.0" encoding="utf-8"?>
<!-- Generator: Adobe Illustrator 25.1.0, SVG Export Plug-In . SVG Version: 6.00 Build 0)  -->
<svg version="1.1" id="Capa_1" xmlns="http://www.w3.org/2000/svg" xmlns:xlink="http://www.w3.org/1999/xlink" x="0px" y="0px"
	 viewBox="0 0 32 32" style="enable-background:new 0 0 32 32;" xml:space="preserve">
<style type="text/css">
	.st0{fill:#FFFFFF;}
</style>
<g>
	<g>
		<g>
			<path class="st0" d="M11.6,14.3c-0.9,0-1.7,0.7-1.7,1.7v4.5c0,0.9,0.7,1.7,1.7,1.7s1.7-0.7,1.7-1.7V16
				C13.2,15,12.5,14.3,11.6,14.3z"/>
		</g>
	</g>
	<g>
		<g>
			<path class="st0" d="M8.8,16c0-0.2,0-0.3,0-0.5c-0.7,0.2-1.2,0.8-1.2,1.6v2.3c0,0.7,0.5,1.4,1.2,1.6c0-0.2,0-0.3,0-0.5V16z"/>
		</g>
	</g>
	<g>
		<g>
			<path class="st0" d="M20.4,14.3c-0.9,0-1.7,0.7-1.7,1.7v4.5c0,0.9,0.7,1.7,1.7,1.7c0.2,0,0.3,0,0.5-0.1c-0.2,0.7-0.8,1.2-1.6,1.2
				h-1.8c-0.2-0.6-0.8-1.1-1.6-1.1c-0.9,0-1.7,0.7-1.7,1.7c0,0.9,0.7,1.7,1.7,1.7c0.7,0,1.3-0.5,1.6-1.1h1.8c1.5,0,2.8-1.2,2.8-2.8
				v-1.1V16C22.1,15,21.4,14.3,20.4,14.3z"/>
		</g>
	</g>
	<g>
		<g>
			<path class="st0" d="M23.2,15.5c0,0.2,0,0.3,0,0.5v4.5c0,0.2,0,0.3,0,0.5c0.7-0.2,1.2-0.8,1.2-1.6v-2.3
				C24.3,16.3,23.8,15.7,23.2,15.5z"/>
		</g>
	</g>
	<g>
		<g>
			<path class="st0" d="M16,6.5c-4.6,0-8.3,3.7-8.3,8.3v0c0.3-0.3,0.7-0.4,1.1-0.5c0.3-3.7,3.4-6.7,7.2-6.7s6.9,3,7.2,6.7
				c0.4,0.1,0.8,0.3,1.1,0.5v0C24.3,10.3,20.6,6.5,16,6.5z"/>
		</g>
	</g>
</g>
</svg>
