<svg id="Layer_1" data-name="Layer 1" xmlns="http://www.w3.org/2000/svg" viewBox="0 0 24 24"><defs><style>.cls-1{fill:#272e3e;}</style></defs><path class="cls-1" d="M12.85,10.93l0,0v0Z"/><path class="cls-1" d="M20.13.5H3.87A3.38,3.38,0,0,0,.5,3.87V20.13A3.38,3.38,0,0,0,3.87,23.5H20.13a3.37,3.37,0,0,0,3.37-3.37V3.87A3.37,3.37,0,0,0,20.13.5ZM8,19H4.9V9.57H8ZM6.46,8.27h0A1.62,1.62,0,1,1,6.48,5a1.62,1.62,0,1,1,0,3.23ZM19.29,19H16.16v-5c0-1.26-.45-2.12-1.58-2.12A1.73,1.73,0,0,0,13,13a2.25,2.25,0,0,0-.11.77V19H9.75V9.57h3.12V10.9a3.11,3.11,0,0,1,2.82-1.55c2,0,3.6,1.34,3.6,4.23Z"/></svg>