<?xml version="1.0" encoding="utf-8"?>
<!-- Generator: Adobe Illustrator 25.1.0, SVG Export Plug-In . SVG Version: 6.00 Build 0)  -->
<svg version="1.1" id="Layer_1" xmlns="http://www.w3.org/2000/svg" xmlns:xlink="http://www.w3.org/1999/xlink" x="0px" y="0px"
	 viewBox="0 0 150 50" style="enable-background:new 0 0 150 50;" xml:space="preserve">
<style type="text/css">
	.st0{fill:#161E2B;}
	.st1{fill:#00A8F2;}
	.st2{fill:#FFBE0B;}
	.st3{fill:#FF006E;}
</style>
<g>
	<path class="st0" d="M23.2,5.8v4.5c0,0.2-0.2,0.4-0.4,0.4h-7.7c-0.2,0-0.4,0.2-0.4,0.4v21.6c0,0.2-0.2,0.4-0.4,0.4H8.9
		c-0.2,0-0.4-0.2-0.4-0.4V11.1c0-0.2-0.2-0.4-0.4-0.4H0.5c-0.2,0-0.4-0.2-0.4-0.4V5.8c0-0.2,0.2-0.4,0.4-0.4h22.3
		C23,5.5,23.2,5.6,23.2,5.8z"/>
	<path class="st0" d="M41.4,24.3H27c-0.3,0-0.4,0.3-0.4,0.5c0.8,2.4,2.8,3.8,5.3,3.8c1.9,0,3.7-0.7,5.1-2c0.2-0.1,0.4-0.1,0.5,0
		l2.7,2.7c0.1,0.1,0.1,0.4,0,0.5c-2.1,2.2-5.1,3.5-8.8,3.5c-6.8,0-11.1-4.3-11.1-10.8c0-6.5,4.5-10.9,10.9-10.9
		c7.3,0,10.8,4.8,10.4,12.3C41.8,24.2,41.6,24.3,41.4,24.3z M35.7,20.7c0.2,0,0.4-0.2,0.4-0.4c-0.2-2.6-2-4.2-4.7-4.2
		c-2.5,0-4.3,1.6-4.9,4.1c-0.1,0.2,0.1,0.5,0.4,0.5H35.7z"/>
	<path class="st0" d="M54.5,16.8c-3,0-5,2.3-5,5.7c0,3.4,2.1,5.8,5,5.8c2,0,3.7-0.7,4.7-2.2c0.1-0.2,0.3-0.2,0.5-0.1l3.6,2.4
		c0.2,0.1,0.2,0.3,0.1,0.5c-1.3,2-3.3,3.4-5.9,4c-8.2,2-15.9-5.4-13.8-13.6c1.2-4.7,5.1-7.6,10.5-7.6c3.9,0,7.1,1.5,9,4.2
		c0.1,0.2,0.1,0.4-0.1,0.5l-3.5,2.5c-0.2,0.1-0.4,0.1-0.5-0.1C58,17.6,56.5,16.8,54.5,16.8z"/>
	<path class="st0" d="M87.4,19.7v13c0,0.2-0.2,0.4-0.4,0.4h-5.3c-0.2,0-0.4-0.2-0.4-0.4V21.5c0-2.7-1.6-4.3-4.2-4.3
		c-3,0-4.9,2.3-4.9,5.4v10.1c0,0.2-0.2,0.4-0.4,0.4h-5.3c-0.2,0-0.4-0.2-0.4-0.4V4.2c0-0.2,0.2-0.4,0.4-0.4h5.3
		c0.2,0,0.4,0.2,0.4,0.4v10.2c0,0.4,0.5,0.5,0.7,0.2c1.5-2,3.8-2.9,6.7-3C84.4,11.6,87.4,14.8,87.4,19.7z"/>
	<path class="st0" d="M129,12v4.9c0,0.2-0.2,0.4-0.4,0.4c-4.1-0.2-6.6,2.1-6.6,5.5v9.8c0,0.2-0.2,0.4-0.4,0.4h-5.3
		c-0.2,0-0.4-0.2-0.4-0.4V12.2c0-0.2,0.2-0.4,0.4-0.4h5.3c0.2,0,0.4,0.2,0.4,0.4v2.2c0,0.4,0.5,0.5,0.7,0.2c1.4-1.9,3.4-2.9,6-3
		C128.9,11.6,129,11.8,129,12z"/>
	<path class="st0" d="M140.9,16.8c-3,0-5,2.3-5,5.7c0,3.4,2.1,5.8,5,5.8c2,0,3.6-0.7,4.7-2.2c0.1-0.2,0.3-0.2,0.5-0.1l3.6,2.4
		c0.2,0.1,0.2,0.3,0.1,0.5c-1.3,2-3.3,3.4-5.9,4c-8.2,2-15.9-5.4-13.8-13.6c1.2-4.7,5.1-7.6,10.5-7.6c3.9,0,7.1,1.5,9,4.2
		c0.1,0.2,0.1,0.4-0.1,0.5l-3.5,2.5c-0.2,0.1-0.4,0.1-0.5-0.1C144.4,17.6,142.9,16.8,140.9,16.8z"/>
	<path class="st0" d="M11.8,40.1c-0.6,0-1.1,0.2-1.1,0.7c0,1.5,3.9,0.7,3.9,3.3c0,1.3-1.2,2.1-2.8,2.1c-1.2,0-2.3-0.5-3-1.2l0.6-1.2
		c0.7,0.7,1.7,1.1,2.5,1.1c0.8,0,1.2-0.3,1.2-0.8c0-1.5-3.9-0.6-3.9-3.2c0-1.3,1.1-2.1,2.7-2.1c1,0,1.9,0.3,2.6,0.8L14,40.8
		C13.2,40.3,12.4,40.1,11.8,40.1z"/>
	<path class="st0" d="M24.1,42.5c0,2.1-1.7,3.7-3.8,3.7s-3.8-1.6-3.8-3.7c0-2.1,1.7-3.6,3.8-3.6S24.1,40.4,24.1,42.5z M17.8,42.5
		c0,1.4,1.1,2.4,2.5,2.4c1.3,0,2.4-1.1,2.4-2.4c0-1.4-1.1-2.4-2.4-2.4C18.9,40.1,17.8,41.2,17.8,42.5z"/>
	<path class="st0" d="M31.3,38.9l0,1.2h-3.6v1.9H31v1.2h-3.3v2.9h-1.4v-7.2H31.3z"/>
	<path class="st0" d="M38.4,38.9v1.2h-2.2v6h-1.4v-6h-2.2v-1.2H38.4z"/>
	<path class="st0" d="M41,38.9l1.7,5.7l1.6-5.7h1.4l1.7,5.7l1.6-5.7h1.4L48,46.1h-1.4L45,40.7l-1.6,5.4H42l-2.4-7.2H41z"/>
	<path class="st0" d="M56.4,44.6h-3.5l-0.6,1.5h-1.4l3.2-7.2h1.4l3.1,7.2h-1.5L56.4,44.6z M55.9,43.4l-1.3-3l-1.3,3H55.9z"/>
	<path class="st0" d="M65,46.1L63.7,44c-0.1,0-0.2,0-0.3,0h-1.6v2.1h-1.4v-7.2h3c1.9,0,2.9,0.9,2.9,2.5c0,1.1-0.5,1.9-1.4,2.3
		l1.6,2.4H65z M61.8,42.8h1.6c1,0,1.6-0.4,1.6-1.3c0-0.9-0.6-1.3-1.6-1.3h-1.6V42.8z"/>
	<path class="st0" d="M74.2,38.9v1.2h-3.9v1.8h3.5v1.2h-3.5v1.8h4v1.2h-5.4v-7.2H74.2z"/>
	<path class="st0" d="M83.3,40.1c-0.6,0-1.1,0.2-1.1,0.7c0,1.5,3.9,0.7,3.9,3.3c0,1.3-1.2,2.1-2.8,2.1c-1.2,0-2.3-0.5-3-1.2l0.6-1.2
		c0.7,0.7,1.7,1.1,2.5,1.1c0.8,0,1.2-0.3,1.2-0.8c0-1.5-3.9-0.6-3.9-3.2c0-1.3,1.1-2.1,2.7-2.1c1,0,1.9,0.3,2.6,0.8l-0.6,1.2
		C84.7,40.3,83.8,40.1,83.3,40.1z"/>
	<path class="st0" d="M95.5,42.5c0,2.1-1.7,3.7-3.8,3.7s-3.8-1.6-3.8-3.7c0-2.1,1.7-3.6,3.8-3.6S95.5,40.4,95.5,42.5z M89.2,42.5
		c0,1.4,1.1,2.4,2.5,2.4c1.3,0,2.4-1.1,2.4-2.4c0-1.4-1.1-2.4-2.4-2.4C90.4,40.1,89.2,41.2,89.2,42.5z"/>
	<path class="st0" d="M99.1,38.9v6h3.1v1.2h-4.5v-7.2H99.1z"/>
	<path class="st0" d="M107.4,44.9c1.1,0,1.8-0.7,1.8-1.8v-4.2h1.4v4.2c0,1.9-1.2,3.1-3.2,3.1c-2,0-3.2-1.2-3.2-3.1v-4.2h1.4v4.2
		C105.6,44.3,106.3,44.9,107.4,44.9z"/>
	<path class="st0" d="M118.3,38.9v1.2h-2.2v6h-1.4v-6h-2.2v-1.2H118.3z"/>
	<path class="st0" d="M121.7,38.9v7.2h-1.4v-7.2H121.7z"/>
	<path class="st0" d="M131.6,42.5c0,2.1-1.7,3.7-3.8,3.7s-3.8-1.6-3.8-3.7c0-2.1,1.7-3.6,3.8-3.6S131.6,40.4,131.6,42.5z
		 M125.4,42.5c0,1.4,1.1,2.4,2.5,2.4c1.3,0,2.4-1.1,2.4-2.4c0-1.4-1.1-2.4-2.4-2.4C126.5,40.1,125.4,41.2,125.4,42.5z"/>
	<path class="st0" d="M135.2,38.9l3.7,4.9v-4.9h1.3v7.2h-1.3l-3.7-4.9v4.9h-1.3v-7.2H135.2z"/>
	<path class="st0" d="M145.4,40.1c-0.6,0-1.1,0.2-1.1,0.7c0,1.5,3.9,0.7,3.9,3.3c0,1.3-1.2,2.1-2.8,2.1c-1.2,0-2.3-0.5-3-1.2
		l0.6-1.2c0.7,0.7,1.7,1.1,2.5,1.1c0.8,0,1.2-0.3,1.2-0.8c0-1.5-3.9-0.6-3.9-3.2c0-1.3,1.1-2.1,2.7-2.1c1,0,1.9,0.3,2.6,0.8
		l-0.6,1.2C146.8,40.3,146,40.1,145.4,40.1z"/>
	<g>
		<path class="st1" d="M95.6,20.9c0.2,0.1,0.4,0,0.4-0.2c0.1-0.6,0.3-1.1,0.6-1.6c1.3-2.2,3.9-3.2,6.2-2.6c0.1,0,0.2,0,0.2,0
			l2.3-1.5c0.1-0.1,0.1-0.1,0.1-0.2l0.2-3.1c0-0.1-0.1-0.3-0.2-0.3c-5.1-2-11.1,0-14,4.9c-0.8,1.5-1.3,3-1.5,4.6
			c0,0.2,0.2,0.4,0.4,0.3l2.6-1.3c0.1,0,0.2,0,0.3,0L95.6,20.9z"/>
		<path class="st2" d="M105.7,29.1l2.6,1.7c0.1,0.1,0.2,0.1,0.4,0c1.1-0.9,2-1.9,2.7-3.2c3-5.1,1.5-11.6-3.3-15
			c-0.2-0.1-0.5,0-0.5,0.2l-0.2,2.9c0,0.1-0.1,0.2-0.1,0.2l-2,1.3c-0.2,0.1-0.2,0.3,0,0.5c1.9,1.7,2.4,4.6,1.1,6.9
			c-0.2,0.4-0.5,0.8-0.8,1.1c-0.1,0.1-0.1,0.1-0.1,0.2l0.2,2.8C105.6,29,105.7,29,105.7,29.1z"/>
		<path class="st3" d="M93.2,22l-2.8,1.4c-0.1,0.1-0.2,0.2-0.2,0.3c0.5,3.3,2.5,6.3,5.6,8.1c3.3,1.9,7.2,2,10.4,0.5
			c0.2-0.1,0.2-0.4,0-0.5l-2.4-1.6c-0.1-0.1-0.1-0.1-0.1-0.2l-0.1-2.4c0-0.2-0.2-0.3-0.4-0.3c-0.5,0.2-1.1,0.3-1.7,0.3
			c-1,0-1.9-0.2-2.8-0.8c-1.3-0.8-2.2-2-2.6-3.3c0-0.1-0.1-0.1-0.2-0.2L93.5,22C93.4,22,93.3,22,93.2,22z"/>
	</g>
</g>
</svg>
