<?xml version="1.0" encoding="utf-8"?>
<!-- Generator: Adobe Illustrator 25.1.0, SVG Export Plug-In . SVG Version: 6.00 Build 0)  -->
<svg version="1.1" id="Capa_1" xmlns="http://www.w3.org/2000/svg" xmlns:xlink="http://www.w3.org/1999/xlink" x="0px" y="0px"
	 viewBox="0 0 32 32" style="enable-background:new 0 0 32 32;" xml:space="preserve">
<style type="text/css">
	.st0{fill:#FFFFFF;}
</style>
<g>
	<g>
		<g>
			<path class="st0" d="M20.4,7h-8.8c-0.6,0-1.1,0.5-1.1,1.1v15.8c0,0.6,0.5,1.1,1.1,1.1h8.8c0.6,0,1.1-0.5,1.1-1.1V8.1
				C21.5,7.5,21,7,20.4,7z M14.2,7.9h3.7c0.2,0,0.3,0.1,0.3,0.3c0,0.2-0.1,0.3-0.3,0.3h-3.7c-0.2,0-0.3-0.1-0.3-0.3
				C13.9,8,14.1,7.9,14.2,7.9z M16,24.4c-0.6,0-1-0.4-1-1c0-0.6,0.4-1,1-1c0.6,0,1,0.4,1,1C17,23.9,16.6,24.4,16,24.4z M20.4,21.6
				h-8.8V9.3h8.8V21.6z"/>
		</g>
	</g>
	<g>
		<g>
			<g>
				<path class="st0" d="M15,11.5h-2.2c-0.3,0-0.6,0.3-0.6,0.6v2.2c0,0.3,0.3,0.6,0.6,0.6H15c0.3,0,0.6-0.3,0.6-0.6v-2.2
					C15.6,11.8,15.4,11.5,15,11.5z"/>
			</g>
		</g>
		<g>
			<g>
				<path class="st0" d="M15,15.4h-2.2c-0.3,0-0.6,0.3-0.6,0.6v2.2c0,0.3,0.3,0.6,0.6,0.6H15c0.3,0,0.6-0.3,0.6-0.6V16
					C15.6,15.7,15.4,15.4,15,15.4z"/>
			</g>
		</g>
		<g>
			<g>
				<path class="st0" d="M19.2,11.5H17c-0.3,0-0.6,0.3-0.6,0.6v2.2c0,0.3,0.3,0.6,0.6,0.6h2.2c0.3,0,0.6-0.3,0.6-0.6v-2.2
					C19.8,11.8,19.5,11.5,19.2,11.5z"/>
			</g>
		</g>
	</g>
</g>
</svg>
