<?xml version="1.0" encoding="utf-8"?>
<!-- Generator: Adobe Illustrator 25.1.0, SVG Export Plug-In . SVG Version: 6.00 Build 0)  -->
<svg version="1.1" id="bold" xmlns="http://www.w3.org/2000/svg" xmlns:xlink="http://www.w3.org/1999/xlink" x="0px" y="0px"
	 viewBox="0 0 512 512" style="enable-background:new 0 0 512 512;" xml:space="preserve">
<style type="text/css">
	.st0{fill:#FFFFFF;}
</style>
<path class="st0" d="M368.6,112c-17.3,0-31.4,14.1-31.4,31.4c0,5.4,1.4,10.5,3.8,15l-51.5,51.5c-7.1-5.5-16-8.8-25.6-8.8
	c-9.7,0-18.5,3.3-25.6,8.8L198,169.7c1.8-3.1,3-6.7,3-10.6c0-11.6-9.4-20.9-20.9-20.9s-20.9,9.4-20.9,20.9
	c0,11.6,9.4,20.9,20.9,20.9c3.9,0,7.5-1.1,10.6-3l40.2,40.2c-5.5,7.1-8.8,16-8.8,25.6c0,9.7,3.3,18.5,8.8,25.6l-66.3,66.3
	c-5.6-5.1-13-8.2-21.1-8.2c-17.3,0-31.4,14.1-31.4,31.4s14.1,31.4,31.4,31.4s31.4-14.1,31.4-31.4c0-5.4-1.4-10.5-3.8-15l67.2-67.2
	c5.8,4.5,12.8,7.5,20.4,8.5v53.2c-14.8,2.5-26.2,15.4-26.2,30.9c0,17.3,14.1,31.4,31.4,31.4s31.4-14.1,31.4-31.4
	c0-15.5-11.3-28.4-26.2-30.9v-53.2c7.6-1,14.6-4,20.4-8.5l40.2,40.2c-1.8,3.1-3,6.7-3,10.6c0,11.6,9.4,20.9,20.9,20.9
	s20.9-9.4,20.9-20.9s-9.4-20.9-20.9-20.9c-3.9,0-7.5,1.1-10.6,3l-40.2-40.2c5.5-7.1,8.8-16,8.8-25.6c0-9.7-3.3-18.5-8.8-25.6
	l50.6-50.6c5.6,5.1,13,8.2,21.1,8.2c17.3,0,31.4-14.1,31.4-31.4S385.9,112,368.6,112z"/>
</svg>
