<?xml version="1.0" encoding="utf-8"?>
<!-- Generator: Adobe Illustrator 25.0.1, SVG Export Plug-In . SVG Version: 6.00 Build 0)  -->
<svg version="1.1" id="Layer_1" xmlns="http://www.w3.org/2000/svg" xmlns:xlink="http://www.w3.org/1999/xlink" x="0px" y="0px"
	 viewBox="0 0 32 32" style="enable-background:new 0 0 32 32;" xml:space="preserve">
<style type="text/css">
	.st0{fill:#FFFFFF;}
</style>
<g>
	<path class="st0" d="M25.2,19.8c-0.4-0.4-0.8-0.8-1.2-1.2c0,0-0.1-0.1-0.2-0.1c-0.6,0-1.3,0-1.9,0h-0.1c-0.8,1.1-1.2,1.8-2.7,2.5
		c1.7,0,3,0,4.8,0c0.1,0,0.1,0,0.2-0.1c0.2-0.2,0.3-0.3,0.5-0.5C24.8,20.3,25.1,20.1,25.2,19.8C25.3,19.9,25.2,19.8,25.2,19.8z"/>
	<path class="st0" d="M21,18.6L21,18.6c0.6-0.8,0.9-1.7,1-2.7s0-2-0.4-2.9c-0.4-0.9-1-1.7-1.7-2.3c-2-1.6-4.8-1.8-7-0.4
		C11.8,11,11,12,10.5,13.2c-0.7,1.9-0.5,3.8,0.7,5.5c-1.1,0-2.2,0-3.3,0l0,0c0.4,0.4,0.8,0.8,1.2,1.2c-0.4,0.4-0.8,0.8-1.2,1.2
		c0.1,0,0.1,0,0.1,0c0.6,0,1.3,0,1.9,0c2.6,0,5.1,0,7.7,0c0.1,0,0.1,0,0.2,0C19.1,20.6,20.2,19.7,21,18.6z M16.1,18.6
		c-1.9,0-3.4-1.5-3.4-3.4s1.5-3.4,3.4-3.4s3.4,1.5,3.4,3.4S18,18.6,16.1,18.6z"/>
</g>
</svg>
