<?xml version="1.0" encoding="utf-8"?>
<!-- Generator: Adobe Illustrator 25.0.1, SVG Export Plug-In . SVG Version: 6.00 Build 0)  -->
<svg version="1.1" id="Layer_1" xmlns="http://www.w3.org/2000/svg" xmlns:xlink="http://www.w3.org/1999/xlink" x="0px" y="0px"
	 viewBox="0 0 24 24" style="enable-background:new 0 0 24 24;" xml:space="preserve">
<style type="text/css">
	.st0{fill:#F5F6FA;}
</style>
<g>
	<path class="st0" d="M11.8,0L8.9,7.1c1.4,1,2.1,2.6,2.1,4.3c0,3.2-2.3,5.5-5.5,5.5C2.6,17,0,15,0,11.5c0-1.7,0.6-3.1,1.5-4.4L6.4,0
		H11.8z M23.2,11.5c0,3.2-2.3,5.5-5.5,5.5c-2.9,0-5.5-1.9-5.5-5.5c0-1.7,0.6-3.1,1.5-4.4L18.5,0H24l-2.9,7.1
		C22.5,8.1,23.2,9.7,23.2,11.5z"/>
</g>
</svg>
