<?xml version="1.0" standalone="no"?>
<!DOCTYPE svg PUBLIC "-//W3C//DTD SVG 20010904//EN"
 "http://www.w3.org/TR/2001/REC-SVG-20010904/DTD/svg10.dtd">
<svg version="1.0" xmlns="http://www.w3.org/2000/svg"
 width="256.000000pt" height="256.000000pt" viewBox="0 0 256.000000 256.000000"
 preserveAspectRatio="xMidYMid meet">
<metadata>
Created by potrace 1.11, written by Peter Selinger 2001-2013
</metadata>
<g transform="translate(0.000000,256.000000) scale(0.100000,-0.100000)"
fill="#000000" stroke="none">
<path d="M1169 2256 c-2 -2 -24 -7 -49 -10 -282 -38 -568 -247 -705 -514 -63
-125 -119 -331 -102 -376 8 -20 14 -17 154 51 l111 55 107 -52 c63 -31 110
-49 116 -43 5 5 18 35 29 67 78 226 312 363 545 318 38 -8 45 -5 145 61 58 39
106 71 108 72 6 5 11 52 17 173 l7 129 -40 16 c-83 33 -179 50 -308 53 -72 2
-132 2 -135 0z"/>
<path d="M1822 2081 c-7 -4 -14 -42 -17 -87 -11 -164 -14 -196 -17 -199 -2 -1
-45 -30 -95 -64 -51 -34 -93 -66 -93 -71 0 -6 20 -35 45 -66 80 -98 117 -197
116 -315 0 -112 -31 -200 -102 -296 l-39 -52 5 -118 c3 -65 8 -125 10 -133 3
-8 59 -50 125 -94 115 -75 121 -78 142 -63 103 71 231 245 291 398 50 126 66
219 63 373 -2 78 -6 150 -9 161 -3 11 -10 42 -17 70 -40 177 -155 363 -307
496 -69 60 -85 70 -101 60z"/>
<path d="M455 1219 c-66 -34 -125 -67 -131 -75 -8 -10 -7 -33 6 -87 45 -183
123 -326 248 -456 148 -153 317 -244 532 -286 74 -14 288 -15 355 0 99 21 224
67 237 88 10 17 -2 28 -120 106 l-108 71 -3 72 c-4 118 -8 158 -15 165 -3 4
-27 1 -54 -5 -26 -6 -90 -10 -142 -8 -85 2 -103 7 -172 38 -120 56 -220 164
-258 277 -13 41 -18 45 -132 102 -65 32 -119 59 -120 58 -2 0 -57 -27 -123
-60z"/>
</g>
</svg>
