<?xml version="1.0" encoding="utf-8"?>
<!-- Generator: Adobe Illustrator 25.0.1, SVG Export Plug-In . SVG Version: 6.00 Build 0)  -->
<svg version="1.1" id="Layer_1" xmlns="http://www.w3.org/2000/svg" xmlns:xlink="http://www.w3.org/1999/xlink" x="0px" y="0px"
	 viewBox="0 0 32 32" style="enable-background:new 0 0 32 32;" xml:space="preserve">
<style type="text/css">
	.st0{fill:#FFFFFF;}
</style>
<g>
	<path class="st0" d="M15.1,9.6c-1.5,0.3-2.8,1.6-3.1,3.1c-0.3,1.2,0,2.3,0.5,3.2c0.7,1.1,1.1,2.3,1.1,3.6v0.6h1.9l0,0v-4.8
		l-0.9-0.8c-0.2-0.1-0.2-0.4,0-0.6c0.1-0.2,0.4-0.2,0.6,0l0.8,0.7l0.9-0.8c0.2-0.1,0.4-0.1,0.6,0.1c0.1,0.2,0.1,0.4-0.1,0.6l-1,0.9
		v4.8l0,0h2.1v-0.8c0-1.2,0.4-2.3,1.1-3.3c0.4-0.7,0.7-1.4,0.7-2.3C20.1,11,17.8,9,15.1,9.6z"/>
	<path class="st0" d="M16.6,22.5h-1.3c-0.9,0-1.6-0.7-1.6-1.6l0,0h4.6l0,0C18.3,21.8,17.5,22.5,16.6,22.5z"/>
</g>
</svg>
