<?xml version="1.0" encoding="utf-8"?>
<!-- Generator: Adobe Illustrator 25.1.0, SVG Export Plug-In . SVG Version: 6.00 Build 0)  -->
<svg version="1.1" id="Layer_1" xmlns="http://www.w3.org/2000/svg" xmlns:xlink="http://www.w3.org/1999/xlink" x="0px" y="0px"
	 viewBox="0 0 32 32" style="enable-background:new 0 0 32 32;" xml:space="preserve">
<style type="text/css">
	.st0{fill:#FFFFFF;}
</style>
<g>
	<path class="st0" d="M21.3,21.4c-0.2,0.3-0.1,0.8,0.2,1c0.3,0.2,0.8,0.1,1-0.2c1.2-1.8,1.8-3.9,1.8-6.2c0-2.3-0.7-4.4-1.8-6.2
		c-0.2-0.3-0.7-0.4-1-0.2c-0.3,0.2-0.4,0.7-0.2,1c1,1.5,1.6,3.4,1.6,5.4C22.9,18,22.3,19.8,21.3,21.4L21.3,21.4z"/>
	<path class="st0" d="M10.5,9.6c0.3,0.2,0.4,0.7,0.2,1c-1,1.5-1.6,3.4-1.6,5.4c0,2,0.6,3.8,1.6,5.4c0.2,0.3,0.1,0.8-0.2,1
		c-0.3,0.2-0.8,0.1-1-0.2c-1.2-1.8-1.8-3.9-1.8-6.2c0-2.3,0.7-4.4,1.8-6.2C9.7,9.5,10.2,9.4,10.5,9.6L10.5,9.6z"/>
	<path class="st0" d="M12.6,12.5c0.3,0.2,0.4,0.7,0.2,1C12.3,14.2,12,15,12,15.9c0,0.9,0.3,1.7,0.8,2.4c0.2,0.3,0.2,0.8-0.2,1
		c-0.3,0.2-0.8,0.2-1-0.2c-0.7-0.9-1-2-1-3.2c0-1.2,0.4-2.3,1-3.2C11.8,12.4,12.3,12.3,12.6,12.5L12.6,12.5z"/>
	<path class="st0" d="M16.1,13.4c-1.5,0-2.6,1.2-2.6,2.6s1.2,2.6,2.6,2.6s2.6-1.2,2.6-2.6S17.6,13.4,16.1,13.4z"/>
	<path class="st0" d="M19.4,18.3c-0.2,0.3-0.2,0.8,0.2,1c0.3,0.2,0.8,0.2,1-0.2c0.7-0.9,1-2,1-3.2c0-1.2-0.4-2.3-1-3.2
		c-0.2-0.3-0.7-0.4-1-0.2c-0.3,0.2-0.4,0.7-0.2,1c0.5,0.7,0.8,1.5,0.8,2.4C20.1,16.8,19.9,17.6,19.4,18.3L19.4,18.3z"/>
</g>
</svg>
