<svg id="Layer_1" data-name="Layer 1" xmlns="http://www.w3.org/2000/svg" viewBox="0 0 24 24"><defs><style>.cls-1{fill:#272e3e;}</style></defs><path class="cls-1" d="M20.13.5H3.87A3.38,3.38,0,0,0,.5,3.87V20.13A3.38,3.38,0,0,0,3.87,23.5H20.13a3.37,3.37,0,0,0,3.37-3.37V3.87A3.37,3.37,0,0,0,20.13.5Zm-.78,8.06a3.1,3.1,0,0,1,0,.44,9.82,9.82,0,0,1-9.88,9.88,9.68,9.68,0,0,1-5.32-1.56,5.93,5.93,0,0,0,.84.06,7.08,7.08,0,0,0,4.31-1.49,3.5,3.5,0,0,1-3.25-2.41,4.51,4.51,0,0,0,.65,0,3,3,0,0,0,.9-.12A3.45,3.45,0,0,1,4.84,10v0a3.47,3.47,0,0,0,1.57.43A3.48,3.48,0,0,1,4.87,7.51a3.39,3.39,0,0,1,.48-1.76,9.78,9.78,0,0,0,7.14,3.63,3.36,3.36,0,0,1-.08-.79,3.47,3.47,0,0,1,6-2.38,6.86,6.86,0,0,0,2.2-.83,3.39,3.39,0,0,1-1.52,1.91,6.82,6.82,0,0,0,2-.55A7.17,7.17,0,0,1,19.35,8.56Z"/></svg>