<?xml version="1.0" encoding="utf-8"?>
<!-- Generator: Adobe Illustrator 25.1.0, SVG Export Plug-In . SVG Version: 6.00 Build 0)  -->
<svg version="1.1" id="Capa_1" xmlns="http://www.w3.org/2000/svg" xmlns:xlink="http://www.w3.org/1999/xlink" x="0px" y="0px"
	 viewBox="0 0 32 32" style="enable-background:new 0 0 32 32;" xml:space="preserve">
<style type="text/css">
	.st0{fill:#FFFFFF;}
</style>
<g>
	<path class="st0" d="M16,23c-2.3,0-4.6,0-6.9,0c-0.9,0-1.5-0.6-1.5-1.5c0-3.7,0-7.3,0-11C7.6,9.6,8.2,9,9.1,9c4.6,0,9.2,0,13.8,0
		c0.9,0,1.5,0.6,1.5,1.5c0,3.7,0,7.4,0,11.1c0,0.9-0.6,1.5-1.5,1.5C20.6,23,18.3,23,16,23C16,23,16,23,16,23z M8.2,12.6
		c0,0.1,0,0.1,0,0.2c0,2.9,0,5.8,0,8.6c0,0.6,0.3,1,0.9,1c4.6,0,9.2,0,13.8,0c0.6,0,1-0.3,1-1c0-2.9,0-5.8,0-8.6c0-0.1,0-0.1,0-0.2
		C18.6,12.6,13.4,12.6,8.2,12.6z M10.1,11.5c0.3,0,0.6-0.2,0.6-0.6c0-0.3-0.3-0.6-0.6-0.6c-0.3,0-0.6,0.3-0.6,0.6
		C9.6,11.3,9.8,11.5,10.1,11.5z M12.6,11.5c0.3,0,0.6-0.2,0.6-0.6c0-0.3-0.3-0.6-0.6-0.6c-0.3,0-0.6,0.3-0.6,0.6
		C12.1,11.3,12.3,11.5,12.6,11.5z M15.2,11.5c0.3,0,0.6-0.2,0.6-0.6c0-0.3-0.3-0.6-0.6-0.6c-0.3,0-0.6,0.3-0.6,0.6
		C14.6,11.3,14.9,11.5,15.2,11.5z"/>
	<path class="st0" d="M16,16.8c-2.1,0-4.2,0-6.3,0c-0.3,0-0.4-0.1-0.4-0.4c0-0.7,0-1.4,0-2c0-0.3,0.1-0.4,0.4-0.4
		c4.2,0,8.5,0,12.7,0c0.3,0,0.4,0.1,0.4,0.4c0,0.7,0,1.4,0,2.1c0,0.3-0.1,0.4-0.4,0.4C20.2,16.8,18.1,16.8,16,16.8z"/>
	<path class="st0" d="M18.3,17.4c1.4,0,2.7,0,4.1,0c0.3,0,0.4,0.1,0.4,0.4c0,1,0,2.1,0,3.1c0,0.3-0.1,0.4-0.4,0.4
		c-2.7,0-5.5,0-8.2,0c-0.3,0-0.4-0.1-0.4-0.4c0-1.1,0-2.1,0-3.2c0-0.3,0.1-0.4,0.4-0.4C15.5,17.4,16.9,17.4,18.3,17.4z"/>
	<path class="st0" d="M11.2,17.4c0.5,0,1.1,0,1.6,0c0.3,0,0.4,0.1,0.4,0.4c0,1.1,0,2.1,0,3.2c0,0.3-0.1,0.4-0.4,0.4
		c-1.1,0-2.1,0-3.2,0c-0.3,0-0.4-0.1-0.4-0.4c0-1.1,0-2.1,0-3.2c0-0.3,0.1-0.4,0.4-0.4C10.2,17.4,10.7,17.4,11.2,17.4z"/>
</g>
</svg>
