<svg id="Layer_1" data-name="Layer 1" xmlns="http://www.w3.org/2000/svg" viewBox="0 0 67.63 37.6"><defs><style>.cls-1{fill:#c3c9d9;}</style></defs><path class="cls-1" d="M12.12,9.8h.06l.16.06A9.35,9.35,0,0,1,19,12.63L15.31,16a3.87,3.87,0,0,1-1.8,1.22,2.53,2.53,0,0,1,.11-1c.5-1.62,1.14-3.19,1.7-4.79,0-.11-.11-.32-.15-.42a2.15,2.15,0,0,0-1.36.68c-.87.7-1.73,1.4-2.57,2.13a2.22,2.22,0,0,1-.79.45,9.67,9.67,0,0,1,1-2.63A6.62,6.62,0,0,0,12.12,9.8Z"/><path class="cls-1" d="M37,10.27a3.78,3.78,0,0,1,3.52,1.45,4,4,0,0,1-.83,5.5,3.81,3.81,0,0,1-5.15-.72A4.09,4.09,0,0,1,34,12.58,3.69,3.69,0,0,1,37,10.27Zm0,1.24a2.38,2.38,0,0,0-1.16.59,2.8,2.8,0,0,0,0,3.94,2.27,2.27,0,0,0,2.49.45,2.68,2.68,0,0,0,1.46-2.85A2.41,2.41,0,0,0,37.07,11.51Z"/><path class="cls-1" d="M7.17,12a9.09,9.09,0,0,1,3-1.67C9.06,12.62,8,15,6.94,17.25a3.42,3.42,0,0,0-.36,1.12c.16.55.85.45,1.22.18,1.57-1.08,2.89-2.48,4.44-3.58l.17.29a13.14,13.14,0,0,1-.55,1.6C11,19.09,10,21.31,9.09,23.52c-.15.33-.28.79.06,1.05s1,0,1.39-.21Q16,21.49,21.35,18.54a8.6,8.6,0,0,1-9,8.56,8.76,8.76,0,0,1-5-1.93A8.58,8.58,0,0,1,7.17,12Z"/><path class="cls-1" d="M23.47,10.35h1.4c.38,2,.93,3.89,1.24,5.87.46-2,1-3.91,1.49-5.87h1.14c.5,1.94,1,3.88,1.46,5.84.35-2,.89-3.89,1.32-5.84H32.9c-.65,2.48-1.24,5-1.91,7.45H29.47c-.43-1.76-.92-3.5-1.31-5.26-.39,1.76-.87,3.51-1.31,5.26H25.31C24.7,15.32,24.1,12.83,23.47,10.35Z"/><path class="cls-1" d="M42.13,10.35h1.38c.43,2,.89,3.89,1.29,5.85.42-2,1-3.91,1.46-5.85h1.16c.43,2,1,3.87,1.39,5.84.44-2,.92-3.88,1.35-5.84h1.39c-.64,2.48-1.25,5-1.89,7.45H48.11c-.37-1.79-1-3.53-1.25-5.34-.44,1.78-.9,3.56-1.35,5.34-.52,0-1,0-1.55,0C43.36,15.31,42.74,12.83,42.13,10.35Z"/><path class="cls-1" d="M52.54,11.53c0-.4,0-.79,0-1.18h5.29c0,.4.09.86-.22,1.18-1.2,1.7-2.29,3.48-3.57,5.12,1.28,0,2.56,0,3.84,0,0,.39,0,.78,0,1.17-1.83,0-3.67,0-5.5,0,0-.37-.09-.8.17-1.11q1.52-2.19,3-4.4a6.53,6.53,0,0,1,.62-.77C55,11.55,53.75,11.52,52.54,11.53Z"/><path class="cls-1" d="M61.09,10.35h1.39c.87,2.48,1.71,5,2.59,7.45H63.69q-.33-1-.63-1.92H60.52c-.22.64-.41,1.29-.63,1.92H58.5C59.39,15.33,60.22,12.84,61.09,10.35Zm.68,1.32c-.22,1.06-.62,2.08-.94,3.13h1.92C62.36,13.77,62.07,12.71,61.77,11.67Z"/><path class="cls-1" d="M64.51,10.32v.21h-.32v.85H64v-.85h-.32v-.21Z"/><path class="cls-1" d="M64.91,10.32l.31.65.3-.65h.27v1.06h-.22v-.71l-.28.6h-.15l-.28-.6v.71h-.22V10.32Z"/><path class="cls-1" d="M34.36,20H35c0,2.24,0,4.48,0,6.72h-.64l.09-.42c-.29.22-.56.55-1,.51a.78.78,0,0,1-.86-.61,7.59,7.59,0,0,1-.19-2.77c.08-.53.15-1.26.75-1.45s.91.19,1.23.5C34.34,21.61,34.38,20.78,34.36,20Zm-1,2.42c-.44.39-.32,1.06-.36,1.58a5.05,5.05,0,0,0,.25,2.26c.37.27.87,0,1.1-.35,0-1,0-2.05,0-3.07C34.12,22.53,33.71,22.21,33.36,22.38Z"/><path class="cls-1" d="M36.22,20.24h.6c0,.24,0,.47,0,.71h-.62C36.21,20.72,36.22,20.48,36.22,20.24Z"/><path class="cls-1" d="M52.2,20.36h.61c0,.55,0,1.11,0,1.66h.81c0,.49-.5.28-.81.34,0,1.21,0,2.42,0,3.63,0,.4.48.28.75.32,0,.24-.06.47-.35.43a.77.77,0,0,1-1-.64c-.08-1.25,0-2.5,0-3.74-.22-.08-.67.13-.71-.21.17-.22.48-.1.71-.15C52.21,21.45,52.22,20.91,52.2,20.36Z"/><path class="cls-1" d="M24.47,22.41a1.68,1.68,0,0,1,1.18-.51,1.3,1.3,0,0,1,.76.47c.36-.26.81-.59,1.28-.44a.87.87,0,0,1,.69.84c0,1.3,0,2.61,0,3.91h-.61c0-1.32,0-2.64,0-4-.17-.61-1-.37-1.27.06,0,1.3,0,2.6,0,3.9h-.62c0-1.2,0-2.41,0-3.61,0-.25,0-.59-.3-.68s-.79.17-1.11.39c0,1.3,0,2.6,0,3.9h-.62c0-1.55,0-3.1,0-4.65h.6Z"/><path class="cls-1" d="M29.48,22.5a1.2,1.2,0,0,1,2.08,0,4.45,4.45,0,0,1,.23,1.74c-.65,0-1.3,0-1.95,0A5.35,5.35,0,0,0,30,26.06a.6.6,0,0,0,.88.2,1.62,1.62,0,0,0,.33-1h.57c-.11.52-.18,1.21-.75,1.45a1.3,1.3,0,0,1-1.53-.43,4.22,4.22,0,0,1-.27-1.87A4.72,4.72,0,0,1,29.48,22.5Zm.57,0a3.23,3.23,0,0,0-.21,1.42h1.35A2.69,2.69,0,0,0,31,22.48C30.76,22.16,30.27,22.27,30.05,22.52Z"/><path class="cls-1" d="M38.53,22a1.14,1.14,0,0,1,1.55.81c.21,1.29,0,2.6.16,3.89h-.6c0-.13,0-.38,0-.51-.35.33-.75.74-1.29.58a1.24,1.24,0,0,1-.45-1.89,4.53,4.53,0,0,1,1.68-1.06c-.09-.5.06-1.24-.49-1.5-.53-.09-.69.51-.71.91h-.64A1.42,1.42,0,0,1,38.53,22Zm-.2,4c.28.57,1,.15,1.21-.29s0-1.1,0-1.65C38.94,24.5,38,25.12,38.33,26Z"/><path class="cls-1" d="M42.51,23.07A1.16,1.16,0,0,1,44.21,22c.43.19.59.67.77,1.08l-.54.15c-.14-.31-.21-.71-.55-.87s-1,.43-.72.86c.43.75,1.34,1.07,1.73,1.84a1.1,1.1,0,0,1-.07,1.25,1.35,1.35,0,0,1-1.45.38,2.1,2.1,0,0,1-1-1.16l.49-.21c.2.42.46,1.06,1,1s.61-.49.51-.85C44.06,24.49,42.72,24.17,42.51,23.07Z"/><path class="cls-1" d="M48.68,22.76A1.18,1.18,0,0,1,50.32,22c.45.19.62.69.82,1.09l-.57.17c-.1-.4-.28-.87-.74-1a.68.68,0,0,0-.44,1.08c.59.78,1.82,1.22,1.81,2.36a1.22,1.22,0,0,1-1.9.84,2.18,2.18,0,0,1-.73-1l.45-.19c.21.37.38.84.82,1a.63.63,0,0,0,.72-.31c.27-.57-.28-1.06-.65-1.41C49.38,24.11,48.51,23.63,48.68,22.76Z"/><path class="cls-1" d="M54.32,22.53a1.2,1.2,0,0,1,1.93-.28,3.56,3.56,0,0,1,.34,2c-.63,0-1.27,0-1.9,0A5.67,5.67,0,0,0,54.84,26a.58.58,0,0,0,1,.1,3.64,3.64,0,0,0,.2-.88h.54c-.08.54-.17,1.23-.75,1.46a1.37,1.37,0,0,1-1.29-.22,2.33,2.33,0,0,1-.44-1.5A7,7,0,0,1,54.32,22.53Zm.52.1a4.13,4.13,0,0,0-.16,1.31H56a4.36,4.36,0,0,0-.14-1.4A.59.59,0,0,0,54.84,22.63Z"/><path class="cls-1" d="M58.16,22.42a1.78,1.78,0,0,1,1-.52,1.11,1.11,0,0,1,.93.48c.36-.27.81-.62,1.29-.44a.87.87,0,0,1,.64.84c0,1.3,0,2.6,0,3.89h-.6c0-1.2,0-2.4,0-3.6,0-.24,0-.58-.27-.68s-.73.13-1,.32c0,1.32,0,2.63,0,4h-.61c0-1.3,0-2.6,0-3.89,0-.25-.2-.4-.4-.45a1.37,1.37,0,0,0-1,.46c0,1.29,0,2.58,0,3.87h-.6c0-1.56,0-3.11,0-4.67h.6C58.17,22.12,58.17,22.32,58.16,22.42Z"/><path class="cls-1" d="M62.88,22.8A1.18,1.18,0,0,1,64.57,22c.42.21.58.68.78,1.08l-.58.15c-.1-.32-.19-.71-.53-.87a.54.54,0,0,0-.75.4c-.13.51.33.87.66,1.16.55.47,1.3,1,1.24,1.8,0,1-1.33,1.34-2,.76a2.17,2.17,0,0,1-.62-1l.47-.16a2.49,2.49,0,0,0,.57.86.62.62,0,0,0,1-.34c.12-.61-.48-1.05-.88-1.42S62.74,23.55,62.88,22.8Z"/><path class="cls-1" d="M36.22,22h.6c0,1.55,0,3.1,0,4.65h-.62C36.22,25.12,36.22,23.57,36.22,22Z"/><path class="cls-1" d="M45.43,22l.68,0c.26,1.31.49,2.63.78,3.93.27-1.31.49-2.63.76-3.94h.67c-.44,1.68-.8,3.39-1.25,5.07-.09.41-.5.59-.86.71h-.59c0-.1,0-.3,0-.4.31-.13.8-.09.91-.48a6,6,0,0,0-.28-1.63C46,24.19,45.73,23.09,45.43,22Z"/></svg>